<svg width="17" height="17" viewBox="0 0 17 17" fill="none" xmlns="http://www.w3.org/2000/svg">
<circle cx="8.33887" cy="8.41064" r="8.34131" fill="#086CD9"/>
<path d="M10.6917 13.0699L10.5282 13.7386C10.0375 13.9323 9.64552 14.0797 9.35364 14.181C9.06145 14.2827 8.72194 14.3332 8.33511 14.3332C7.74107 14.3332 7.27902 14.1877 6.94947 13.8987C6.61993 13.6085 6.45511 13.2407 6.45511 12.7946C6.45511 12.622 6.46707 12.4443 6.49193 12.2633C6.51701 12.0822 6.55688 11.8781 6.61143 11.65L7.22467 9.47948C7.27923 9.27164 7.3256 9.07472 7.36274 8.88849C7.40041 8.70342 7.41856 8.53314 7.41856 8.37985C7.41856 8.10266 7.36117 7.90878 7.24691 7.79977C7.13266 7.69107 6.91464 7.63589 6.59097 7.63589C6.43244 7.63589 6.26951 7.66128 6.10343 7.71038C5.93661 7.75969 5.79403 7.80732 5.67432 7.8516L5.8383 7.18244C6.24003 7.01887 6.62402 6.87881 6.99134 6.76256C7.35865 6.646 7.70571 6.58766 8.034 6.58766C8.62395 6.58766 9.07918 6.73025 9.39886 7.01541C9.71854 7.30078 9.87833 7.67072 9.87833 8.12658C9.87833 8.2209 9.86784 8.38709 9.84528 8.62462C9.82325 8.86268 9.78223 9.0808 9.72242 9.2792L9.11181 11.441C9.06176 11.6146 9.01675 11.8131 8.97762 12.0365C8.93723 12.2584 8.91792 12.428 8.91792 12.5417C8.91792 12.8287 8.98192 13.0247 9.11023 13.1289C9.23949 13.2331 9.46212 13.2849 9.77834 13.2849C9.9268 13.2849 10.0957 13.2586 10.2834 13.2069C10.4706 13.1551 10.6071 13.1097 10.6917 13.0699ZM10.8466 3.99402C10.8466 4.37067 10.7047 4.69234 10.4194 4.95684C10.1349 5.22228 9.79198 5.3551 9.39089 5.3551C8.98853 5.3551 8.64482 5.22228 8.35704 4.95684C8.06978 4.69224 7.92583 4.37067 7.92583 3.99402C7.92583 3.6181 8.06978 3.2959 8.35704 3.02805C8.6443 2.76062 8.98864 2.62695 9.39089 2.62695C9.79188 2.62695 10.1349 2.76093 10.4194 3.02805C10.7049 3.2959 10.8466 3.61821 10.8466 3.99402Z" fill="black"/>
</svg>
