<svg width="71" height="27" viewBox="0 0 71 27" fill="none" xmlns="http://www.w3.org/2000/svg">
<path d="M67.6394 9.48144L70.7794 11.6046C69.4129 13.7277 67.2324 15.211 64.2088 15.211C59.935 15.211 56.5625 11.7791 56.5625 7.70731C56.5625 3.46102 59.935 0 64.2088 0C66.9417 0 69.2966 1.42513 70.634 3.63552L67.6976 5.7005C66.5928 4.18812 65.6043 3.66461 64.2088 3.66461C61.8538 3.66461 60.313 5.52599 60.313 7.70731C60.313 9.68503 61.912 11.6337 64.2088 11.6337C65.9241 11.6337 66.9417 10.5866 67.6394 9.48144Z" fill="#FEF8ED"/>
<path d="M51.1371 10.9357C52.4745 10.9357 53.3757 11.9245 53.3757 13.1752C53.3757 14.3676 52.5035 15.3855 51.1371 15.3855C49.7997 15.3855 48.8984 14.3676 48.8984 13.1752C48.8984 11.9245 49.7997 10.9357 51.1371 10.9357Z" fill="#FEF8ED"/>
<path d="M34.7343 5.93317L42.526 0V15.0074H38.8337V7.41647L34.7343 10.354L30.5478 7.41647V15.0074H26.8555V0L34.7343 5.93317Z" fill="#FEF8ED"/>
<path d="M18.5863 10.9357C19.9237 10.9357 20.8249 11.9245 20.8249 13.1752C20.8249 14.3676 19.9527 15.3855 18.5863 15.3855C17.2489 15.3855 16.3477 14.3676 16.3477 13.1752C16.3477 11.9245 17.2489 10.9357 18.5863 10.9357Z" fill="#FEF8ED"/>
<path d="M8.55024 7.94037L12.2426 0.320312H16.2256L8.43395 15.2114L0.351562 0.320312H4.62534L8.55024 7.94037Z" fill="#FEF8ED"/>
<rect y="24.5306" width="70.95" height="1.63479" fill="url(#paint0_linear_118_37)" fill-opacity="0.5"/>
<rect x="48.7148" y="10.795" width="4.90438" height="4.57844" fill="#FEF8ED"/>
<defs>
<linearGradient id="paint0_linear_118_37" x1="0" y1="25.348" x2="70.95" y2="25.348" gradientUnits="userSpaceOnUse">
<stop stop-color="#04EA95"/>
<stop offset="0.240273" stop-color="#E4AC3D"/>
<stop offset="0.475273" stop-color="#FD6C18"/>
<stop offset="0.745273" stop-color="#F94A63"/>
<stop offset="1" stop-color="#6A42AA"/>
</linearGradient>
</defs>
</svg>
