<?xml version="1.0" encoding="UTF-8" standalone="no"?>
<!DOCTYPE svg PUBLIC "-//W3C//DTD SVG 1.1//EN"
 "http://www.w3.org/Graphics/SVG/1.1/DTD/svg11.dtd">
<!-- Generated by graphviz version 11.0.0 (20240428.1522)
 -->
<!-- Title: G Pages: 1 -->
<svg width="3832pt" height="1052pt"
 viewBox="0.00 0.00 3832.00 1052.00" xmlns="http://www.w3.org/2000/svg" xmlns:xlink="http://www.w3.org/1999/xlink">
<g id="graph0" class="graph" transform="scale(1 1) rotate(0) translate(4 1048)">
<title>G</title>
<polygon fill="white" stroke="none" points="-4,4 -4,-1048 3828,-1048 3828,4 -4,4"/>
<!-- emojicoin_dot_fun -->
<g id="node1" class="node">
<title>emojicoin_dot_fun</title>
<ellipse fill="none" stroke="black" cx="1400" cy="-1026" rx="81.55" ry="18"/>
<text text-anchor="middle" x="1400" y="-1020.95" font-family="Times,serif" font-size="14.00">emojicoin_dot_fun</text>
</g>
<!-- vector -->
<g id="node2" class="node">
<title>vector</title>
<ellipse fill="none" stroke="black" cx="1282" cy="-18" rx="33.95" ry="18"/>
<text text-anchor="middle" x="1282" y="-12.95" font-family="Times,serif" font-size="14.00">vector</text>
</g>
<!-- emojicoin_dot_fun&#45;&gt;vector -->
<g id="edge1" class="edge">
<title>emojicoin_dot_fun&#45;&gt;vector</title>
<path fill="none" stroke="black" d="M1481.88,-1025.18C1817.71,-1025.57 3090.53,-1023.53 3489,-972 3641.78,-952.24 3824,-1037.05 3824,-883 3824,-883 3824,-883 3824,-161 3824,-23.2 3663.1,-93.6 3527,-72 3302.58,-36.39 1625.03,-21.68 1327.16,-19.34"/>
<polygon fill="black" stroke="black" points="1327.5,-15.84 1317.48,-19.27 1327.45,-22.84 1327.5,-15.84"/>
</g>
<!-- option -->
<g id="node3" class="node">
<title>option</title>
<ellipse fill="none" stroke="black" cx="352" cy="-90" rx="34.46" ry="18"/>
<text text-anchor="middle" x="352" y="-84.95" font-family="Times,serif" font-size="14.00">option</text>
</g>
<!-- emojicoin_dot_fun&#45;&gt;option -->
<g id="edge2" class="edge">
<title>emojicoin_dot_fun&#45;&gt;option</title>
<path fill="none" stroke="black" d="M1318.17,-1025.34C1018.72,-1025.53 0,-1016.37 0,-883 0,-883 0,-883 0,-233 0,-95.5 148.65,-137.26 283,-108 291.9,-106.06 301.41,-103.83 310.43,-101.63"/>
<polygon fill="black" stroke="black" points="311.18,-105.05 320.04,-99.25 309.5,-98.25 311.18,-105.05"/>
</g>
<!-- string -->
<g id="node4" class="node">
<title>string</title>
<ellipse fill="none" stroke="black" cx="2104" cy="-162" rx="31.9" ry="18"/>
<text text-anchor="middle" x="2104" y="-156.95" font-family="Times,serif" font-size="14.00">string</text>
</g>
<!-- emojicoin_dot_fun&#45;&gt;string -->
<g id="edge3" class="edge">
<title>emojicoin_dot_fun&#45;&gt;string</title>
<path fill="none" stroke="black" d="M1370.93,-1008.75C1334.28,-985.86 1276,-940.44 1276,-883 1276,-883 1276,-883 1276,-809 1276,-772.67 1755.87,-420.16 1783,-396 1817.27,-365.48 1826.3,-358.1 1857,-324 1897.87,-278.6 1891.94,-251 1942,-216 1978.28,-190.64 2027.48,-176.82 2062.1,-169.71"/>
<polygon fill="black" stroke="black" points="2062.61,-173.18 2071.76,-167.84 2061.28,-166.31 2062.61,-173.18"/>
</g>
<!-- signer -->
<g id="node5" class="node">
<title>signer</title>
<ellipse fill="none" stroke="black" cx="3413" cy="-90" rx="33.44" ry="18"/>
<text text-anchor="middle" x="3413" y="-84.95" font-family="Times,serif" font-size="14.00">signer</text>
</g>
<!-- emojicoin_dot_fun&#45;&gt;signer -->
<g id="edge4" class="edge">
<title>emojicoin_dot_fun&#45;&gt;signer</title>
<path fill="none" stroke="black" d="M1481.44,-1024.5C1899.61,-1021.44 3786,-1001.07 3786,-883 3786,-883 3786,-883 3786,-233 3786,-162.98 3720.29,-171.75 3656,-144 3590.12,-115.56 3507.38,-101.71 3457.42,-95.49"/>
<polygon fill="black" stroke="black" points="3457.91,-92.03 3447.57,-94.32 3457.09,-98.98 3457.91,-92.03"/>
</g>
<!-- bcs -->
<g id="node6" class="node">
<title>bcs</title>
<ellipse fill="none" stroke="black" cx="1492" cy="-162" rx="27" ry="18"/>
<text text-anchor="middle" x="1492" y="-156.95" font-family="Times,serif" font-size="14.00">bcs</text>
</g>
<!-- emojicoin_dot_fun&#45;&gt;bcs -->
<g id="edge5" class="edge">
<title>emojicoin_dot_fun&#45;&gt;bcs</title>
<path fill="none" stroke="black" d="M1322.4,-1020.11C1176.53,-1008.79 876,-974.37 876,-883 876,-883 876,-883 876,-593 876,-384.31 1039.17,-365.33 1233,-288 1287.1,-266.42 1306.16,-276.49 1359,-252 1380.59,-241.99 1432.83,-205.54 1465.04,-182.5"/>
<polygon fill="black" stroke="black" points="1467.02,-185.39 1473.1,-176.71 1462.94,-179.7 1467.02,-185.39"/>
</g>
<!-- type_info -->
<g id="node7" class="node">
<title>type_info</title>
<ellipse fill="none" stroke="black" cx="1566" cy="-234" rx="46.23" ry="18"/>
<text text-anchor="middle" x="1566" y="-228.95" font-family="Times,serif" font-size="14.00">type_info</text>
</g>
<!-- emojicoin_dot_fun&#45;&gt;type_info -->
<g id="edge6" class="edge">
<title>emojicoin_dot_fun&#45;&gt;type_info</title>
<path fill="none" stroke="black" d="M1336.9,-1014.34C1230.76,-994.59 1028,-948.33 1028,-883 1028,-883 1028,-883 1028,-665 1028,-592.72 976.01,-570.21 1005,-504 1042.84,-417.57 1079.23,-407.08 1161,-360 1276.87,-293.29 1432.29,-258.3 1512.74,-243.62"/>
<polygon fill="black" stroke="black" points="1512.87,-247.15 1522.1,-241.94 1511.64,-240.26 1512.87,-247.15"/>
</g>
<!-- table -->
<g id="node8" class="node">
<title>table</title>
<ellipse fill="none" stroke="black" cx="789" cy="-162" rx="28.83" ry="18"/>
<text text-anchor="middle" x="789" y="-156.95" font-family="Times,serif" font-size="14.00">table</text>
</g>
<!-- emojicoin_dot_fun&#45;&gt;table -->
<g id="edge7" class="edge">
<title>emojicoin_dot_fun&#45;&gt;table</title>
<path fill="none" stroke="black" d="M1320.94,-1021.24C1095.9,-1009.48 468,-968.98 468,-883 468,-883 468,-883 468,-449 468,-369.87 482.22,-337.44 544,-288 601.25,-242.19 641.53,-288.71 705,-252 723.79,-241.13 723.14,-231.82 738,-216 747.37,-206.02 757.83,-195.11 766.83,-185.79"/>
<polygon fill="black" stroke="black" points="769.12,-188.46 773.56,-178.84 764.09,-183.59 769.12,-188.46"/>
</g>
<!-- event -->
<g id="node9" class="node">
<title>event</title>
<ellipse fill="none" stroke="black" cx="2221" cy="-378" rx="30.88" ry="18"/>
<text text-anchor="middle" x="2221" y="-372.95" font-family="Times,serif" font-size="14.00">event</text>
</g>
<!-- emojicoin_dot_fun&#45;&gt;event -->
<g id="edge8" class="edge">
<title>emojicoin_dot_fun&#45;&gt;event</title>
<path fill="none" stroke="black" d="M1395.81,-1007.7C1389.33,-977.27 1379.62,-912.74 1400,-864 1417.58,-821.96 1437.41,-820.46 1473,-792 1704.38,-606.98 1763.9,-553.71 2034,-432 2047.62,-425.86 2131.9,-402.85 2182.55,-389.25"/>
<polygon fill="black" stroke="black" points="2183.2,-392.7 2191.95,-386.73 2181.39,-385.94 2183.2,-392.7"/>
</g>
<!-- account -->
<g id="node10" class="node">
<title>account</title>
<ellipse fill="none" stroke="black" cx="1640" cy="-450" rx="39.58" ry="18"/>
<text text-anchor="middle" x="1640" y="-444.95" font-family="Times,serif" font-size="14.00">account</text>
</g>
<!-- emojicoin_dot_fun&#45;&gt;account -->
<g id="edge9" class="edge">
<title>emojicoin_dot_fun&#45;&gt;account</title>
<path fill="none" stroke="black" d="M1346.67,-1011.96C1287.42,-993.91 1200,-955.07 1200,-883 1200,-883 1200,-883 1200,-809 1200,-606.2 1484.71,-498.02 1596.09,-463.46"/>
<polygon fill="black" stroke="black" points="1596.93,-466.86 1605.48,-460.59 1594.89,-460.16 1596.93,-466.86"/>
</g>
<!-- aggregator_v2 -->
<g id="node11" class="node">
<title>aggregator_v2</title>
<ellipse fill="none" stroke="black" cx="2458" cy="-234" rx="64.15" ry="18"/>
<text text-anchor="middle" x="2458" y="-228.95" font-family="Times,serif" font-size="14.00">aggregator_v2</text>
</g>
<!-- emojicoin_dot_fun&#45;&gt;aggregator_v2 -->
<g id="edge10" class="edge">
<title>emojicoin_dot_fun&#45;&gt;aggregator_v2</title>
<path fill="none" stroke="black" d="M1475.4,-1018.82C1667.64,-1002.05 2161,-952.26 2161,-883 2161,-883 2161,-883 2161,-593 2161,-508.8 2358.05,-324.24 2431.14,-258.68"/>
<polygon fill="black" stroke="black" points="2433.16,-261.57 2438.29,-252.3 2428.5,-256.35 2433.16,-261.57"/>
</g>
<!-- object -->
<g id="node12" class="node">
<title>object</title>
<ellipse fill="none" stroke="black" cx="2636" cy="-522" rx="33.44" ry="18"/>
<text text-anchor="middle" x="2636" y="-516.95" font-family="Times,serif" font-size="14.00">object</text>
</g>
<!-- emojicoin_dot_fun&#45;&gt;object -->
<g id="edge11" class="edge">
<title>emojicoin_dot_fun&#45;&gt;object</title>
<path fill="none" stroke="black" d="M1480.56,-1022.64C1672.12,-1016.62 2143.76,-999.2 2210,-972 2356.32,-911.93 2479,-897.17 2479,-739 2479,-739 2479,-739 2479,-665 2479,-600.73 2552.26,-558 2598.7,-537.38"/>
<polygon fill="black" stroke="black" points="2599.8,-540.71 2607.62,-533.56 2597.05,-534.28 2599.8,-540.71"/>
</g>
<!-- coin -->
<g id="node13" class="node">
<title>coin</title>
<ellipse fill="none" stroke="black" cx="1819" cy="-810" rx="27" ry="18"/>
<text text-anchor="middle" x="1819" y="-804.95" font-family="Times,serif" font-size="14.00">coin</text>
</g>
<!-- emojicoin_dot_fun&#45;&gt;coin -->
<g id="edge12" class="edge">
<title>emojicoin_dot_fun&#45;&gt;coin</title>
<path fill="none" stroke="black" d="M1431.15,-1009.09C1508.86,-969.4 1710.57,-866.38 1788.06,-826.8"/>
<polygon fill="black" stroke="black" points="1789.48,-830.01 1796.79,-822.34 1786.3,-823.77 1789.48,-830.01"/>
</g>
<!-- aptos_coin -->
<g id="node14" class="node">
<title>aptos_coin</title>
<ellipse fill="none" stroke="black" cx="1487" cy="-882" rx="50.84" ry="18"/>
<text text-anchor="middle" x="1487" y="-876.95" font-family="Times,serif" font-size="14.00">aptos_coin</text>
</g>
<!-- emojicoin_dot_fun&#45;&gt;aptos_coin -->
<g id="edge13" class="edge">
<title>emojicoin_dot_fun&#45;&gt;aptos_coin</title>
<path fill="none" stroke="black" d="M1410.49,-1007.87C1425.47,-983.43 1453.1,-938.33 1470.73,-909.55"/>
<polygon fill="black" stroke="black" points="1473.71,-911.39 1475.95,-901.04 1467.74,-907.74 1473.71,-911.39"/>
</g>
<!-- aptos_account -->
<g id="node15" class="node">
<title>aptos_account</title>
<ellipse fill="none" stroke="black" cx="2683" cy="-954" rx="63.63" ry="18"/>
<text text-anchor="middle" x="2683" y="-948.95" font-family="Times,serif" font-size="14.00">aptos_account</text>
</g>
<!-- emojicoin_dot_fun&#45;&gt;aptos_account -->
<g id="edge14" class="edge">
<title>emojicoin_dot_fun&#45;&gt;aptos_account</title>
<path fill="none" stroke="black" d="M1479.44,-1021.67C1655.3,-1014.15 2090.76,-994.72 2455,-972 2507.3,-968.74 2566.29,-964.32 2611.16,-960.8"/>
<polygon fill="black" stroke="black" points="2611.34,-964.3 2621.03,-960.03 2610.79,-957.32 2611.34,-964.3"/>
</g>
<!-- timestamp -->
<g id="node16" class="node">
<title>timestamp</title>
<ellipse fill="none" stroke="black" cx="1220" cy="-378" rx="50.33" ry="18"/>
<text text-anchor="middle" x="1220" y="-372.95" font-family="Times,serif" font-size="14.00">timestamp</text>
</g>
<!-- emojicoin_dot_fun&#45;&gt;timestamp -->
<g id="edge15" class="edge">
<title>emojicoin_dot_fun&#45;&gt;timestamp</title>
<path fill="none" stroke="black" d="M1323.26,-1019.68C1286.71,-1013.33 1244.98,-999.92 1217,-972 1193.41,-948.45 1202.98,-932.59 1196,-900 1156.52,-715.56 1197.18,-486.32 1213.7,-407.31"/>
<polygon fill="black" stroke="black" points="1217.06,-408.34 1215.72,-397.83 1210.21,-406.88 1217.06,-408.34"/>
</g>
<!-- smart_table -->
<g id="node17" class="node">
<title>smart_table</title>
<ellipse fill="none" stroke="black" cx="390" cy="-306" rx="54.42" ry="18"/>
<text text-anchor="middle" x="390" y="-300.95" font-family="Times,serif" font-size="14.00">smart_table</text>
</g>
<!-- emojicoin_dot_fun&#45;&gt;smart_table -->
<g id="edge16" class="edge">
<title>emojicoin_dot_fun&#45;&gt;smart_table</title>
<path fill="none" stroke="black" d="M1318.69,-1023.76C1120.69,-1020.22 617.8,-1007.87 454,-972 348.55,-948.91 228,-990.95 228,-883 228,-883 228,-883 228,-449 228,-387.11 295.69,-345.9 343.56,-324.49"/>
<polygon fill="black" stroke="black" points="344.86,-327.74 352.66,-320.57 342.09,-321.32 344.86,-327.74"/>
</g>
<!-- code -->
<g id="node18" class="node">
<title>code</title>
<ellipse fill="none" stroke="black" cx="2347" cy="-594" rx="28.32" ry="18"/>
<text text-anchor="middle" x="2347" y="-588.95" font-family="Times,serif" font-size="14.00">code</text>
</g>
<!-- emojicoin_dot_fun&#45;&gt;code -->
<g id="edge17" class="edge">
<title>emojicoin_dot_fun&#45;&gt;code</title>
<path fill="none" stroke="black" d="M1481.1,-1023.58C1667.81,-1019.74 2116.54,-1006.94 2175,-972 2215.12,-948.02 2231,-929.73 2231,-883 2231,-883 2231,-883 2231,-737 2231,-682.3 2283.27,-637.05 2317.63,-613.21"/>
<polygon fill="black" stroke="black" points="2319.18,-616.39 2325.54,-607.91 2315.28,-610.58 2319.18,-616.39"/>
</g>
<!-- string_utils -->
<g id="node19" class="node">
<title>string_utils</title>
<ellipse fill="none" stroke="black" cx="1990" cy="-882" rx="52.38" ry="18"/>
<text text-anchor="middle" x="1990" y="-876.95" font-family="Times,serif" font-size="14.00">string_utils</text>
</g>
<!-- emojicoin_dot_fun&#45;&gt;string_utils -->
<g id="edge18" class="edge">
<title>emojicoin_dot_fun&#45;&gt;string_utils</title>
<path fill="none" stroke="black" d="M1472.09,-1017.31C1540.24,-1009.15 1645.02,-994.34 1734,-972 1810.53,-952.79 1896.65,-920.55 1946.95,-900.6"/>
<polygon fill="black" stroke="black" points="1948.03,-903.94 1956.02,-896.98 1945.44,-897.44 1948.03,-903.94"/>
</g>
<!-- option&#45;&gt;vector -->
<g id="edge19" class="edge">
<title>option&#45;&gt;vector</title>
<path fill="none" stroke="black" d="M380.51,-79.42C390.1,-76.56 400.92,-73.74 411,-72 572.15,-44.23 1080.88,-25.61 1236.39,-20.45"/>
<polygon fill="black" stroke="black" points="1236.42,-23.95 1246.3,-20.13 1236.19,-16.96 1236.42,-23.95"/>
</g>
<!-- string&#45;&gt;vector -->
<g id="edge20" class="edge">
<title>string&#45;&gt;vector</title>
<path fill="none" stroke="black" d="M2073.87,-155.5C1996.13,-141.32 1782.37,-102.55 1604,-72 1504.32,-54.93 1387.1,-35.9 1325.26,-25.94"/>
<polygon fill="black" stroke="black" points="1325.94,-22.5 1315.51,-24.37 1324.83,-29.41 1325.94,-22.5"/>
</g>
<!-- string&#45;&gt;option -->
<g id="edge21" class="edge">
<title>string&#45;&gt;option</title>
<path fill="none" stroke="black" d="M2072.1,-159.73C1859.58,-151.23 649.7,-102.89 397.9,-92.83"/>
<polygon fill="black" stroke="black" points="398.29,-89.35 388.16,-92.44 398.01,-96.34 398.29,-89.35"/>
</g>
<!-- type_info&#45;&gt;string -->
<g id="edge22" class="edge">
<title>type_info&#45;&gt;string</title>
<path fill="none" stroke="black" d="M1609.57,-227.33C1711,-214.13 1961.84,-181.5 2061.85,-168.48"/>
<polygon fill="black" stroke="black" points="2062.04,-171.99 2071.5,-167.23 2061.13,-165.05 2062.04,-171.99"/>
</g>
<!-- type_info&#45;&gt;bcs -->
<g id="edge25" class="edge">
<title>type_info&#45;&gt;bcs</title>
<path fill="none" stroke="black" d="M1549.21,-217.12C1539.25,-207.69 1526.47,-195.61 1515.52,-185.25"/>
<polygon fill="black" stroke="black" points="1517.98,-182.76 1508.31,-178.43 1513.17,-187.85 1517.98,-182.76"/>
</g>
<!-- error -->
<g id="node20" class="node">
<title>error</title>
<ellipse fill="none" stroke="black" cx="1566" cy="-90" rx="28.83" ry="18"/>
<text text-anchor="middle" x="1566" y="-84.95" font-family="Times,serif" font-size="14.00">error</text>
</g>
<!-- type_info&#45;&gt;error -->
<g id="edge23" class="edge">
<title>type_info&#45;&gt;error</title>
<path fill="none" stroke="black" d="M1566,-215.59C1566,-191.61 1566,-148.14 1566,-119.42"/>
<polygon fill="black" stroke="black" points="1569.5,-119.62 1566,-109.62 1562.5,-119.62 1569.5,-119.62"/>
</g>
<!-- features -->
<g id="node21" class="node">
<title>features</title>
<ellipse fill="none" stroke="black" cx="2867" cy="-162" rx="40.09" ry="18"/>
<text text-anchor="middle" x="2867" y="-156.95" font-family="Times,serif" font-size="14.00">features</text>
</g>
<!-- type_info&#45;&gt;features -->
<g id="edge24" class="edge">
<title>type_info&#45;&gt;features</title>
<path fill="none" stroke="black" d="M1610.07,-227.92C1644.14,-224.14 1692.5,-219.13 1735,-216 2151.34,-185.34 2655.21,-169.09 2815.47,-164.43"/>
<polygon fill="black" stroke="black" points="2815.44,-167.93 2825.34,-164.15 2815.24,-160.94 2815.44,-167.93"/>
</g>
<!-- event&#45;&gt;bcs -->
<g id="edge26" class="edge">
<title>event&#45;&gt;bcs</title>
<path fill="none" stroke="black" d="M2199.34,-364.7C2166.35,-346.31 2101.21,-311.32 2043,-288 1941.99,-247.53 1914.89,-241.03 1809,-216 1709.22,-192.42 1589.36,-175.38 1529.65,-167.65"/>
<polygon fill="black" stroke="black" points="1530.4,-164.21 1520.04,-166.42 1529.51,-171.16 1530.4,-164.21"/>
</g>
<!-- guid -->
<g id="node22" class="node">
<title>guid</title>
<ellipse fill="none" stroke="black" cx="2007" cy="-306" rx="27.3" ry="18"/>
<text text-anchor="middle" x="2007" y="-300.95" font-family="Times,serif" font-size="14.00">guid</text>
</g>
<!-- event&#45;&gt;guid -->
<g id="edge27" class="edge">
<title>event&#45;&gt;guid</title>
<path fill="none" stroke="black" d="M2193.47,-369.45C2159.11,-359.82 2098.7,-342.23 2048,-324 2045.34,-323.04 2042.59,-322.01 2039.84,-320.94"/>
<polygon fill="black" stroke="black" points="2041.39,-317.79 2030.81,-317.31 2038.78,-324.29 2041.39,-317.79"/>
</g>
<!-- account&#45;&gt;vector -->
<g id="edge28" class="edge">
<title>account&#45;&gt;vector</title>
<path fill="none" stroke="black" d="M1600.2,-448.19C1403.44,-444.08 539.37,-424.53 423,-396 349.62,-378.01 309.56,-387.74 269,-324 208.78,-229.36 203.04,-150.67 283,-72 317.41,-38.15 1045.64,-23.12 1236.53,-19.75"/>
<polygon fill="black" stroke="black" points="1236.35,-23.26 1246.28,-19.58 1236.22,-16.26 1236.35,-23.26"/>
</g>
<!-- account&#45;&gt;option -->
<g id="edge29" class="edge">
<title>account&#45;&gt;option</title>
<path fill="none" stroke="black" d="M1600.39,-448.69C1468.68,-447.28 1033.53,-439.39 677,-396 634.34,-390.81 326.42,-355.33 297,-324 242.21,-265.65 266.34,-215.15 303,-144 308.83,-132.69 317.74,-122.01 326.38,-113.25"/>
<polygon fill="black" stroke="black" points="328.59,-115.97 333.37,-106.52 323.74,-110.93 328.59,-115.97"/>
</g>
<!-- account&#45;&gt;signer -->
<g id="edge30" class="edge">
<title>account&#45;&gt;signer</title>
<path fill="none" stroke="black" d="M1678.82,-446.08C1774.87,-438.62 2021.58,-417.87 2101,-396 2138.59,-385.65 2143.33,-370.07 2181,-360 2336.77,-318.37 2381.64,-340.8 2542,-324 2578.46,-320.18 3163.9,-265.46 3198,-252 3239.58,-235.58 3339.46,-153.46 3387,-113.25"/>
<polygon fill="black" stroke="black" points="3389.27,-115.92 3394.63,-106.78 3384.74,-110.58 3389.27,-115.92"/>
</g>
<!-- account&#45;&gt;bcs -->
<g id="edge33" class="edge">
<title>account&#45;&gt;bcs</title>
<path fill="none" stroke="black" d="M1602.35,-443.96C1552.16,-436.39 1467.48,-420.31 1449,-396 1401.55,-333.59 1448.58,-234.97 1475.72,-188.64"/>
<polygon fill="black" stroke="black" points="1478.54,-190.73 1480.7,-180.36 1472.55,-187.12 1478.54,-190.73"/>
</g>
<!-- account&#45;&gt;type_info -->
<g id="edge34" class="edge">
<title>account&#45;&gt;type_info</title>
<path fill="none" stroke="black" d="M1602.67,-443.4C1554.9,-435.37 1476.23,-418.99 1459,-396 1447.01,-380 1455.31,-305.28 1467,-288 1479.11,-270.1 1499.3,-257.77 1518.3,-249.53"/>
<polygon fill="black" stroke="black" points="1519.58,-252.79 1527.57,-245.82 1516.98,-246.29 1519.58,-252.79"/>
</g>
<!-- account&#45;&gt;table -->
<g id="edge35" class="edge">
<title>account&#45;&gt;table</title>
<path fill="none" stroke="black" d="M1600.45,-447.43C1495.99,-442.88 1214.8,-427.95 1128,-396 994.64,-346.92 863.78,-233.36 812.11,-185.22"/>
<polygon fill="black" stroke="black" points="814.73,-182.88 805.05,-178.58 809.94,-187.98 814.73,-182.88"/>
</g>
<!-- account&#45;&gt;event -->
<g id="edge42" class="edge">
<title>account&#45;&gt;event</title>
<path fill="none" stroke="black" d="M1679.09,-446.47C1785.94,-439.35 2081.19,-418.19 2176,-396 2179.2,-395.25 2182.48,-394.33 2185.74,-393.31"/>
<polygon fill="black" stroke="black" points="2186.87,-396.62 2195.18,-390.04 2184.58,-390.01 2186.87,-396.62"/>
</g>
<!-- account&#45;&gt;error -->
<g id="edge31" class="edge">
<title>account&#45;&gt;error</title>
<path fill="none" stroke="black" d="M1600.44,-447.59C1490.97,-443.28 1190.16,-428.57 1161,-396 1134.96,-366.92 1081.13,-262.61 1208,-144 1253.32,-101.63 1441.79,-93.09 1525.56,-91.4"/>
<polygon fill="black" stroke="black" points="1525.44,-94.9 1535.38,-91.23 1525.32,-87.9 1525.44,-94.9"/>
</g>
<!-- account&#45;&gt;features -->
<g id="edge32" class="edge">
<title>account&#45;&gt;features</title>
<path fill="none" stroke="black" d="M1678.79,-445.67C1748.88,-439.22 1901.05,-423.19 2027,-396 2081.84,-384.16 2093.06,-371.38 2148,-360 2279.5,-332.75 2315.65,-346.77 2448,-324 2519.83,-311.64 2536.65,-302.89 2608,-288 2690.85,-270.71 2722.42,-295.54 2795,-252 2820.08,-236.96 2840.11,-209.8 2852.62,-189.43"/>
<polygon fill="black" stroke="black" points="2855.48,-191.48 2857.53,-181.08 2849.44,-187.93 2855.48,-191.48"/>
</g>
<!-- account&#45;&gt;guid -->
<g id="edge40" class="edge">
<title>account&#45;&gt;guid</title>
<path fill="none" stroke="black" d="M1670.21,-438.04C1699.2,-427.46 1744.19,-410.9 1783,-396 1850.92,-369.92 1929.91,-338.22 1973.6,-320.55"/>
<polygon fill="black" stroke="black" points="1974.81,-323.84 1982.77,-316.84 1972.19,-317.35 1974.81,-323.84"/>
</g>
<!-- system_addresses -->
<g id="node23" class="node">
<title>system_addresses</title>
<ellipse fill="none" stroke="black" cx="1771" cy="-306" rx="76.94" ry="18"/>
<text text-anchor="middle" x="1771" y="-300.95" font-family="Times,serif" font-size="14.00">system_addresses</text>
</g>
<!-- account&#45;&gt;system_addresses -->
<g id="edge36" class="edge">
<title>account&#45;&gt;system_addresses</title>
<path fill="none" stroke="black" d="M1677.29,-443.35C1705.63,-436.96 1743.02,-423.59 1763,-396 1775.53,-378.71 1776.89,-354.28 1775.48,-335.39"/>
<polygon fill="black" stroke="black" points="1778.99,-335.26 1774.44,-325.69 1772.03,-336 1778.99,-335.26"/>
</g>
<!-- hash -->
<g id="node24" class="node">
<title>hash</title>
<ellipse fill="none" stroke="black" cx="1772" cy="-234" rx="27.81" ry="18"/>
<text text-anchor="middle" x="1772" y="-228.95" font-family="Times,serif" font-size="14.00">hash</text>
</g>
<!-- account&#45;&gt;hash -->
<g id="edge37" class="edge">
<title>account&#45;&gt;hash</title>
<path fill="none" stroke="black" d="M1640.43,-431.69C1642.1,-399.78 1649.83,-331.04 1685,-288 1699.06,-270.79 1720.27,-257.71 1738.23,-248.85"/>
<polygon fill="black" stroke="black" points="1739.67,-252.04 1747.26,-244.64 1736.71,-245.69 1739.67,-252.04"/>
</g>
<!-- ed25519 -->
<g id="node25" class="node">
<title>ed25519</title>
<ellipse fill="none" stroke="black" cx="1519" cy="-306" rx="42.65" ry="18"/>
<text text-anchor="middle" x="1519" y="-300.95" font-family="Times,serif" font-size="14.00">ed25519</text>
</g>
<!-- account&#45;&gt;ed25519 -->
<g id="edge38" class="edge">
<title>account&#45;&gt;ed25519</title>
<path fill="none" stroke="black" d="M1600.22,-449.23C1559.79,-447.05 1498.96,-436.66 1469,-396 1453.43,-374.87 1472.6,-348.41 1491.54,-329.85"/>
<polygon fill="black" stroke="black" points="1493.75,-332.57 1498.7,-323.2 1488.99,-327.44 1493.75,-332.57"/>
</g>
<!-- multi_ed25519 -->
<g id="node26" class="node">
<title>multi_ed25519</title>
<ellipse fill="none" stroke="black" cx="1545" cy="-378" rx="67.22" ry="18"/>
<text text-anchor="middle" x="1545" y="-372.95" font-family="Times,serif" font-size="14.00">multi_ed25519</text>
</g>
<!-- account&#45;&gt;multi_ed25519 -->
<g id="edge39" class="edge">
<title>account&#45;&gt;multi_ed25519</title>
<path fill="none" stroke="black" d="M1619.85,-434.15C1607.16,-424.81 1590.53,-412.54 1576.16,-401.96"/>
<polygon fill="black" stroke="black" points="1578.45,-399.3 1568.33,-396.19 1574.3,-404.94 1578.45,-399.3"/>
</g>
<!-- from_bcs -->
<g id="node27" class="node">
<title>from_bcs</title>
<ellipse fill="none" stroke="black" cx="2254" cy="-234" rx="46.23" ry="18"/>
<text text-anchor="middle" x="2254" y="-228.95" font-family="Times,serif" font-size="14.00">from_bcs</text>
</g>
<!-- account&#45;&gt;from_bcs -->
<g id="edge41" class="edge">
<title>account&#45;&gt;from_bcs</title>
<path fill="none" stroke="black" d="M1675.9,-441.82C1754.46,-426.2 1947.59,-388.25 2110,-360 2160.32,-351.25 2303.83,-362.84 2337,-324 2347.39,-311.83 2344.69,-302.03 2337,-288 2328.31,-272.13 2312.62,-260.33 2297.2,-251.94"/>
<polygon fill="black" stroke="black" points="2299.05,-248.95 2288.54,-247.59 2295.91,-255.2 2299.05,-248.95"/>
</g>
<!-- create_signer -->
<g id="node28" class="node">
<title>create_signer</title>
<ellipse fill="none" stroke="black" cx="3157" cy="-378" rx="60.05" ry="18"/>
<text text-anchor="middle" x="3157" y="-372.95" font-family="Times,serif" font-size="14.00">create_signer</text>
</g>
<!-- account&#45;&gt;create_signer -->
<g id="edge43" class="edge">
<title>account&#45;&gt;create_signer</title>
<path fill="none" stroke="black" d="M1679.41,-447.18C1883.46,-437.77 2820.71,-394.52 3086.53,-382.25"/>
<polygon fill="black" stroke="black" points="3086.6,-385.75 3096.43,-381.8 3086.28,-378.76 3086.6,-385.75"/>
</g>
<!-- chain_id -->
<g id="node29" class="node">
<title>chain_id</title>
<ellipse fill="none" stroke="black" cx="1711" cy="-378" rx="42.65" ry="18"/>
<text text-anchor="middle" x="1711" y="-372.95" font-family="Times,serif" font-size="14.00">chain_id</text>
</g>
<!-- account&#45;&gt;chain_id -->
<g id="edge44" class="edge">
<title>account&#45;&gt;chain_id</title>
<path fill="none" stroke="black" d="M1656.11,-433.12C1665.19,-424.17 1676.71,-412.81 1686.84,-402.81"/>
<polygon fill="black" stroke="black" points="1689.21,-405.4 1693.87,-395.88 1684.3,-400.41 1689.21,-405.4"/>
</g>
<!-- aggregator_v2&#45;&gt;string -->
<g id="edge45" class="edge">
<title>aggregator_v2&#45;&gt;string</title>
<path fill="none" stroke="black" d="M2408.94,-222.11C2399.35,-220.04 2389.37,-217.92 2380,-216 2296.95,-198.98 2199.49,-180.65 2145.44,-170.63"/>
<polygon fill="black" stroke="black" points="2146.23,-167.21 2135.76,-168.83 2144.96,-174.1 2146.23,-167.21"/>
</g>
<!-- aggregator_v2&#45;&gt;error -->
<g id="edge46" class="edge">
<title>aggregator_v2&#45;&gt;error</title>
<path fill="none" stroke="black" d="M2423.72,-218.46C2374.07,-198.1 2278.77,-161.6 2194,-144 1975.75,-98.7 1707.17,-91.93 1606.57,-91.06"/>
<polygon fill="black" stroke="black" points="1606.69,-87.56 1596.66,-90.99 1606.64,-94.56 1606.69,-87.56"/>
</g>
<!-- aggregator_v2&#45;&gt;features -->
<g id="edge47" class="edge">
<title>aggregator_v2&#45;&gt;features</title>
<path fill="none" stroke="black" d="M2511.47,-223.85C2591.59,-210.14 2741.58,-184.46 2818.62,-171.28"/>
<polygon fill="black" stroke="black" points="2819.13,-174.74 2828.39,-169.61 2817.95,-167.84 2819.13,-174.74"/>
</g>
<!-- object&#45;&gt;vector -->
<g id="edge48" class="edge">
<title>object&#45;&gt;vector</title>
<path fill="none" stroke="black" d="M2660.28,-509.39C2664.79,-507.45 2669.49,-505.57 2674,-504 2735.5,-482.63 2758.76,-499.03 2816,-468 2836.74,-456.76 2835.16,-444.76 2855,-432 3028.93,-320.19 3107.11,-359.07 3284,-252 3378.4,-194.86 3532.07,-150.97 3455,-72 3416.5,-32.54 1636.71,-20.95 1327.54,-19.24"/>
<polygon fill="black" stroke="black" points="1327.88,-15.74 1317.86,-19.18 1327.85,-22.74 1327.88,-15.74"/>
</g>
<!-- object&#45;&gt;signer -->
<g id="edge49" class="edge">
<title>object&#45;&gt;signer</title>
<path fill="none" stroke="black" d="M2665.5,-513.02C2695.09,-504.33 2741.42,-488.84 2778,-468 2844.46,-430.14 2844.79,-396.52 2912,-360 3047.22,-286.52 3103.83,-321.78 3241,-252 3289.81,-227.17 3301.2,-217.62 3341,-180 3361.66,-160.47 3381.72,-134.97 3395.39,-116.28"/>
<polygon fill="black" stroke="black" points="3398.04,-118.58 3401.04,-108.42 3392.36,-114.49 3398.04,-118.58"/>
</g>
<!-- object&#45;&gt;bcs -->
<g id="edge52" class="edge">
<title>object&#45;&gt;bcs</title>
<path fill="none" stroke="black" d="M2603.05,-518.35C2557.28,-514.74 2471.89,-508.24 2399,-504 2219.57,-493.57 1765.94,-509.22 1591,-468 1514.31,-449.93 1473.75,-460.85 1429,-396 1383.46,-330.01 1403.1,-286.65 1441,-216 1447.47,-203.94 1457.46,-192.69 1466.9,-183.68"/>
<polygon fill="black" stroke="black" points="1469.1,-186.41 1474.16,-177.1 1464.4,-181.22 1469.1,-186.41"/>
</g>
<!-- object&#45;&gt;event -->
<g id="edge56" class="edge">
<title>object&#45;&gt;event</title>
<path fill="none" stroke="black" d="M2608.13,-511.46C2535.4,-486.58 2339.87,-419.67 2257.92,-391.63"/>
<polygon fill="black" stroke="black" points="2259.17,-388.36 2248.57,-388.43 2256.9,-394.98 2259.17,-388.36"/>
</g>
<!-- object&#45;&gt;account -->
<g id="edge58" class="edge">
<title>object&#45;&gt;account</title>
<path fill="none" stroke="black" d="M2603.03,-518.62C2557.25,-515.31 2471.83,-509.16 2399,-504 2131.9,-485.1 1811.9,-462.9 1690.25,-454.48"/>
<polygon fill="black" stroke="black" points="1690.83,-451.01 1680.62,-453.81 1690.35,-457.99 1690.83,-451.01"/>
</g>
<!-- object&#45;&gt;error -->
<g id="edge50" class="edge">
<title>object&#45;&gt;error</title>
<path fill="none" stroke="black" d="M2646.08,-504.5C2670.41,-463.6 2731.89,-353.46 2753,-252 2756.26,-236.34 2760.7,-230.03 2753,-216 2724.36,-163.79 2696.74,-162.07 2640,-144 2589.91,-128.05 1796.18,-99.12 1606.49,-92.42"/>
<polygon fill="black" stroke="black" points="1606.76,-88.92 1596.64,-92.07 1606.51,-95.92 1606.76,-88.92"/>
</g>
<!-- object&#45;&gt;features -->
<g id="edge51" class="edge">
<title>object&#45;&gt;features</title>
<path fill="none" stroke="black" d="M2661.53,-510.16C2683.38,-500.41 2715.3,-485.03 2741,-468 2761.64,-454.33 2810.6,-415.38 2826,-396 2870.76,-339.66 2883.08,-321.94 2900,-252 2903.76,-236.45 2904.4,-231.38 2900,-216 2897.25,-206.37 2892.18,-196.78 2886.83,-188.47"/>
<polygon fill="black" stroke="black" points="2889.73,-186.51 2881.16,-180.28 2883.97,-190.49 2889.73,-186.51"/>
</g>
<!-- object&#45;&gt;guid -->
<g id="edge54" class="edge">
<title>object&#45;&gt;guid</title>
<path fill="none" stroke="black" d="M2614.04,-508.08C2560.96,-477.45 2420.73,-399.99 2294,-360 2204.53,-331.77 2178.1,-341.87 2086,-324 2072.15,-321.31 2057,-318.11 2043.69,-315.22"/>
<polygon fill="black" stroke="black" points="2044.56,-311.83 2034.04,-313.1 2043.06,-318.66 2044.56,-311.83"/>
</g>
<!-- object&#45;&gt;hash -->
<g id="edge53" class="edge">
<title>object&#45;&gt;hash</title>
<path fill="none" stroke="black" d="M2618.74,-506.09C2596.35,-487.22 2555.56,-454.48 2517,-432 2386.6,-355.96 2342.03,-358.16 2195,-324 2127.38,-308.29 2110.86,-302.67 2043,-288 1960.01,-270.06 1862.15,-251.58 1809.71,-241.89"/>
<polygon fill="black" stroke="black" points="1810.57,-238.49 1800.1,-240.12 1809.3,-245.37 1810.57,-238.49"/>
</g>
<!-- object&#45;&gt;from_bcs -->
<g id="edge55" class="edge">
<title>object&#45;&gt;from_bcs</title>
<path fill="none" stroke="black" d="M2632.32,-504C2624.5,-471.71 2603.29,-401.04 2560,-360 2487.96,-291.7 2373.55,-258.62 2306.93,-244.36"/>
<polygon fill="black" stroke="black" points="2307.85,-240.98 2297.35,-242.38 2306.43,-247.83 2307.85,-240.98"/>
</g>
<!-- object&#45;&gt;create_signer -->
<g id="edge57" class="edge">
<title>object&#45;&gt;create_signer</title>
<path fill="none" stroke="black" d="M2666.59,-514.1C2709.03,-504.41 2788.12,-485.94 2855,-468 2943.72,-444.21 3046.09,-413.3 3105.96,-394.87"/>
<polygon fill="black" stroke="black" points="3106.66,-398.32 3115.19,-392.03 3104.6,-391.63 3106.66,-398.32"/>
</g>
<!-- transaction_context -->
<g id="node30" class="node">
<title>transaction_context</title>
<ellipse fill="none" stroke="black" cx="2661" cy="-234" rx="83.08" ry="18"/>
<text text-anchor="middle" x="2661" y="-228.95" font-family="Times,serif" font-size="14.00">transaction_context</text>
</g>
<!-- object&#45;&gt;transaction_context -->
<g id="edge59" class="edge">
<title>object&#45;&gt;transaction_context</title>
<path fill="none" stroke="black" d="M2637.53,-503.54C2641.7,-455.76 2653.35,-322.51 2658.5,-263.61"/>
<polygon fill="black" stroke="black" points="2661.98,-264.01 2659.36,-253.74 2655,-263.4 2661.98,-264.01"/>
</g>
<!-- coin&#45;&gt;option -->
<g id="edge60" class="edge">
<title>coin&#45;&gt;option</title>
<path fill="none" stroke="black" d="M1791.81,-808.69C1709.52,-807.27 1456.29,-799.42 1252,-756 1221.43,-749.5 209.79,-416.26 186,-396 100.21,-322.94 78.15,-223.51 158,-144 163.5,-138.53 254.89,-115.1 310.25,-101.29"/>
<polygon fill="black" stroke="black" points="310.81,-104.76 319.67,-98.95 309.12,-97.97 310.81,-104.76"/>
</g>
<!-- coin&#45;&gt;string -->
<g id="edge61" class="edge">
<title>coin&#45;&gt;string</title>
<path fill="none" stroke="black" d="M1826.6,-792.66C1857.08,-726.73 1969.68,-479.89 1986,-396 1989.06,-380.29 1989.14,-375.69 1986,-360 1982.6,-343 1974.4,-341 1971,-324 1967.86,-308.31 1966.74,-303.42 1971,-288 1980.91,-252.07 1987.56,-242.27 2014,-216 2029.62,-200.47 2050.68,-187.75 2068.51,-178.66"/>
<polygon fill="black" stroke="black" points="2070.03,-181.81 2077.47,-174.28 2066.95,-175.53 2070.03,-181.81"/>
</g>
<!-- coin&#45;&gt;signer -->
<g id="edge62" class="edge">
<title>coin&#45;&gt;signer</title>
<path fill="none" stroke="black" d="M1846.22,-808.47C2009.86,-805.2 2864.58,-786.85 3125,-756 3357.72,-728.43 3598,-757.34 3598,-523 3598,-523 3598,-523 3598,-377 3598,-262.08 3491.39,-156.83 3440.03,-112.79"/>
<polygon fill="black" stroke="black" points="3442.48,-110.27 3432.57,-106.5 3437.97,-115.62 3442.48,-110.27"/>
</g>
<!-- coin&#45;&gt;type_info -->
<g id="edge65" class="edge">
<title>coin&#45;&gt;type_info</title>
<path fill="none" stroke="black" d="M1804.89,-794.52C1739.5,-727.28 1468.34,-446.58 1449,-396 1442.3,-378.47 1443.25,-301.11 1452,-288 1466.23,-266.69 1491.38,-253.78 1514.45,-246.04"/>
<polygon fill="black" stroke="black" points="1515.22,-249.47 1523.75,-243.19 1513.17,-242.78 1515.22,-249.47"/>
</g>
<!-- coin&#45;&gt;table -->
<g id="edge66" class="edge">
<title>coin&#45;&gt;table</title>
<path fill="none" stroke="black" d="M1791.85,-808.11C1720.98,-805.3 1524.97,-794.38 1367,-756 1234.56,-723.83 1208.75,-692.7 1080,-648 1030.21,-630.71 1012.56,-638.51 967,-612 946.61,-600.14 949.04,-586.66 928,-576 853.27,-538.15 821.52,-569.17 743,-540 682.54,-517.54 658.2,-517.62 617,-468 563.96,-404.12 514.69,-352.47 567,-288 615.94,-227.69 675.2,-297.69 738,-252 758.68,-236.95 772.21,-210.78 780.1,-190.7"/>
<polygon fill="black" stroke="black" points="783.35,-192.01 783.49,-181.42 776.77,-189.61 783.35,-192.01"/>
</g>
<!-- coin&#45;&gt;event -->
<g id="edge69" class="edge">
<title>coin&#45;&gt;event</title>
<path fill="none" stroke="black" d="M1846.1,-808.03C1882.82,-805.23 1948.01,-794.72 1985,-756 2013.3,-726.38 2009,-707.97 2009,-667 2009,-667 2009,-667 2009,-521 2009,-462.82 2056.59,-464.28 2105,-432 2129.81,-415.46 2160.62,-401.65 2184.25,-392.28"/>
<polygon fill="black" stroke="black" points="2185.41,-395.59 2193.47,-388.72 2182.88,-389.06 2185.41,-395.59"/>
</g>
<!-- coin&#45;&gt;account -->
<g id="edge71" class="edge">
<title>coin&#45;&gt;account</title>
<path fill="none" stroke="black" d="M1810.84,-792.69C1782.6,-736.21 1688.8,-548.6 1653.55,-478.09"/>
<polygon fill="black" stroke="black" points="1656.69,-476.56 1649.09,-469.18 1650.43,-479.69 1656.69,-476.56"/>
</g>
<!-- coin&#45;&gt;object -->
<g id="edge74" class="edge">
<title>coin&#45;&gt;object</title>
<path fill="none" stroke="black" d="M1844.87,-803.79C1884.03,-795.56 1960.41,-778.2 2023,-756 2059.36,-743.1 2066.41,-734.91 2102,-720 2225.79,-668.15 2259.97,-663.27 2384,-612 2420.41,-596.95 2428,-589.52 2465,-576 2518.9,-556.3 2534.43,-557.77 2589,-540 2592.09,-538.99 2595.29,-537.92 2598.49,-536.81"/>
<polygon fill="black" stroke="black" points="2599.57,-540.14 2607.83,-533.51 2597.24,-533.54 2599.57,-540.14"/>
</g>
<!-- coin&#45;&gt;error -->
<g id="edge63" class="edge">
<title>coin&#45;&gt;error</title>
<path fill="none" stroke="black" d="M1797.39,-798.99C1690.96,-749.23 1224.08,-525.88 1136,-396 1072.5,-302.36 1078.54,-207.76 1172,-144 1228.96,-105.14 1437.04,-94.65 1525.63,-91.92"/>
<polygon fill="black" stroke="black" points="1525.65,-95.42 1535.55,-91.64 1525.45,-88.43 1525.65,-95.42"/>
</g>
<!-- coin&#45;&gt;features -->
<g id="edge64" class="edge">
<title>coin&#45;&gt;features</title>
<path fill="none" stroke="black" d="M1846.17,-808.16C2061.49,-801.31 3484,-752.81 3484,-667 3484,-667 3484,-667 3484,-593 3484,-382.42 3380.83,-318.72 3197,-216 3150.05,-189.76 2998.05,-173.73 2917.76,-166.88"/>
<polygon fill="black" stroke="black" points="2918.22,-163.41 2907.96,-166.07 2917.64,-170.39 2918.22,-163.41"/>
</g>
<!-- coin&#45;&gt;guid -->
<g id="edge68" class="edge">
<title>coin&#45;&gt;guid</title>
<path fill="none" stroke="black" d="M1842.09,-800.1C1884.61,-782.01 1971,-736.7 1971,-667 1971,-667 1971,-667 1971,-521 1971,-472.54 2005.12,-470.91 2034,-432 2046.08,-415.72 2055.42,-415.17 2062,-396 2067.19,-380.87 2068.26,-374.72 2062,-360 2056.38,-346.79 2045.68,-335.27 2035.19,-326.38"/>
<polygon fill="black" stroke="black" points="2037.38,-323.64 2027.36,-320.2 2033.04,-329.14 2037.38,-323.64"/>
</g>
<!-- coin&#45;&gt;system_addresses -->
<g id="edge67" class="edge">
<title>coin&#45;&gt;system_addresses</title>
<path fill="none" stroke="black" d="M1819,-791.51C1819,-764.71 1819,-711.87 1819,-667 1819,-667 1819,-667 1819,-521 1819,-438.81 1956.63,-427.69 1910,-360 1895.58,-339.07 1871.7,-326.4 1847.77,-318.73"/>
<polygon fill="black" stroke="black" points="1848.83,-315.39 1838.25,-315.97 1846.88,-322.12 1848.83,-315.39"/>
</g>
<!-- coin&#45;&gt;create_signer -->
<g id="edge70" class="edge">
<title>coin&#45;&gt;create_signer</title>
<path fill="none" stroke="black" d="M1846.25,-808.83C1956.65,-807.86 2381.36,-801.2 2727,-756 2885.34,-735.29 2959.52,-789.94 3079,-684 3159.92,-612.25 3162.35,-469.21 3159.28,-407.94"/>
<polygon fill="black" stroke="black" points="3162.77,-407.77 3158.68,-398 3155.79,-408.19 3162.77,-407.77"/>
</g>
<!-- aggregator -->
<g id="node31" class="node">
<title>aggregator</title>
<ellipse fill="none" stroke="black" cx="626" cy="-306" rx="50.33" ry="18"/>
<text text-anchor="middle" x="626" y="-300.95" font-family="Times,serif" font-size="14.00">aggregator</text>
</g>
<!-- coin&#45;&gt;aggregator -->
<g id="edge72" class="edge">
<title>coin&#45;&gt;aggregator</title>
<path fill="none" stroke="black" d="M1792.16,-806.73C1734.21,-801.4 1593.36,-786.23 1479,-756 1348.04,-721.38 1321.8,-692.91 1194,-648 1186.35,-645.31 644.33,-474.1 639,-468 607.1,-431.47 612.37,-370.82 619.14,-335.31"/>
<polygon fill="black" stroke="black" points="622.51,-336.29 621.14,-325.78 615.66,-334.85 622.51,-336.29"/>
</g>
<!-- aggregator_factory -->
<g id="node32" class="node">
<title>aggregator_factory</title>
<ellipse fill="none" stroke="black" cx="767" cy="-378" rx="81.04" ry="18"/>
<text text-anchor="middle" x="767" y="-372.95" font-family="Times,serif" font-size="14.00">aggregator_factory</text>
</g>
<!-- coin&#45;&gt;aggregator_factory -->
<g id="edge73" class="edge">
<title>coin&#45;&gt;aggregator_factory</title>
<path fill="none" stroke="black" d="M1793.44,-803.53C1755.91,-795.16 1683.94,-777.82 1625,-756 1589.95,-743.03 1583.02,-735.47 1549,-720 1271.87,-593.98 935.63,-450.49 813.86,-398.83"/>
<polygon fill="black" stroke="black" points="815.39,-395.68 804.82,-395 812.66,-402.12 815.39,-395.68"/>
</g>
<!-- optional_aggregator -->
<g id="node33" class="node">
<title>optional_aggregator</title>
<ellipse fill="none" stroke="black" cx="733" cy="-450" rx="85.13" ry="18"/>
<text text-anchor="middle" x="733" y="-444.95" font-family="Times,serif" font-size="14.00">optional_aggregator</text>
</g>
<!-- coin&#45;&gt;optional_aggregator -->
<g id="edge75" class="edge">
<title>coin&#45;&gt;optional_aggregator</title>
<path fill="none" stroke="black" d="M1792.93,-804.33C1749.65,-796.3 1660.47,-778.53 1587,-756 1460.27,-717.14 1432.77,-695.43 1309,-648 1139.96,-583.22 1100.21,-559.8 928,-504 885.17,-490.12 836.28,-476.84 798.17,-467.04"/>
<polygon fill="black" stroke="black" points="799.23,-463.7 788.68,-464.62 797.5,-470.48 799.23,-463.7"/>
</g>
<!-- fungible_asset -->
<g id="node34" class="node">
<title>fungible_asset</title>
<ellipse fill="none" stroke="black" cx="2955" cy="-594" rx="64.15" ry="18"/>
<text text-anchor="middle" x="2955" y="-588.95" font-family="Times,serif" font-size="14.00">fungible_asset</text>
</g>
<!-- coin&#45;&gt;fungible_asset -->
<g id="edge76" class="edge">
<title>coin&#45;&gt;fungible_asset</title>
<path fill="none" stroke="black" d="M1844.86,-804.13C1987.38,-777.28 2678.26,-647.13 2891.91,-606.88"/>
<polygon fill="black" stroke="black" points="2892.25,-610.38 2901.43,-605.09 2890.95,-603.5 2892.25,-610.38"/>
</g>
<!-- primary_fungible_store -->
<g id="node35" class="node">
<title>primary_fungible_store</title>
<ellipse fill="none" stroke="black" cx="2620" cy="-738" rx="98.44" ry="18"/>
<text text-anchor="middle" x="2620" y="-732.95" font-family="Times,serif" font-size="14.00">primary_fungible_store</text>
</g>
<!-- coin&#45;&gt;primary_fungible_store -->
<g id="edge77" class="edge">
<title>coin&#45;&gt;primary_fungible_store</title>
<path fill="none" stroke="black" d="M1845.65,-806.67C1950.41,-797.52 2337.18,-763.72 2521.32,-747.62"/>
<polygon fill="black" stroke="black" points="2521.45,-751.13 2531.1,-746.77 2520.84,-744.15 2521.45,-751.13"/>
</g>
<!-- aptos_coin&#45;&gt;vector -->
<g id="edge78" class="edge">
<title>aptos_coin&#45;&gt;vector</title>
<path fill="none" stroke="black" d="M1439.08,-875.6C1371.97,-867.6 1246.38,-851.03 1141,-828 630.2,-716.37 198.13,-832.87 78,-324 46.85,-192.03 129.4,-133.99 250,-72 338.45,-26.53 1047.96,-20.07 1236.26,-19.15"/>
<polygon fill="black" stroke="black" points="1236.15,-22.65 1246.13,-19.11 1236.12,-15.65 1236.15,-22.65"/>
</g>
<!-- aptos_coin&#45;&gt;option -->
<g id="edge79" class="edge">
<title>aptos_coin&#45;&gt;option</title>
<path fill="none" stroke="black" d="M1445.54,-871.16C1241.2,-821.9 343.33,-596.63 148,-396 69.57,-315.45 44.22,-221.14 126,-144 178.08,-94.88 213.35,-124.56 283,-108 291.86,-105.89 301.35,-103.59 310.37,-101.37"/>
<polygon fill="black" stroke="black" points="311.11,-104.79 319.99,-99 309.44,-98 311.11,-104.79"/>
</g>
<!-- aptos_coin&#45;&gt;string -->
<g id="edge80" class="edge">
<title>aptos_coin&#45;&gt;string</title>
<path fill="none" stroke="black" d="M1494.71,-863.73C1503.18,-845.39 1517.62,-815.82 1533,-792 1577.28,-723.42 1594.46,-710.47 1647,-648 1743.64,-533.09 1782.98,-516.91 1872,-396 1927.31,-320.87 1909.68,-277.32 1980,-216 2004.16,-194.93 2037.96,-181.24 2064.16,-173.06"/>
<polygon fill="black" stroke="black" points="2064.83,-176.51 2073.43,-170.31 2062.85,-169.8 2064.83,-176.51"/>
</g>
<!-- aptos_coin&#45;&gt;signer -->
<g id="edge81" class="edge">
<title>aptos_coin&#45;&gt;signer</title>
<path fill="none" stroke="black" d="M1537.34,-878.84C1792.2,-867.72 2941.81,-815.09 3294,-756 3415.21,-735.66 3463.78,-759.19 3561,-684 3728.36,-554.58 3759.46,-395.82 3648,-216 3605.27,-147.06 3510.67,-113.89 3455.41,-99.85"/>
<polygon fill="black" stroke="black" points="3456.26,-96.46 3445.72,-97.5 3454.61,-103.26 3456.26,-96.46"/>
</g>
<!-- aptos_coin&#45;&gt;coin -->
<g id="edge84" class="edge">
<title>aptos_coin&#45;&gt;coin</title>
<path fill="none" stroke="black" d="M1529.72,-871.99C1595.54,-858.12 1720.57,-831.75 1782.44,-818.71"/>
<polygon fill="black" stroke="black" points="1783.04,-822.16 1792.1,-816.67 1781.6,-815.31 1783.04,-822.16"/>
</g>
<!-- aptos_coin&#45;&gt;error -->
<g id="edge82" class="edge">
<title>aptos_coin&#45;&gt;error</title>
<path fill="none" stroke="black" d="M1461.67,-866.15C1360.39,-805.93 990,-577.08 990,-451 990,-451 990,-451 990,-305 990,-210.76 1044.9,-188.46 1128,-144 1196.41,-107.4 1430.84,-95.54 1525.69,-92.18"/>
<polygon fill="black" stroke="black" points="1525.68,-95.68 1535.55,-91.84 1525.44,-88.69 1525.68,-95.68"/>
</g>
<!-- aptos_coin&#45;&gt;system_addresses -->
<g id="edge83" class="edge">
<title>aptos_coin&#45;&gt;system_addresses</title>
<path fill="none" stroke="black" d="M1503.18,-864.44C1558.45,-806.41 1738.77,-604.43 1783,-396 1787.28,-375.83 1783.94,-352.74 1779.7,-335.14"/>
<polygon fill="black" stroke="black" points="1783.13,-334.42 1777.18,-325.66 1776.37,-336.22 1783.13,-334.42"/>
</g>
<!-- aptos_account&#45;&gt;signer -->
<g id="edge85" class="edge">
<title>aptos_account&#45;&gt;signer</title>
<path fill="none" stroke="black" d="M2746.88,-952.91C2955.24,-952.18 3606.42,-946.19 3688,-900 3729.51,-876.5 3748,-858.7 3748,-811 3748,-811 3748,-811 3748,-305 3748,-168.14 3546.98,-114.9 3456.37,-97.85"/>
<polygon fill="black" stroke="black" points="3457.07,-94.42 3446.61,-96.09 3455.83,-101.31 3457.07,-94.42"/>
</g>
<!-- aptos_account&#45;&gt;event -->
<g id="edge88" class="edge">
<title>aptos_account&#45;&gt;event</title>
<path fill="none" stroke="black" d="M2652.02,-937.83C2562.92,-892.26 2305.83,-746.88 2204,-540 2182.79,-496.9 2190.99,-479.18 2200,-432 2201.66,-423.31 2204.72,-414.23 2208,-406.09"/>
<polygon fill="black" stroke="black" points="2211.14,-407.65 2211.9,-397.08 2204.71,-404.87 2211.14,-407.65"/>
</g>
<!-- aptos_account&#45;&gt;account -->
<g id="edge90" class="edge">
<title>aptos_account&#45;&gt;account</title>
<path fill="none" stroke="black" d="M2619.22,-952.73C2369.33,-951.35 1468.61,-943.4 1427,-900 1299.68,-767.2 1532.23,-544.12 1613.49,-473.29"/>
<polygon fill="black" stroke="black" points="1615.32,-476.34 1620.6,-467.15 1610.74,-471.04 1615.32,-476.34"/>
</g>
<!-- aptos_account&#45;&gt;object -->
<g id="edge91" class="edge">
<title>aptos_account&#45;&gt;object</title>
<path fill="none" stroke="black" d="M2696.05,-936.15C2714.51,-910.59 2746,-859.82 2746,-811 2746,-811 2746,-811 2746,-665 2746,-612.49 2698.41,-567.63 2665.84,-543.06"/>
<polygon fill="black" stroke="black" points="2668.06,-540.35 2657.91,-537.29 2663.93,-546.01 2668.06,-540.35"/>
</g>
<!-- aptos_account&#45;&gt;coin -->
<g id="edge94" class="edge">
<title>aptos_account&#45;&gt;coin</title>
<path fill="none" stroke="black" d="M2619.18,-953.4C2460.87,-953.61 2053.92,-949.2 1929,-900 1893.04,-885.84 1859.74,-855.47 1839.4,-834.16"/>
<polygon fill="black" stroke="black" points="1842.16,-831.99 1832.79,-827.05 1837.04,-836.76 1842.16,-831.99"/>
</g>
<!-- aptos_account&#45;&gt;aptos_coin -->
<g id="edge95" class="edge">
<title>aptos_account&#45;&gt;aptos_coin</title>
<path fill="none" stroke="black" d="M2621.22,-949.38C2415.34,-937.33 1754.11,-898.63 1548.56,-886.6"/>
<polygon fill="black" stroke="black" points="1548.81,-883.11 1538.63,-886.02 1548.41,-890.1 1548.81,-883.11"/>
</g>
<!-- aptos_account&#45;&gt;error -->
<g id="edge86" class="edge">
<title>aptos_account&#45;&gt;error</title>
<path fill="none" stroke="black" d="M2746.53,-951.68C2909.47,-947.81 3339.05,-934.56 3477,-900 3570.2,-876.65 3674,-907.08 3674,-811 3674,-811 3674,-811 3674,-665 3674,-568.4 3636,-547.6 3636,-451 3636,-451 3636,-451 3636,-377 3636,-275.6 3373.17,-191.47 3153,-144 2997.88,-110.56 1838.03,-94.4 1606.24,-91.49"/>
<polygon fill="black" stroke="black" points="1606.56,-87.99 1596.52,-91.36 1606.47,-94.99 1606.56,-87.99"/>
</g>
<!-- aptos_account&#45;&gt;features -->
<g id="edge87" class="edge">
<title>aptos_account&#45;&gt;features</title>
<path fill="none" stroke="black" d="M2745.99,-950.73C2895.49,-944.93 3268.34,-928.06 3390,-900 3474.36,-880.54 3520.91,-898.62 3571,-828 3597.33,-790.87 3560,-598.18 3560,-523 3560,-523 3560,-523 3560,-449 3560,-273.43 3406.04,-275.89 3241,-216 3130.85,-176.02 2992.25,-166.03 2918.59,-163.64"/>
<polygon fill="black" stroke="black" points="2918.94,-160.15 2908.85,-163.37 2918.74,-167.15 2918.94,-160.15"/>
</g>
<!-- aptos_account&#45;&gt;create_signer -->
<g id="edge89" class="edge">
<title>aptos_account&#45;&gt;create_signer</title>
<path fill="none" stroke="black" d="M2745.02,-949.51C2945.01,-937.46 3560,-893.66 3560,-811 3560,-811 3560,-811 3560,-737 3560,-549.71 3313.72,-436.46 3206.21,-395.95"/>
<polygon fill="black" stroke="black" points="3207.65,-392.75 3197.06,-392.56 3205.22,-399.32 3207.65,-392.75"/>
</g>
<!-- aptos_account&#45;&gt;fungible_asset -->
<g id="edge92" class="edge">
<title>aptos_account&#45;&gt;fungible_asset</title>
<path fill="none" stroke="black" d="M2743.51,-948.13C2923.97,-932.81 3446,-882.33 3446,-811 3446,-811 3446,-811 3446,-737 3446,-650.91 3163.9,-613.74 3027.35,-600.8"/>
<polygon fill="black" stroke="black" points="3027.98,-597.34 3017.7,-599.9 3027.33,-604.31 3027.98,-597.34"/>
</g>
<!-- aptos_account&#45;&gt;primary_fungible_store -->
<g id="edge93" class="edge">
<title>aptos_account&#45;&gt;primary_fungible_store</title>
<path fill="none" stroke="black" d="M2677.95,-935.85C2667.12,-899.07 2641.58,-812.29 2628.31,-767.24"/>
<polygon fill="black" stroke="black" points="2631.68,-766.29 2625.5,-757.68 2624.97,-768.27 2631.68,-766.29"/>
</g>
<!-- timestamp&#45;&gt;error -->
<g id="edge96" class="edge">
<title>timestamp&#45;&gt;error</title>
<path fill="none" stroke="black" d="M1214.43,-359.82C1201.4,-315.91 1174.52,-199.17 1237,-144 1279.23,-106.71 1447.61,-95.48 1525.77,-92.25"/>
<polygon fill="black" stroke="black" points="1525.69,-95.75 1535.55,-91.87 1525.42,-88.76 1525.69,-95.75"/>
</g>
<!-- timestamp&#45;&gt;system_addresses -->
<g id="edge97" class="edge">
<title>timestamp&#45;&gt;system_addresses</title>
<path fill="none" stroke="black" d="M1266.98,-371.03C1361.93,-358.97 1577.5,-331.58 1693.56,-316.84"/>
<polygon fill="black" stroke="black" points="1693.84,-320.33 1703.32,-315.6 1692.96,-313.39 1693.84,-320.33"/>
</g>
<!-- smart_table&#45;&gt;vector -->
<g id="edge98" class="edge">
<title>smart_table&#45;&gt;vector</title>
<path fill="none" stroke="black" d="M366.42,-289.56C353.98,-280.17 339.55,-267.09 331,-252 291.27,-181.88 253.58,-130.52 309,-72 341.26,-37.93 1048.43,-23.11 1236.44,-19.76"/>
<polygon fill="black" stroke="black" points="1236.36,-23.26 1246.29,-19.59 1236.23,-16.26 1236.36,-23.26"/>
</g>
<!-- smart_table&#45;&gt;option -->
<g id="edge99" class="edge">
<title>smart_table&#45;&gt;option</title>
<path fill="none" stroke="black" d="M377.1,-288.43C360.29,-265.58 332,-222.39 323,-180 319.68,-164.35 319.04,-159.5 323,-144 325.38,-134.71 329.75,-125.3 334.4,-117.04"/>
<polygon fill="black" stroke="black" points="337.33,-118.94 339.51,-108.57 331.34,-115.32 337.33,-118.94"/>
</g>
<!-- smart_table&#45;&gt;type_info -->
<g id="edge101" class="edge">
<title>smart_table&#45;&gt;type_info</title>
<path fill="none" stroke="black" d="M441.06,-299.41C476.39,-295.71 524.5,-291 567,-288 918.49,-263.15 1007.35,-274.42 1359,-252 1410.15,-248.74 1468.31,-243.86 1509.93,-240.16"/>
<polygon fill="black" stroke="black" points="1510.06,-243.66 1519.71,-239.29 1509.43,-236.69 1510.06,-243.66"/>
</g>
<!-- smart_table&#45;&gt;error -->
<g id="edge100" class="edge">
<title>smart_table&#45;&gt;error</title>
<path fill="none" stroke="black" d="M411.27,-289.21C438.35,-269.72 487.14,-236.64 533,-216 584.16,-192.97 603.2,-203.83 654,-180 680.11,-167.75 680.66,-153.21 708,-144 862.4,-92 1377.54,-90.15 1525.78,-90.73"/>
<polygon fill="black" stroke="black" points="1525.47,-94.23 1535.49,-90.77 1525.5,-87.23 1525.47,-94.23"/>
</g>
<!-- simple_map -->
<g id="node36" class="node">
<title>simple_map</title>
<ellipse fill="none" stroke="black" cx="389" cy="-162" rx="56.98" ry="18"/>
<text text-anchor="middle" x="389" y="-156.95" font-family="Times,serif" font-size="14.00">simple_map</text>
</g>
<!-- smart_table&#45;&gt;simple_map -->
<g id="edge102" class="edge">
<title>smart_table&#45;&gt;simple_map</title>
<path fill="none" stroke="black" d="M377.99,-288.26C371.58,-278.26 364.33,-265.01 361,-252 357.04,-236.5 357.15,-231.53 361,-216 363.23,-207.01 367.29,-197.87 371.64,-189.76"/>
<polygon fill="black" stroke="black" points="374.67,-191.52 376.65,-181.11 368.61,-188.02 374.67,-191.52"/>
</g>
<!-- math64 -->
<g id="node37" class="node">
<title>math64</title>
<ellipse fill="none" stroke="black" cx="409" cy="-234" rx="39.07" ry="18"/>
<text text-anchor="middle" x="409" y="-228.95" font-family="Times,serif" font-size="14.00">math64</text>
</g>
<!-- smart_table&#45;&gt;math64 -->
<g id="edge103" class="edge">
<title>smart_table&#45;&gt;math64</title>
<path fill="none" stroke="black" d="M394.7,-287.7C396.72,-280.24 399.14,-271.32 401.41,-262.97"/>
<polygon fill="black" stroke="black" points="404.72,-264.13 403.96,-253.57 397.96,-262.3 404.72,-264.13"/>
</g>
<!-- table_with_length -->
<g id="node38" class="node">
<title>table_with_length</title>
<ellipse fill="none" stroke="black" cx="619" cy="-234" rx="77.45" ry="18"/>
<text text-anchor="middle" x="619" y="-228.95" font-family="Times,serif" font-size="14.00">table_with_length</text>
</g>
<!-- smart_table&#45;&gt;table_with_length -->
<g id="edge104" class="edge">
<title>smart_table&#45;&gt;table_with_length</title>
<path fill="none" stroke="black" d="M429.11,-293.05C465.81,-281.83 521.12,-264.92 562.6,-252.24"/>
<polygon fill="black" stroke="black" points="563.37,-255.66 571.91,-249.39 561.33,-248.97 563.37,-255.66"/>
</g>
<!-- aptos_hash -->
<g id="node39" class="node">
<title>aptos_hash</title>
<ellipse fill="none" stroke="black" cx="1298" cy="-234" rx="51.86" ry="18"/>
<text text-anchor="middle" x="1298" y="-228.95" font-family="Times,serif" font-size="14.00">aptos_hash</text>
</g>
<!-- smart_table&#45;&gt;aptos_hash -->
<g id="edge105" class="edge">
<title>smart_table&#45;&gt;aptos_hash</title>
<path fill="none" stroke="black" d="M441.48,-299.74C476.78,-296.2 524.7,-291.56 567,-288 814.75,-267.12 1110.18,-247.24 1236.16,-238.99"/>
<polygon fill="black" stroke="black" points="1236.19,-242.5 1245.94,-238.36 1235.74,-235.51 1236.19,-242.5"/>
</g>
<!-- code&#45;&gt;vector -->
<g id="edge106" class="edge">
<title>code&#45;&gt;vector</title>
<path fill="none" stroke="black" d="M2374.96,-590.74C2439.83,-585.17 2605.35,-569.08 2741,-540 3141.04,-454.25 3752.16,-511.32 3572,-144 3548.98,-97.07 3528.25,-89.5 3479,-72 3374.07,-34.71 1632.69,-21.35 1327.48,-19.29"/>
<polygon fill="black" stroke="black" points="1327.56,-15.79 1317.53,-19.23 1327.51,-22.79 1327.56,-15.79"/>
</g>
<!-- code&#45;&gt;option -->
<g id="edge107" class="edge">
<title>code&#45;&gt;option</title>
<path fill="none" stroke="black" d="M2318.44,-592.4C2061.16,-586.67 152,-536.38 152,-307 152,-307 152,-307 152,-233 152,-189.63 159.39,-172.59 192,-144 233.86,-107.29 259.63,-126.92 312,-108 313.32,-107.52 314.65,-107.03 316,-106.52"/>
<polygon fill="black" stroke="black" points="316.94,-109.91 324.94,-102.96 314.35,-103.4 316.94,-109.91"/>
</g>
<!-- code&#45;&gt;string -->
<g id="edge108" class="edge">
<title>code&#45;&gt;string</title>
<path fill="none" stroke="black" d="M2321.43,-585.94C2299.72,-578.45 2269.94,-564.25 2256,-540 2248.03,-526.13 2249.68,-518.7 2256,-504 2288.25,-429.01 2421.58,-423.27 2370,-360 2319.83,-298.45 2263.92,-363.43 2195,-324 2176.29,-313.3 2140.51,-270.82 2130,-252 2119.44,-233.09 2112.8,-209.48 2108.87,-191.33"/>
<polygon fill="black" stroke="black" points="2112.36,-190.9 2106.97,-181.78 2105.49,-192.27 2112.36,-190.9"/>
</g>
<!-- code&#45;&gt;signer -->
<g id="edge109" class="edge">
<title>code&#45;&gt;signer</title>
<path fill="none" stroke="black" d="M2374.92,-590.69C2432.48,-585.46 2568.14,-570.71 2678,-540 2759.79,-517.14 2777.68,-503.12 2855,-468 2952.18,-423.86 3194.65,-310.39 3284,-252 3326.01,-224.54 3340.22,-219.64 3371,-180 3385.4,-161.45 3396.45,-137.16 3403.59,-118.64"/>
<polygon fill="black" stroke="black" points="3406.83,-119.97 3407,-109.38 3400.26,-117.55 3406.83,-119.97"/>
</g>
<!-- code&#45;&gt;event -->
<g id="edge113" class="edge">
<title>code&#45;&gt;event</title>
<path fill="none" stroke="black" d="M2319.27,-589.62C2290,-584.43 2245.1,-571.54 2223,-540 2195.4,-500.61 2204,-441.45 2212.6,-406.88"/>
<polygon fill="black" stroke="black" points="2215.87,-408.19 2215.08,-397.62 2209.11,-406.38 2215.87,-408.19"/>
</g>
<!-- code&#45;&gt;object -->
<g id="edge114" class="edge">
<title>code&#45;&gt;object</title>
<path fill="none" stroke="black" d="M2373.41,-586.6C2423.94,-574.36 2534.62,-547.56 2594.89,-532.96"/>
<polygon fill="black" stroke="black" points="2595.52,-536.4 2604.42,-530.65 2593.88,-529.6 2595.52,-536.4"/>
</g>
<!-- code&#45;&gt;error -->
<g id="edge110" class="edge">
<title>code&#45;&gt;error</title>
<path fill="none" stroke="black" d="M2363.89,-579.25C2425.2,-527.73 2627.41,-342.61 2531,-216 2458.1,-120.26 2388.55,-164.61 2270,-144 2020.34,-100.59 1714.76,-92.73 1606.42,-91.31"/>
<polygon fill="black" stroke="black" points="1606.64,-87.81 1596.6,-91.19 1606.55,-94.81 1606.64,-87.81"/>
</g>
<!-- code&#45;&gt;features -->
<g id="edge111" class="edge">
<title>code&#45;&gt;features</title>
<path fill="none" stroke="black" d="M2368.13,-581.67C2372.04,-579.7 2376.11,-577.73 2380,-576 2421.25,-557.63 2435.89,-562.56 2475,-540 2650.38,-438.82 2705.51,-413.22 2828,-252 2841.95,-233.65 2852.11,-209.53 2858.57,-191.03"/>
<polygon fill="black" stroke="black" points="2861.81,-192.37 2861.63,-181.78 2855.16,-190.17 2861.81,-192.37"/>
</g>
<!-- code&#45;&gt;system_addresses -->
<g id="edge112" class="edge">
<title>code&#45;&gt;system_addresses</title>
<path fill="none" stroke="black" d="M2344.48,-575.63C2341.57,-557.47 2336.12,-528.27 2328,-504 2316.8,-470.53 2289.69,-380.55 2261,-360 2244.69,-348.32 1989.14,-325.29 1853.75,-313.83"/>
<polygon fill="black" stroke="black" points="1854.39,-310.37 1844.14,-313.01 1853.81,-317.34 1854.39,-310.37"/>
</g>
<!-- copyable_any -->
<g id="node40" class="node">
<title>copyable_any</title>
<ellipse fill="none" stroke="black" cx="2266" cy="-306" rx="62.1" ry="18"/>
<text text-anchor="middle" x="2266" y="-300.95" font-family="Times,serif" font-size="14.00">copyable_any</text>
</g>
<!-- code&#45;&gt;copyable_any -->
<g id="edge115" class="edge">
<title>code&#45;&gt;copyable_any</title>
<path fill="none" stroke="black" d="M2359.12,-577.33C2388.36,-537.47 2456.88,-430.42 2408,-360 2391.24,-335.86 2362.08,-322.69 2334.53,-315.52"/>
<polygon fill="black" stroke="black" points="2335.69,-312.2 2325.15,-313.32 2334.08,-319.01 2335.69,-312.2"/>
</g>
<!-- util -->
<g id="node41" class="node">
<title>util</title>
<ellipse fill="none" stroke="black" cx="2292" cy="-522" rx="27" ry="18"/>
<text text-anchor="middle" x="2292" y="-516.95" font-family="Times,serif" font-size="14.00">util</text>
</g>
<!-- code&#45;&gt;util -->
<g id="edge116" class="edge">
<title>code&#45;&gt;util</title>
<path fill="none" stroke="black" d="M2334.79,-577.46C2327.89,-568.67 2319.09,-557.48 2311.27,-547.53"/>
<polygon fill="black" stroke="black" points="2314.04,-545.38 2305.11,-539.68 2308.53,-549.71 2314.04,-545.38"/>
</g>
<!-- string_utils&#45;&gt;string -->
<g id="edge117" class="edge">
<title>string_utils&#45;&gt;string</title>
<path fill="none" stroke="black" d="M1994.44,-863.58C2009.28,-807.6 2061.09,-628.63 2147,-504 2186.61,-446.54 2233.42,-460.11 2261,-396 2267.32,-381.3 2270.36,-372.98 2261,-360 2231.42,-318.95 2192.27,-355.9 2153,-324 2124.25,-300.64 2122.06,-287.36 2111,-252 2104.87,-232.41 2103.21,-209.27 2103.03,-191.5"/>
<polygon fill="black" stroke="black" points="2106.53,-191.69 2103.1,-181.67 2099.53,-191.65 2106.53,-191.69"/>
</g>
<!-- features&#45;&gt;vector -->
<g id="edge118" class="edge">
<title>features&#45;&gt;vector</title>
<path fill="none" stroke="black" d="M2832.08,-152.68C2817.86,-149.55 2801.21,-146.22 2786,-144 2213.92,-60.52 1510.66,-28.08 1327.38,-20.72"/>
<polygon fill="black" stroke="black" points="1327.71,-17.23 1317.57,-20.33 1327.43,-24.22 1327.71,-17.23"/>
</g>
<!-- features&#45;&gt;signer -->
<g id="edge119" class="edge">
<title>features&#45;&gt;signer</title>
<path fill="none" stroke="black" d="M2905.39,-156.08C3003.91,-143.45 3265.2,-109.95 3369.3,-96.6"/>
<polygon fill="black" stroke="black" points="3369.64,-100.09 3379.12,-95.34 3368.75,-93.14 3369.64,-100.09"/>
</g>
<!-- features&#45;&gt;error -->
<g id="edge120" class="edge">
<title>features&#45;&gt;error</title>
<path fill="none" stroke="black" d="M2832.52,-152.47C2818.22,-149.27 2801.4,-145.94 2786,-144 2549.94,-114.3 1790.02,-95.94 1606.27,-91.86"/>
<polygon fill="black" stroke="black" points="1606.6,-88.37 1596.53,-91.65 1606.45,-95.37 1606.6,-88.37"/>
</g>
<!-- system_addresses&#45;&gt;signer -->
<g id="edge121" class="edge">
<title>system_addresses&#45;&gt;signer</title>
<path fill="none" stroke="black" d="M1840.81,-298.13C1879.2,-294.58 1927.69,-290.5 1971,-288 2102.84,-280.4 3036.54,-301.43 3159,-252 3225.23,-225.27 3217.32,-181.67 3278,-144 3307.71,-125.56 3344.91,-111.53 3372.73,-102.55"/>
<polygon fill="black" stroke="black" points="3373.71,-105.91 3382.21,-99.58 3371.62,-99.23 3373.71,-105.91"/>
</g>
<!-- system_addresses&#45;&gt;error -->
<g id="edge122" class="edge">
<title>system_addresses&#45;&gt;error</title>
<path fill="none" stroke="black" d="M1700.15,-298.58C1555.8,-285.42 1240.85,-256.26 1237,-252 1148.22,-153.97 1420.85,-108.96 1526.25,-95.52"/>
<polygon fill="black" stroke="black" points="1526.66,-99 1536.16,-94.29 1525.8,-92.05 1526.66,-99"/>
</g>
<!-- ed25519&#45;&gt;option -->
<g id="edge123" class="edge">
<title>ed25519&#45;&gt;option</title>
<path fill="none" stroke="black" d="M1477.57,-301.03C1418.51,-294.63 1307.17,-279.85 1216,-252 1103.36,-217.59 1088.05,-173.41 974,-144 864.84,-115.85 522.33,-98.45 397.82,-92.92"/>
<polygon fill="black" stroke="black" points="398.12,-89.43 387.98,-92.49 397.82,-96.42 398.12,-89.43"/>
</g>
<!-- ed25519&#45;&gt;bcs -->
<g id="edge125" class="edge">
<title>ed25519&#45;&gt;bcs</title>
<path fill="none" stroke="black" d="M1549.83,-293.15C1576.81,-282.07 1612.92,-265.3 1621,-252 1629.31,-238.32 1629.91,-229.29 1621,-216 1600.86,-185.95 1560.29,-172.92 1529.99,-167.28"/>
<polygon fill="black" stroke="black" points="1530.88,-163.88 1520.44,-165.71 1529.74,-170.79 1530.88,-163.88"/>
</g>
<!-- ed25519&#45;&gt;type_info -->
<g id="edge126" class="edge">
<title>ed25519&#45;&gt;type_info</title>
<path fill="none" stroke="black" d="M1530.14,-288.41C1535.64,-280.22 1542.41,-270.14 1548.57,-260.95"/>
<polygon fill="black" stroke="black" points="1551.43,-262.98 1554.1,-252.73 1545.62,-259.08 1551.43,-262.98"/>
</g>
<!-- ed25519&#45;&gt;error -->
<g id="edge124" class="edge">
<title>ed25519&#45;&gt;error</title>
<path fill="none" stroke="black" d="M1552.79,-294.53C1584.4,-283.98 1628.18,-267.13 1638,-252 1667.85,-206.03 1620.75,-145.63 1589.72,-113.46"/>
<polygon fill="black" stroke="black" points="1592.45,-111.24 1582.92,-106.61 1587.49,-116.17 1592.45,-111.24"/>
</g>
<!-- ed25519&#45;&gt;hash -->
<g id="edge127" class="edge">
<title>ed25519&#45;&gt;hash</title>
<path fill="none" stroke="black" d="M1553.91,-295.34C1601.73,-282.11 1687.17,-258.47 1735.7,-245.04"/>
<polygon fill="black" stroke="black" points="1736.45,-248.47 1745.16,-242.43 1734.59,-241.72 1736.45,-248.47"/>
</g>
<!-- multi_ed25519&#45;&gt;option -->
<g id="edge128" class="edge">
<title>multi_ed25519&#45;&gt;option</title>
<path fill="none" stroke="black" d="M1480.53,-372.41C1426.67,-368.69 1347.86,-363.5 1279,-360 1226.14,-357.31 365.01,-360.83 327,-324 269.46,-268.24 293.95,-220.74 317,-144 319.96,-134.13 325.43,-124.41 331.17,-116.04"/>
<polygon fill="black" stroke="black" points="333.89,-118.24 337.01,-108.12 328.26,-114.09 333.89,-118.24"/>
</g>
<!-- multi_ed25519&#45;&gt;bcs -->
<g id="edge131" class="edge">
<title>multi_ed25519&#45;&gt;bcs</title>
<path fill="none" stroke="black" d="M1509.32,-362.28C1493.32,-353.67 1476.04,-341.07 1467,-324 1455.07,-301.47 1472.34,-230.83 1483.6,-191.01"/>
<polygon fill="black" stroke="black" points="1486.96,-192 1486.37,-181.42 1480.23,-190.05 1486.96,-192"/>
</g>
<!-- multi_ed25519&#45;&gt;error -->
<g id="edge129" class="edge">
<title>multi_ed25519&#45;&gt;error</title>
<path fill="none" stroke="black" d="M1553.76,-359.88C1564.05,-340.88 1582.46,-309.98 1604,-288 1623.68,-267.92 1642.95,-276.9 1656,-252 1669.04,-227.11 1641.91,-146.89 1640,-144 1629.74,-128.47 1613.25,-116.01 1598.44,-107.08"/>
<polygon fill="black" stroke="black" points="1600.29,-104.11 1589.86,-102.22 1596.83,-110.2 1600.29,-104.11"/>
</g>
<!-- multi_ed25519&#45;&gt;features -->
<g id="edge130" class="edge">
<title>multi_ed25519&#45;&gt;features</title>
<path fill="none" stroke="black" d="M1600.82,-367.59C1619.29,-364.77 1639.99,-361.92 1659,-360 1959.23,-329.71 2037.33,-359.47 2337,-324 2424.52,-313.64 2445.17,-303.09 2532,-288 2630.05,-270.97 2661.82,-291.87 2753,-252 2788.39,-236.53 2822.4,-207.52 2843.92,-186.83"/>
<polygon fill="black" stroke="black" points="2846.32,-189.37 2851,-179.87 2841.41,-184.39 2846.32,-189.37"/>
</g>
<!-- multi_ed25519&#45;&gt;hash -->
<g id="edge132" class="edge">
<title>multi_ed25519&#45;&gt;hash</title>
<path fill="none" stroke="black" d="M1563.66,-360.4C1589.13,-337.93 1633.72,-299.33 1652,-288 1667.09,-278.65 1708.28,-261.04 1738.2,-248.69"/>
<polygon fill="black" stroke="black" points="1739.33,-252.02 1747.25,-244.98 1736.67,-245.54 1739.33,-252.02"/>
</g>
<!-- multi_ed25519&#45;&gt;ed25519 -->
<g id="edge133" class="edge">
<title>multi_ed25519&#45;&gt;ed25519</title>
<path fill="none" stroke="black" d="M1538.57,-359.7C1535.77,-352.15 1532.42,-343.12 1529.28,-334.68"/>
<polygon fill="black" stroke="black" points="1532.64,-333.68 1525.88,-325.52 1526.08,-336.12 1532.64,-333.68"/>
</g>
<!-- from_bcs&#45;&gt;string -->
<g id="edge134" class="edge">
<title>from_bcs&#45;&gt;string</title>
<path fill="none" stroke="black" d="M2225.08,-219.5C2200.24,-207.91 2164.38,-191.18 2138.14,-178.93"/>
<polygon fill="black" stroke="black" points="2139.81,-175.85 2129.26,-174.79 2136.85,-182.19 2139.81,-175.85"/>
</g>
<!-- chain_id&#45;&gt;system_addresses -->
<g id="edge135" class="edge">
<title>chain_id&#45;&gt;system_addresses</title>
<path fill="none" stroke="black" d="M1724.92,-360.76C1732.05,-352.44 1740.91,-342.1 1748.95,-332.73"/>
<polygon fill="black" stroke="black" points="1751.49,-335.14 1755.34,-325.27 1746.17,-330.59 1751.49,-335.14"/>
</g>
<!-- transaction_context&#45;&gt;option -->
<g id="edge136" class="edge">
<title>transaction_context&#45;&gt;option</title>
<path fill="none" stroke="black" d="M2604.09,-220.47C2509.4,-200.23 2313.24,-160.91 2145,-144 1791.35,-108.45 642.87,-94.16 398.13,-91.48"/>
<polygon fill="black" stroke="black" points="398.4,-87.98 388.36,-91.37 398.32,-94.98 398.4,-87.98"/>
</g>
<!-- transaction_context&#45;&gt;string -->
<g id="edge137" class="edge">
<title>transaction_context&#45;&gt;string</title>
<path fill="none" stroke="black" d="M2591.52,-223.83C2571.95,-221.27 2550.64,-218.5 2531,-216 2390.03,-198.03 2222.78,-177.5 2146.15,-168.14"/>
<polygon fill="black" stroke="black" points="2146.94,-164.71 2136.59,-166.97 2146.09,-171.66 2146.94,-164.71"/>
</g>
<!-- transaction_context&#45;&gt;error -->
<g id="edge138" class="edge">
<title>transaction_context&#45;&gt;error</title>
<path fill="none" stroke="black" d="M2656.75,-215.73C2650.57,-194.71 2636.91,-160.06 2611,-144 2567.58,-117.09 1793.68,-96.55 1606.51,-91.96"/>
<polygon fill="black" stroke="black" points="1606.64,-88.47 1596.55,-91.72 1606.47,-95.46 1606.64,-88.47"/>
</g>
<!-- transaction_context&#45;&gt;features -->
<g id="edge139" class="edge">
<title>transaction_context&#45;&gt;features</title>
<path fill="none" stroke="black" d="M2704.44,-218.24C2739.91,-206.19 2789.73,-189.26 2824.85,-177.32"/>
<polygon fill="black" stroke="black" points="2825.92,-180.66 2834.26,-174.12 2823.67,-174.03 2825.92,-180.66"/>
</g>
<!-- aggregator_factory&#45;&gt;table -->
<g id="edge141" class="edge">
<title>aggregator_factory&#45;&gt;table</title>
<path fill="none" stroke="black" d="M768.76,-359.85C772.54,-323.14 781.43,-236.66 786.07,-191.53"/>
<polygon fill="black" stroke="black" points="789.53,-192.04 787.07,-181.74 782.57,-191.33 789.53,-192.04"/>
</g>
<!-- aggregator_factory&#45;&gt;error -->
<g id="edge140" class="edge">
<title>aggregator_factory&#45;&gt;error</title>
<path fill="none" stroke="black" d="M782.19,-360.04C829.34,-307.48 970.79,-150.48 984,-144 1079.57,-97.14 1409.46,-91.49 1525.35,-90.98"/>
<polygon fill="black" stroke="black" points="1525.33,-94.48 1535.32,-90.95 1525.31,-87.48 1525.33,-94.48"/>
</g>
<!-- aggregator_factory&#45;&gt;system_addresses -->
<g id="edge142" class="edge">
<title>aggregator_factory&#45;&gt;system_addresses</title>
<path fill="none" stroke="black" d="M844.65,-372.37C988.15,-363.71 1304.57,-344.1 1571,-324 1609.89,-321.07 1653,-317.45 1689.21,-314.3"/>
<polygon fill="black" stroke="black" points="1689.05,-317.83 1698.71,-313.48 1688.44,-310.86 1689.05,-317.83"/>
</g>
<!-- aggregator_factory&#45;&gt;aggregator -->
<g id="edge143" class="edge">
<title>aggregator_factory&#45;&gt;aggregator</title>
<path fill="none" stroke="black" d="M735,-361.12C714.1,-350.74 686.69,-337.13 664.58,-326.15"/>
<polygon fill="black" stroke="black" points="666.39,-323.14 655.88,-321.83 663.28,-329.41 666.39,-323.14"/>
</g>
<!-- optional_aggregator&#45;&gt;option -->
<g id="edge144" class="edge">
<title>optional_aggregator&#45;&gt;option</title>
<path fill="none" stroke="black" d="M666.39,-438.5C550.09,-419.09 316.26,-374.88 252,-324 187.9,-273.24 167.2,-211.05 214,-144 240.56,-105.95 268.86,-125.08 312,-108 313.3,-107.48 314.63,-106.95 315.96,-106.41"/>
<polygon fill="black" stroke="black" points="316.95,-109.79 324.86,-102.74 314.28,-103.32 316.95,-109.79"/>
</g>
<!-- optional_aggregator&#45;&gt;error -->
<g id="edge145" class="edge">
<title>optional_aggregator&#45;&gt;error</title>
<path fill="none" stroke="black" d="M707.76,-432.51C696.05,-423.32 683.35,-410.75 677,-396 670.67,-381.3 670.11,-374.44 677,-360 709.87,-291.12 873.2,-172.49 944,-144 1050.3,-101.22 1405.38,-92.95 1525.72,-91.37"/>
<polygon fill="black" stroke="black" points="1525.47,-94.87 1535.43,-91.25 1525.39,-87.87 1525.47,-94.87"/>
</g>
<!-- optional_aggregator&#45;&gt;aggregator -->
<g id="edge146" class="edge">
<title>optional_aggregator&#45;&gt;aggregator</title>
<path fill="none" stroke="black" d="M692.63,-433.83C675.13,-425.28 655.96,-412.87 644,-396 631.59,-378.49 627.29,-354.42 625.98,-335.73"/>
<polygon fill="black" stroke="black" points="629.48,-335.71 625.56,-325.86 622.49,-336 629.48,-335.71"/>
</g>
<!-- optional_aggregator&#45;&gt;aggregator_factory -->
<g id="edge147" class="edge">
<title>optional_aggregator&#45;&gt;aggregator_factory</title>
<path fill="none" stroke="black" d="M741.4,-431.7C745.11,-424.07 749.56,-414.92 753.69,-406.4"/>
<polygon fill="black" stroke="black" points="756.81,-407.99 758.03,-397.47 750.51,-404.93 756.81,-407.99"/>
</g>
<!-- fungible_asset&#45;&gt;option -->
<g id="edge148" class="edge">
<title>fungible_asset&#45;&gt;option</title>
<path fill="none" stroke="black" d="M2892.28,-589.56C2797.69,-583.64 2613.22,-569.23 2459,-540 2399.68,-528.76 2387.66,-513.31 2328,-504 1946.07,-444.4 1842.27,-518.25 1459,-468 1422.54,-463.22 1168.62,-412.97 1136,-396 988.64,-319.35 1011.54,-212.03 860,-144 777.95,-107.16 506.95,-95.43 397.98,-92.14"/>
<polygon fill="black" stroke="black" points="398.34,-88.65 388.24,-91.86 398.13,-95.65 398.34,-88.65"/>
</g>
<!-- fungible_asset&#45;&gt;string -->
<g id="edge149" class="edge">
<title>fungible_asset&#45;&gt;string</title>
<path fill="none" stroke="black" d="M2934.54,-576.61C2871.9,-527.09 2675.8,-376.9 2493,-288 2447.5,-265.87 2429.17,-276.67 2385,-252 2363.24,-239.85 2364.36,-227.02 2342,-216 2324.49,-207.36 2208.58,-183.64 2145.21,-171.07"/>
<polygon fill="black" stroke="black" points="2146,-167.66 2135.51,-169.15 2144.64,-174.53 2146,-167.66"/>
</g>
<!-- fungible_asset&#45;&gt;signer -->
<g id="edge150" class="edge">
<title>fungible_asset&#45;&gt;signer</title>
<path fill="none" stroke="black" d="M3010.01,-584.5C3050.18,-576.77 3105.07,-562.98 3149,-540 3193.17,-516.9 3201.55,-504.96 3235,-468 3337.09,-355.21 3383.42,-327.67 3420,-180 3424.9,-160.2 3422.92,-137.23 3419.82,-119.59"/>
<polygon fill="black" stroke="black" points="3423.26,-118.94 3417.88,-109.81 3416.4,-120.3 3423.26,-118.94"/>
</g>
<!-- fungible_asset&#45;&gt;event -->
<g id="edge153" class="edge">
<title>fungible_asset&#45;&gt;event</title>
<path fill="none" stroke="black" d="M2894.68,-587.35C2822.51,-579.85 2698.35,-564.62 2594,-540 2494.28,-516.47 2468.52,-509.86 2375,-468 2329.67,-447.71 2280.52,-417.79 2250.24,-398.35"/>
<polygon fill="black" stroke="black" points="2252.29,-395.51 2241.99,-393.01 2248.48,-401.38 2252.29,-395.51"/>
</g>
<!-- fungible_asset&#45;&gt;aggregator_v2 -->
<g id="edge155" class="edge">
<title>fungible_asset&#45;&gt;aggregator_v2</title>
<path fill="none" stroke="black" d="M2951.98,-575.75C2945.74,-544.24 2928.9,-476.54 2893,-432 2819.9,-341.3 2780.78,-334.55 2674,-288 2626.14,-267.13 2568.57,-253.52 2524.9,-245.32"/>
<polygon fill="black" stroke="black" points="2525.79,-241.93 2515.32,-243.58 2524.53,-248.81 2525.79,-241.93"/>
</g>
<!-- fungible_asset&#45;&gt;object -->
<g id="edge156" class="edge">
<title>fungible_asset&#45;&gt;object</title>
<path fill="none" stroke="black" d="M2905.51,-582.14C2843,-568.42 2736.54,-545.06 2677.87,-532.19"/>
<polygon fill="black" stroke="black" points="2678.8,-528.81 2668.28,-530.08 2677.3,-535.65 2678.8,-528.81"/>
</g>
<!-- fungible_asset&#45;&gt;error -->
<g id="edge151" class="edge">
<title>fungible_asset&#45;&gt;error</title>
<path fill="none" stroke="black" d="M2960.33,-575.87C2980.01,-508.83 3041.18,-262.16 2916,-144 2867.19,-97.93 1826.24,-91.87 1606.5,-91.11"/>
<polygon fill="black" stroke="black" points="1606.74,-87.61 1596.73,-91.08 1606.72,-94.61 1606.74,-87.61"/>
</g>
<!-- fungible_asset&#45;&gt;features -->
<g id="edge152" class="edge">
<title>fungible_asset&#45;&gt;features</title>
<path fill="none" stroke="black" d="M3006.87,-582.99C3038.7,-575.06 3079.14,-561.62 3110,-540 3187.95,-485.39 3275.34,-441.39 3226,-360 3172.21,-271.26 3109.8,-302.23 3019,-252 2977.53,-229.06 2930.56,-201.28 2899.95,-182.92"/>
<polygon fill="black" stroke="black" points="2901.9,-180.01 2891.53,-177.86 2898.3,-186.01 2901.9,-180.01"/>
</g>
<!-- fungible_asset&#45;&gt;create_signer -->
<g id="edge154" class="edge">
<title>fungible_asset&#45;&gt;create_signer</title>
<path fill="none" stroke="black" d="M3003.92,-582.04C3030.06,-574.08 3061.25,-560.93 3083,-540 3121.43,-503.01 3141.75,-442.26 3150.86,-406.92"/>
<polygon fill="black" stroke="black" points="3154.2,-407.99 3153.17,-397.44 3147.4,-406.33 3154.2,-407.99"/>
</g>
<!-- function_info -->
<g id="node42" class="node">
<title>function_info</title>
<ellipse fill="none" stroke="black" cx="3089" cy="-234" rx="61.08" ry="18"/>
<text text-anchor="middle" x="3089" y="-228.95" font-family="Times,serif" font-size="14.00">function_info</text>
</g>
<!-- fungible_asset&#45;&gt;function_info -->
<g id="edge157" class="edge">
<title>fungible_asset&#45;&gt;function_info</title>
<path fill="none" stroke="black" d="M2975.63,-576.56C2986.42,-566.95 2999,-553.99 3007,-540 3059.85,-447.53 3079.71,-319.79 3086.21,-263.54"/>
<polygon fill="black" stroke="black" points="3089.66,-264.18 3087.27,-253.86 3082.71,-263.42 3089.66,-264.18"/>
</g>
<!-- primary_fungible_store&#45;&gt;option -->
<g id="edge158" class="edge">
<title>primary_fungible_store&#45;&gt;option</title>
<path fill="none" stroke="black" d="M2531.51,-729.86C2167.26,-699.8 795.48,-579.96 639,-468 552.03,-405.77 556.4,-356.35 533,-252 529.5,-236.39 524.83,-229.76 533,-216 550.06,-187.27 581.94,-208.73 599,-180 607.17,-166.24 609.06,-156.44 599,-144 574.15,-113.25 461.81,-99.53 397.52,-94.1"/>
<polygon fill="black" stroke="black" points="397.87,-90.61 387.62,-93.3 397.31,-97.59 397.87,-90.61"/>
</g>
<!-- primary_fungible_store&#45;&gt;string -->
<g id="edge159" class="edge">
<title>primary_fungible_store&#45;&gt;string</title>
<path fill="none" stroke="black" d="M2612.91,-719.71C2590.08,-664.85 2514.89,-490.57 2429,-360 2423.28,-351.3 2317.8,-221.57 2309,-216 2295.05,-207.17 2199.75,-184.64 2144.13,-171.98"/>
<polygon fill="black" stroke="black" points="2145.24,-168.64 2134.71,-169.85 2143.69,-175.47 2145.24,-168.64"/>
</g>
<!-- primary_fungible_store&#45;&gt;signer -->
<g id="edge160" class="edge">
<title>primary_fungible_store&#45;&gt;signer</title>
<path fill="none" stroke="black" d="M2718.58,-736.62C2813.15,-733.72 2958.89,-722.53 3079,-684 3141.89,-663.83 3157.28,-653.07 3209,-612 3353.71,-497.09 3354.18,-425.78 3417,-252 3433.54,-206.24 3444.51,-191.72 3435,-144 3433.26,-135.27 3430.05,-126.17 3426.62,-118.03"/>
<polygon fill="black" stroke="black" points="3429.85,-116.69 3422.53,-109.03 3423.47,-119.58 3429.85,-116.69"/>
</g>
<!-- primary_fungible_store&#45;&gt;object -->
<g id="edge161" class="edge">
<title>primary_fungible_store&#45;&gt;object</title>
<path fill="none" stroke="black" d="M2621.28,-719.85C2624.03,-683.14 2630.49,-596.66 2633.87,-551.53"/>
<polygon fill="black" stroke="black" points="2637.34,-551.97 2634.6,-541.74 2630.36,-551.45 2637.34,-551.97"/>
</g>
<!-- primary_fungible_store&#45;&gt;fungible_asset -->
<g id="edge162" class="edge">
<title>primary_fungible_store&#45;&gt;fungible_asset</title>
<path fill="none" stroke="black" d="M2657.78,-720.99C2720.02,-694.6 2843.84,-642.12 2910.33,-613.94"/>
<polygon fill="black" stroke="black" points="2911.64,-617.18 2919.49,-610.05 2908.91,-610.73 2911.64,-617.18"/>
</g>
<!-- dispatchable_fungible_asset -->
<g id="node43" class="node">
<title>dispatchable_fungible_asset</title>
<ellipse fill="none" stroke="black" cx="2955" cy="-666" rx="114.82" ry="18"/>
<text text-anchor="middle" x="2955" y="-660.95" font-family="Times,serif" font-size="14.00">dispatchable_fungible_asset</text>
</g>
<!-- primary_fungible_store&#45;&gt;dispatchable_fungible_asset -->
<g id="edge163" class="edge">
<title>primary_fungible_store&#45;&gt;dispatchable_fungible_asset</title>
<path fill="none" stroke="black" d="M2683.01,-723.83C2737.94,-712.36 2817.84,-695.66 2876.83,-683.33"/>
<polygon fill="black" stroke="black" points="2877.41,-686.79 2886.48,-681.32 2875.98,-679.94 2877.41,-686.79"/>
</g>
<!-- simple_map&#45;&gt;vector -->
<g id="edge164" class="edge">
<title>simple_map&#45;&gt;vector</title>
<path fill="none" stroke="black" d="M431.1,-149.47C439.01,-147.5 447.23,-145.58 455,-144 751.69,-83.53 1113.75,-38.64 1237.83,-24.06"/>
<polygon fill="black" stroke="black" points="1238.06,-27.56 1247.58,-22.92 1237.25,-20.61 1238.06,-27.56"/>
</g>
<!-- simple_map&#45;&gt;option -->
<g id="edge165" class="edge">
<title>simple_map&#45;&gt;option</title>
<path fill="none" stroke="black" d="M380.04,-144.05C375.86,-136.14 370.79,-126.54 366.11,-117.69"/>
<polygon fill="black" stroke="black" points="369.35,-116.33 361.58,-109.13 363.16,-119.6 369.35,-116.33"/>
</g>
<!-- simple_map&#45;&gt;error -->
<g id="edge166" class="edge">
<title>simple_map&#45;&gt;error</title>
<path fill="none" stroke="black" d="M429.92,-149.08C438.16,-147.07 446.81,-145.24 455,-144 667.67,-111.88 1351.49,-95.53 1525.45,-91.82"/>
<polygon fill="black" stroke="black" points="1525.41,-95.33 1535.33,-91.62 1525.26,-88.33 1525.41,-95.33"/>
</g>
<!-- math64&#45;&gt;error -->
<g id="edge167" class="edge">
<title>math64&#45;&gt;error</title>
<path fill="none" stroke="black" d="M443.45,-225C481.88,-215.71 545.67,-199.17 599,-180 636.07,-166.67 641.72,-153.33 680,-144 843.81,-104.09 1374.93,-93.68 1525.74,-91.5"/>
<polygon fill="black" stroke="black" points="1525.67,-95 1535.62,-91.37 1525.58,-88.01 1525.67,-95"/>
</g>
<!-- fixed_point32 -->
<g id="node44" class="node">
<title>fixed_point32</title>
<ellipse fill="none" stroke="black" cx="527" cy="-162" rx="62.61" ry="18"/>
<text text-anchor="middle" x="527" y="-156.95" font-family="Times,serif" font-size="14.00">fixed_point32</text>
</g>
<!-- math64&#45;&gt;fixed_point32 -->
<g id="edge168" class="edge">
<title>math64&#45;&gt;fixed_point32</title>
<path fill="none" stroke="black" d="M432.31,-219.17C448.94,-209.31 471.62,-195.85 490.61,-184.59"/>
<polygon fill="black" stroke="black" points="492.32,-187.64 499.14,-179.53 488.75,-181.62 492.32,-187.64"/>
</g>
<!-- table_with_length&#45;&gt;table -->
<g id="edge170" class="edge">
<title>table_with_length&#45;&gt;table</title>
<path fill="none" stroke="black" d="M655.89,-217.81C685.33,-205.69 726.25,-188.84 754.93,-177.03"/>
<polygon fill="black" stroke="black" points="755.95,-180.39 763.87,-173.35 753.29,-173.92 755.95,-180.39"/>
</g>
<!-- table_with_length&#45;&gt;error -->
<g id="edge169" class="edge">
<title>table_with_length&#45;&gt;error</title>
<path fill="none" stroke="black" d="M648.6,-216.95C666.28,-206.98 688.93,-193.53 708,-180 728.33,-165.58 727.86,-153.27 751,-144 823.32,-115.03 1372.13,-96.74 1526,-92.14"/>
<polygon fill="black" stroke="black" points="1525.81,-95.65 1535.7,-91.86 1525.6,-88.65 1525.81,-95.65"/>
</g>
<!-- aptos_hash&#45;&gt;bcs -->
<g id="edge173" class="edge">
<title>aptos_hash&#45;&gt;bcs</title>
<path fill="none" stroke="black" d="M1333.13,-220.32C1368.5,-207.56 1422.71,-188 1457.76,-175.35"/>
<polygon fill="black" stroke="black" points="1458.78,-178.71 1467,-172.02 1456.4,-172.12 1458.78,-178.71"/>
</g>
<!-- aptos_hash&#45;&gt;error -->
<g id="edge171" class="edge">
<title>aptos_hash&#45;&gt;error</title>
<path fill="none" stroke="black" d="M1323.45,-218C1354.45,-199.88 1408.55,-168.76 1456,-144 1481.68,-130.6 1511.28,-116.4 1533.31,-106.08"/>
<polygon fill="black" stroke="black" points="1534.51,-109.38 1542.09,-101.98 1531.55,-103.04 1534.51,-109.38"/>
</g>
<!-- aptos_hash&#45;&gt;features -->
<g id="edge172" class="edge">
<title>aptos_hash&#45;&gt;features</title>
<path fill="none" stroke="black" d="M1347.88,-228.44C1391.02,-224.64 1455.08,-219.32 1511,-216 2019.04,-185.81 2635.23,-168.83 2815.29,-164.27"/>
<polygon fill="black" stroke="black" points="2815.34,-167.77 2825.25,-164.01 2815.16,-160.77 2815.34,-167.77"/>
</g>
<!-- copyable_any&#45;&gt;string -->
<g id="edge174" class="edge">
<title>copyable_any&#45;&gt;string</title>
<path fill="none" stroke="black" d="M2230.12,-291.01C2209.83,-281.93 2184.83,-268.68 2166,-252 2145.9,-234.2 2128.95,-208.61 2117.89,-189.44"/>
<polygon fill="black" stroke="black" points="2121.03,-187.89 2113.1,-180.86 2114.92,-191.3 2121.03,-187.89"/>
</g>
<!-- copyable_any&#45;&gt;bcs -->
<g id="edge176" class="edge">
<title>copyable_any&#45;&gt;bcs</title>
<path fill="none" stroke="black" d="M2231.95,-290.67C2182.63,-270.56 2088,-234.37 2004,-216 1829.95,-177.94 1616.46,-167.01 1530.52,-164.05"/>
<polygon fill="black" stroke="black" points="1530.88,-160.56 1520.78,-163.73 1530.66,-167.55 1530.88,-160.56"/>
</g>
<!-- copyable_any&#45;&gt;type_info -->
<g id="edge177" class="edge">
<title>copyable_any&#45;&gt;type_info</title>
<path fill="none" stroke="black" d="M2207.85,-299.21C2110.17,-289.48 1906.92,-269.23 1735,-252 1697.2,-248.21 1654.66,-243.93 1621.71,-240.61"/>
<polygon fill="black" stroke="black" points="1622.28,-237.16 1611.98,-239.64 1621.58,-244.12 1622.28,-237.16"/>
</g>
<!-- copyable_any&#45;&gt;error -->
<g id="edge175" class="edge">
<title>copyable_any&#45;&gt;error</title>
<path fill="none" stroke="black" d="M2240.83,-289.1C2227.2,-279.57 2210.79,-266.5 2199,-252 2165.15,-210.36 2189.32,-174.27 2145,-144 2100.64,-113.7 1729.67,-97.14 1605.97,-92.43"/>
<polygon fill="black" stroke="black" points="1606.42,-88.94 1596.3,-92.06 1606.16,-95.94 1606.42,-88.94"/>
</g>
<!-- copyable_any&#45;&gt;from_bcs -->
<g id="edge178" class="edge">
<title>copyable_any&#45;&gt;from_bcs</title>
<path fill="none" stroke="black" d="M2263.03,-287.7C2261.77,-280.32 2260.26,-271.52 2258.84,-263.25"/>
<polygon fill="black" stroke="black" points="2262.33,-262.86 2257.19,-253.6 2255.43,-264.04 2262.33,-262.86"/>
</g>
<!-- function_info&#45;&gt;string -->
<g id="edge179" class="edge">
<title>function_info&#45;&gt;string</title>
<path fill="none" stroke="black" d="M3029.97,-228.8C2848.77,-215.93 2303.34,-177.17 2146.57,-166.03"/>
<polygon fill="black" stroke="black" points="2147.27,-162.57 2137.05,-165.35 2146.78,-169.55 2147.27,-162.57"/>
</g>
<!-- function_info&#45;&gt;signer -->
<g id="edge180" class="edge">
<title>function_info&#45;&gt;signer</title>
<path fill="none" stroke="black" d="M3108.79,-216.61C3133.59,-196.83 3178.06,-163.76 3221,-144 3269.89,-121.5 3330.3,-106.77 3370.15,-98.68"/>
<polygon fill="black" stroke="black" points="3370.7,-102.14 3379.84,-96.77 3369.35,-95.27 3370.7,-102.14"/>
</g>
<!-- function_info&#45;&gt;error -->
<g id="edge181" class="edge">
<title>function_info&#45;&gt;error</title>
<path fill="none" stroke="black" d="M3080.37,-215.83C3068.63,-194.58 3045.42,-159.32 3014,-144 2949.06,-112.34 1834.28,-94.82 1606.46,-91.56"/>
<polygon fill="black" stroke="black" points="1606.66,-88.06 1596.61,-91.42 1606.56,-95.06 1606.66,-88.06"/>
</g>
<!-- function_info&#45;&gt;features -->
<g id="edge182" class="edge">
<title>function_info&#45;&gt;features</title>
<path fill="none" stroke="black" d="M3048.28,-220.16C3009.04,-207.79 2949.88,-189.13 2909.91,-176.53"/>
<polygon fill="black" stroke="black" points="2911.21,-173.27 2900.62,-173.6 2909.11,-179.95 2911.21,-173.27"/>
</g>
<!-- dispatchable_fungible_asset&#45;&gt;option -->
<g id="edge183" class="edge">
<title>dispatchable_fungible_asset&#45;&gt;option</title>
<path fill="none" stroke="black" d="M2850.66,-658.23C2722.97,-649.52 2500.27,-633 2310,-612 2033.72,-581.51 1312.3,-545.54 1078,-396 963.03,-322.62 954.55,-278.3 860,-180 844.95,-164.36 846.35,-153.83 827,-144 752.65,-106.23 502.22,-95.1 398.05,-92.06"/>
<polygon fill="black" stroke="black" points="398.29,-88.56 388.19,-91.78 398.09,-95.56 398.29,-88.56"/>
</g>
<!-- dispatchable_fungible_asset&#45;&gt;object -->
<g id="edge186" class="edge">
<title>dispatchable_fungible_asset&#45;&gt;object</title>
<path fill="none" stroke="black" d="M2919.53,-648.5C2880.54,-630.43 2815.99,-600.74 2760,-576 2730.53,-562.98 2696.9,-548.64 2672.11,-538.16"/>
<polygon fill="black" stroke="black" points="2673.7,-535.03 2663.12,-534.37 2670.98,-541.48 2673.7,-535.03"/>
</g>
<!-- dispatchable_fungible_asset&#45;&gt;error -->
<g id="edge184" class="edge">
<title>dispatchable_fungible_asset&#45;&gt;error</title>
<path fill="none" stroke="black" d="M3044.03,-654.33C3113.69,-640.71 3205.89,-609.84 3250,-540 3327.02,-418.07 3358.59,-328.22 3268,-216 3203.38,-135.95 3149.29,-162.02 3048,-144 2759.72,-92.73 1813.75,-90.73 1606.4,-90.92"/>
<polygon fill="black" stroke="black" points="1606.68,-87.42 1596.69,-90.93 1606.69,-94.42 1606.68,-87.42"/>
</g>
<!-- dispatchable_fungible_asset&#45;&gt;features -->
<g id="edge185" class="edge">
<title>dispatchable_fungible_asset&#45;&gt;features</title>
<path fill="none" stroke="black" d="M3015.94,-650.41C3046.96,-641.64 3084.65,-628.87 3116,-612 3230.58,-550.34 3303.3,-484.35 3265,-360 3241.61,-284.05 3227.15,-256.88 3159,-216 3119,-192 2989.51,-175.44 2917.13,-167.8"/>
<polygon fill="black" stroke="black" points="2917.84,-164.35 2907.53,-166.8 2917.12,-171.31 2917.84,-164.35"/>
</g>
<!-- dispatchable_fungible_asset&#45;&gt;fungible_asset -->
<g id="edge188" class="edge">
<title>dispatchable_fungible_asset&#45;&gt;fungible_asset</title>
<path fill="none" stroke="black" d="M2955,-647.7C2955,-640.41 2955,-631.73 2955,-623.54"/>
<polygon fill="black" stroke="black" points="2958.5,-623.62 2955,-613.62 2951.5,-623.62 2958.5,-623.62"/>
</g>
<!-- dispatchable_fungible_asset&#45;&gt;function_info -->
<g id="edge187" class="edge">
<title>dispatchable_fungible_asset&#45;&gt;function_info</title>
<path fill="none" stroke="black" d="M2998.1,-648.87C3062.47,-622.23 3181.86,-562.4 3235,-468 3258.67,-425.96 3266.95,-403.46 3246,-360 3222.32,-310.88 3168.91,-275.1 3130.97,-254.71"/>
<polygon fill="black" stroke="black" points="3133.03,-251.83 3122.55,-250.31 3129.8,-258.04 3133.03,-251.83"/>
</g>
</g>
</svg>
