<?xml version="1.0" encoding="UTF-8" standalone="no"?>
<!DOCTYPE svg PUBLIC "-//W3C//DTD SVG 1.1//EN"
 "http://www.w3.org/Graphics/SVG/1.1/DTD/svg11.dtd">
<!-- Generated by graphviz version 9.0.0 (20230911.1827)
 -->
<!-- Title: G Pages: 1 -->
<svg width="3126pt" height="764pt"
 viewBox="0.00 0.00 3125.99 764.00" xmlns="http://www.w3.org/2000/svg" xmlns:xlink="http://www.w3.org/1999/xlink">
<g id="graph0" class="graph" transform="scale(1 1) rotate(0) translate(4 760)">
<title>G</title>
<polygon fill="white" stroke="none" points="-4,4 -4,-760 3121.99,-760 3121.99,4 -4,4"/>
<!-- emojicoin_dot_fun -->
<g id="node1" class="node">
<title>emojicoin_dot_fun</title>
<ellipse fill="none" stroke="black" cx="1427.99" cy="-738" rx="81.55" ry="18"/>
<text text-anchor="middle" x="1427.99" y="-732.95" font-family="Times,serif" font-size="14.00">emojicoin_dot_fun</text>
</g>
<!-- vector -->
<g id="node2" class="node">
<title>vector</title>
<ellipse fill="none" stroke="black" cx="792.99" cy="-18" rx="33.95" ry="18"/>
<text text-anchor="middle" x="792.99" y="-12.95" font-family="Times,serif" font-size="14.00">vector</text>
</g>
<!-- emojicoin_dot_fun&#45;&gt;vector -->
<g id="edge1" class="edge">
<title>emojicoin_dot_fun&#45;&gt;vector</title>
<path fill="none" stroke="black" d="M1509.21,-736.15C1765.97,-733.13 2558.13,-720.95 2811.99,-684 2952.15,-663.6 3117.99,-736.64 3117.99,-595 3117.99,-595 3117.99,-595 3117.99,-161 3117.99,-75.32 3029.96,-93.38 2946.99,-72 2736.42,-17.73 1131.27,-18.32 838.69,-18.89"/>
<polygon fill="black" stroke="black" points="838.79,-15.39 828.8,-18.91 838.8,-22.39 838.79,-15.39"/>
</g>
<!-- option -->
<g id="node3" class="node">
<title>option</title>
<ellipse fill="none" stroke="black" cx="645.99" cy="-90" rx="34.46" ry="18"/>
<text text-anchor="middle" x="645.99" y="-84.95" font-family="Times,serif" font-size="14.00">option</text>
</g>
<!-- emojicoin_dot_fun&#45;&gt;option -->
<g id="edge2" class="edge">
<title>emojicoin_dot_fun&#45;&gt;option</title>
<path fill="none" stroke="black" d="M1346.36,-736.67C1053.87,-735.13 72.87,-726.77 21.99,-684 -8.97,-657.97 2.99,-635.45 2.99,-595 2.99,-595 2.99,-595 2.99,-305 2.99,-257.54 25.12,-245.88 61.99,-216 129.57,-161.23 159.79,-165.85 243.99,-144 370.44,-111.19 524.8,-98.1 600.16,-93.38"/>
<polygon fill="black" stroke="black" points="600.28,-96.88 610.05,-92.78 599.86,-89.89 600.28,-96.88"/>
</g>
<!-- string -->
<g id="node4" class="node">
<title>string</title>
<ellipse fill="none" stroke="black" cx="392.99" cy="-162" rx="31.9" ry="18"/>
<text text-anchor="middle" x="392.99" y="-156.95" font-family="Times,serif" font-size="14.00">string</text>
</g>
<!-- emojicoin_dot_fun&#45;&gt;string -->
<g id="edge3" class="edge">
<title>emojicoin_dot_fun&#45;&gt;string</title>
<path fill="none" stroke="black" d="M1346.29,-736.37C1081.43,-733.94 261.26,-723.26 220.99,-684 156.52,-621.15 200.84,-217.52 201.99,-216 219.91,-192.43 300.05,-176.6 350.66,-168.75"/>
<polygon fill="black" stroke="black" points="351.04,-172.23 360.41,-167.29 350,-165.31 351.04,-172.23"/>
</g>
<!-- signer -->
<g id="node5" class="node">
<title>signer</title>
<ellipse fill="none" stroke="black" cx="2775.99" cy="-90" rx="33.44" ry="18"/>
<text text-anchor="middle" x="2775.99" y="-84.95" font-family="Times,serif" font-size="14.00">signer</text>
</g>
<!-- emojicoin_dot_fun&#45;&gt;signer -->
<g id="edge4" class="edge">
<title>emojicoin_dot_fun&#45;&gt;signer</title>
<path fill="none" stroke="black" d="M1509.49,-736.16C1692.01,-733.59 2147.3,-723.43 2525.99,-684 2774.03,-658.17 3079.99,-844.38 3079.99,-595 3079.99,-595 3079.99,-595 3079.99,-233 3079.99,-120.06 2905.62,-96.74 2821,-92.08"/>
<polygon fill="black" stroke="black" points="2821.35,-88.59 2811.2,-91.61 2821.02,-95.58 2821.35,-88.59"/>
</g>
<!-- bcs -->
<g id="node6" class="node">
<title>bcs</title>
<ellipse fill="none" stroke="black" cx="2046.99" cy="-162" rx="27" ry="18"/>
<text text-anchor="middle" x="2046.99" y="-156.95" font-family="Times,serif" font-size="14.00">bcs</text>
</g>
<!-- emojicoin_dot_fun&#45;&gt;bcs -->
<g id="edge5" class="edge">
<title>emojicoin_dot_fun&#45;&gt;bcs</title>
<path fill="none" stroke="black" d="M1439.31,-719.73C1492.32,-638.98 1714.34,-302.03 1736.99,-288 1833.93,-227.98 1895.31,-314 1990.99,-252 2013.22,-237.59 2028.25,-210.92 2037.09,-190.52"/>
<polygon fill="black" stroke="black" points="2040.29,-191.93 2040.8,-181.35 2033.8,-189.3 2040.29,-191.93"/>
</g>
<!-- type_info -->
<g id="node7" class="node">
<title>type_info</title>
<ellipse fill="none" stroke="black" cx="1551.99" cy="-234" rx="46.23" ry="18"/>
<text text-anchor="middle" x="1551.99" y="-228.95" font-family="Times,serif" font-size="14.00">type_info</text>
</g>
<!-- emojicoin_dot_fun&#45;&gt;type_info -->
<g id="edge6" class="edge">
<title>emojicoin_dot_fun&#45;&gt;type_info</title>
<path fill="none" stroke="black" d="M1433,-719.81C1449.32,-663.42 1501.87,-478.89 1535.99,-324 1540.44,-303.82 1544.54,-280.86 1547.48,-263.32"/>
<polygon fill="black" stroke="black" points="1550.9,-264.07 1549.07,-253.63 1543.99,-262.93 1550.9,-264.07"/>
</g>
<!-- table -->
<g id="node8" class="node">
<title>table</title>
<ellipse fill="none" stroke="black" cx="598.99" cy="-162" rx="28.83" ry="18"/>
<text text-anchor="middle" x="598.99" y="-156.95" font-family="Times,serif" font-size="14.00">table</text>
</g>
<!-- emojicoin_dot_fun&#45;&gt;table -->
<g id="edge7" class="edge">
<title>emojicoin_dot_fun&#45;&gt;table</title>
<path fill="none" stroke="black" d="M1346.49,-736.41C1258.25,-733.63 1114.39,-722.78 996.99,-684 935.38,-663.65 921.89,-650.94 869.99,-612 733.24,-509.39 711.96,-464.8 614.99,-324 585.78,-281.58 561.35,-266.17 572.99,-216 575.14,-206.73 579.15,-197.22 583.39,-188.86"/>
<polygon fill="black" stroke="black" points="586.33,-190.77 588.03,-180.31 580.18,-187.43 586.33,-190.77"/>
</g>
<!-- event -->
<g id="node9" class="node">
<title>event</title>
<ellipse fill="none" stroke="black" cx="2488.99" cy="-378" rx="30.88" ry="18"/>
<text text-anchor="middle" x="2488.99" y="-372.95" font-family="Times,serif" font-size="14.00">event</text>
</g>
<!-- emojicoin_dot_fun&#45;&gt;event -->
<g id="edge8" class="edge">
<title>emojicoin_dot_fun&#45;&gt;event</title>
<path fill="none" stroke="black" d="M1504.95,-731.76C1709.3,-716.81 2249.99,-670.17 2249.99,-595 2249.99,-595 2249.99,-595 2249.99,-521 2249.99,-475.63 2264.32,-460.04 2299.99,-432 2300.37,-431.7 2395.7,-405.05 2450.81,-389.66"/>
<polygon fill="black" stroke="black" points="2451.43,-393.12 2460.12,-387.06 2449.55,-386.38 2451.43,-393.12"/>
</g>
<!-- account -->
<g id="node10" class="node">
<title>account</title>
<ellipse fill="none" stroke="black" cx="1709.99" cy="-450" rx="39.58" ry="18"/>
<text text-anchor="middle" x="1709.99" y="-444.95" font-family="Times,serif" font-size="14.00">account</text>
</g>
<!-- emojicoin_dot_fun&#45;&gt;account -->
<g id="edge9" class="edge">
<title>emojicoin_dot_fun&#45;&gt;account</title>
<path fill="none" stroke="black" d="M1469.81,-722.22C1491.34,-713.3 1517.15,-700.45 1536.99,-684 1610.39,-623.13 1669.81,-524.92 1695.81,-477.84"/>
<polygon fill="black" stroke="black" points="1698.84,-479.6 1700.55,-469.14 1692.69,-476.25 1698.84,-479.6"/>
</g>
<!-- aggregator_v2 -->
<g id="node11" class="node">
<title>aggregator_v2</title>
<ellipse fill="none" stroke="black" cx="284.99" cy="-234" rx="64.15" ry="18"/>
<text text-anchor="middle" x="284.99" y="-228.95" font-family="Times,serif" font-size="14.00">aggregator_v2</text>
</g>
<!-- emojicoin_dot_fun&#45;&gt;aggregator_v2 -->
<g id="edge10" class="edge">
<title>emojicoin_dot_fun&#45;&gt;aggregator_v2</title>
<path fill="none" stroke="black" d="M1346.65,-735.96C1086.89,-732.29 291.74,-718.3 248.99,-684 217.04,-658.36 224.99,-635.97 224.99,-595 224.99,-595 224.99,-595 224.99,-521 224.99,-424.51 258.11,-313.54 275.13,-262.86"/>
<polygon fill="black" stroke="black" points="278.38,-264.17 278.31,-253.58 271.76,-261.91 278.38,-264.17"/>
</g>
<!-- coin -->
<g id="node12" class="node">
<title>coin</title>
<ellipse fill="none" stroke="black" cx="1233.99" cy="-522" rx="27" ry="18"/>
<text text-anchor="middle" x="1233.99" y="-516.95" font-family="Times,serif" font-size="14.00">coin</text>
</g>
<!-- emojicoin_dot_fun&#45;&gt;coin -->
<g id="edge11" class="edge">
<title>emojicoin_dot_fun&#45;&gt;coin</title>
<path fill="none" stroke="black" d="M1415.1,-719.82C1392.09,-689.57 1341.87,-625.31 1293.99,-576 1283.17,-564.86 1270.37,-553.35 1259.38,-543.91"/>
<polygon fill="black" stroke="black" points="1261.7,-541.29 1251.8,-537.51 1257.18,-546.64 1261.7,-541.29"/>
</g>
<!-- aptos_coin -->
<g id="node13" class="node">
<title>aptos_coin</title>
<ellipse fill="none" stroke="black" cx="1233.99" cy="-594" rx="50.84" ry="18"/>
<text text-anchor="middle" x="1233.99" y="-588.95" font-family="Times,serif" font-size="14.00">aptos_coin</text>
</g>
<!-- emojicoin_dot_fun&#45;&gt;aptos_coin -->
<g id="edge12" class="edge">
<title>emojicoin_dot_fun&#45;&gt;aptos_coin</title>
<path fill="none" stroke="black" d="M1380.56,-723.03C1356.12,-714.34 1326.75,-701.45 1303.99,-684 1281.54,-666.79 1262.21,-640.8 1249.58,-621.34"/>
<polygon fill="black" stroke="black" points="1252.7,-619.73 1244.42,-613.13 1246.78,-623.46 1252.7,-619.73"/>
</g>
<!-- aptos_account -->
<g id="node14" class="node">
<title>aptos_account</title>
<ellipse fill="none" stroke="black" cx="1709.99" cy="-666" rx="63.63" ry="18"/>
<text text-anchor="middle" x="1709.99" y="-660.95" font-family="Times,serif" font-size="14.00">aptos_account</text>
</g>
<!-- emojicoin_dot_fun&#45;&gt;aptos_account -->
<g id="edge13" class="edge">
<title>emojicoin_dot_fun&#45;&gt;aptos_account</title>
<path fill="none" stroke="black" d="M1480.7,-723.92C1529.46,-711.81 1601.79,-693.86 1652.13,-681.36"/>
<polygon fill="black" stroke="black" points="1652.82,-684.8 1661.69,-678.99 1651.14,-678 1652.82,-684.8"/>
</g>
<!-- timestamp -->
<g id="node15" class="node">
<title>timestamp</title>
<ellipse fill="none" stroke="black" cx="1425.99" cy="-378" rx="50.33" ry="18"/>
<text text-anchor="middle" x="1425.99" y="-372.95" font-family="Times,serif" font-size="14.00">timestamp</text>
</g>
<!-- emojicoin_dot_fun&#45;&gt;timestamp -->
<g id="edge14" class="edge">
<title>emojicoin_dot_fun&#45;&gt;timestamp</title>
<path fill="none" stroke="black" d="M1427.89,-719.73C1427.57,-662.43 1426.54,-478.18 1426.15,-407.22"/>
<polygon fill="black" stroke="black" points="1429.65,-407.59 1426.09,-397.61 1422.65,-407.63 1429.65,-407.59"/>
</g>
<!-- smart_table -->
<g id="node16" class="node">
<title>smart_table</title>
<ellipse fill="none" stroke="black" cx="1037.99" cy="-306" rx="54.42" ry="18"/>
<text text-anchor="middle" x="1037.99" y="-300.95" font-family="Times,serif" font-size="14.00">smart_table</text>
</g>
<!-- emojicoin_dot_fun&#45;&gt;smart_table -->
<g id="edge15" class="edge">
<title>emojicoin_dot_fun&#45;&gt;smart_table</title>
<path fill="none" stroke="black" d="M1350.36,-732.22C1206.2,-718.64 900.03,-666.63 769.99,-468 714.21,-382.8 884.15,-336 978.91,-317.09"/>
<polygon fill="black" stroke="black" points="979.44,-320.55 988.58,-315.21 978.1,-313.68 979.44,-320.55"/>
</g>
<!-- object -->
<g id="node17" class="node">
<title>object</title>
<ellipse fill="none" stroke="black" cx="2518.99" cy="-522" rx="33.44" ry="18"/>
<text text-anchor="middle" x="2518.99" y="-516.95" font-family="Times,serif" font-size="14.00">object</text>
</g>
<!-- emojicoin_dot_fun&#45;&gt;object -->
<g id="edge16" class="edge">
<title>emojicoin_dot_fun&#45;&gt;object</title>
<path fill="none" stroke="black" d="M1509.61,-736.94C1691.58,-735.98 2125.38,-728.9 2263.99,-684 2357.03,-653.86 2450.06,-581.99 2493.56,-545.33"/>
<polygon fill="black" stroke="black" points="2495.83,-547.99 2501.16,-538.84 2491.28,-542.67 2495.83,-547.99"/>
</g>
<!-- code -->
<g id="node18" class="node">
<title>code</title>
<ellipse fill="none" stroke="black" cx="2557.99" cy="-594" rx="28.32" ry="18"/>
<text text-anchor="middle" x="2557.99" y="-588.95" font-family="Times,serif" font-size="14.00">code</text>
</g>
<!-- emojicoin_dot_fun&#45;&gt;code -->
<g id="edge17" class="edge">
<title>emojicoin_dot_fun&#45;&gt;code</title>
<path fill="none" stroke="black" d="M1509.85,-737.02C1744.74,-736.52 2409.54,-730.93 2494.99,-684 2519.58,-670.5 2536.81,-642.81 2546.96,-621.88"/>
<polygon fill="black" stroke="black" points="2550.03,-623.59 2551,-613.04 2543.66,-620.68 2550.03,-623.59"/>
</g>
<!-- string_utils -->
<g id="node19" class="node">
<title>string_utils</title>
<ellipse fill="none" stroke="black" cx="82.99" cy="-666" rx="52.38" ry="18"/>
<text text-anchor="middle" x="82.99" y="-660.95" font-family="Times,serif" font-size="14.00">string_utils</text>
</g>
<!-- emojicoin_dot_fun&#45;&gt;string_utils -->
<g id="edge18" class="edge">
<title>emojicoin_dot_fun&#45;&gt;string_utils</title>
<path fill="none" stroke="black" d="M1346.56,-735.87C1102.81,-732.12 381.48,-718.37 148.99,-684 143.71,-683.22 138.24,-682.19 132.81,-681.01"/>
<polygon fill="black" stroke="black" points="133.81,-677.65 123.27,-678.79 132.22,-684.47 133.81,-677.65"/>
</g>
<!-- option&#45;&gt;vector -->
<g id="edge19" class="edge">
<title>option&#45;&gt;vector</title>
<path fill="none" stroke="black" d="M670.93,-77.13C694.93,-65.69 731.46,-48.3 758.3,-35.52"/>
<polygon fill="black" stroke="black" points="759.53,-38.81 767.06,-31.35 756.52,-32.49 759.53,-38.81"/>
</g>
<!-- string&#45;&gt;vector -->
<g id="edge20" class="edge">
<title>string&#45;&gt;vector</title>
<path fill="none" stroke="black" d="M416.85,-149.69C455.39,-131.7 534.03,-96.12 602.99,-72 653.3,-54.4 712.66,-38.61 751.48,-28.94"/>
<polygon fill="black" stroke="black" points="752,-32.41 760.87,-26.62 750.33,-25.62 752,-32.41"/>
</g>
<!-- string&#45;&gt;option -->
<g id="edge21" class="edge">
<title>string&#45;&gt;option</title>
<path fill="none" stroke="black" d="M418.62,-151C425.21,-148.57 432.33,-146.08 438.99,-144 495.15,-126.48 561.17,-110.33 603.28,-100.57"/>
<polygon fill="black" stroke="black" points="604.06,-103.99 613.02,-98.33 602.49,-97.16 604.06,-103.99"/>
</g>
<!-- type_info&#45;&gt;string -->
<g id="edge22" class="edge">
<title>type_info&#45;&gt;string</title>
<path fill="none" stroke="black" d="M1506.22,-230.84C1337.23,-222.83 748.55,-194.5 560.99,-180 518.24,-176.7 469.5,-171.62 435.57,-167.87"/>
<polygon fill="black" stroke="black" points="436.05,-164.4 425.73,-166.78 435.28,-171.36 436.05,-164.4"/>
</g>
<!-- type_info&#45;&gt;bcs -->
<g id="edge25" class="edge">
<title>type_info&#45;&gt;bcs</title>
<path fill="none" stroke="black" d="M1595.05,-226.91C1690.61,-213.4 1919.06,-181.09 2009.35,-168.32"/>
<polygon fill="black" stroke="black" points="2009.74,-171.8 2019.15,-166.94 2008.76,-164.87 2009.74,-171.8"/>
</g>
<!-- error -->
<g id="node20" class="node">
<title>error</title>
<ellipse fill="none" stroke="black" cx="1439.99" cy="-90" rx="28.83" ry="18"/>
<text text-anchor="middle" x="1439.99" y="-84.95" font-family="Times,serif" font-size="14.00">error</text>
</g>
<!-- type_info&#45;&gt;error -->
<g id="edge23" class="edge">
<title>type_info&#45;&gt;error</title>
<path fill="none" stroke="black" d="M1551.6,-215.59C1550.34,-196.32 1545.78,-165.19 1529.99,-144 1516.25,-125.56 1494.04,-112.39 1475.12,-103.78"/>
<polygon fill="black" stroke="black" points="1476.7,-100.65 1466.13,-99.95 1473.95,-107.09 1476.7,-100.65"/>
</g>
<!-- features -->
<g id="node21" class="node">
<title>features</title>
<ellipse fill="none" stroke="black" cx="2131.99" cy="-162" rx="40.09" ry="18"/>
<text text-anchor="middle" x="2131.99" y="-156.95" font-family="Times,serif" font-size="14.00">features</text>
</g>
<!-- type_info&#45;&gt;features -->
<g id="edge24" class="edge">
<title>type_info&#45;&gt;features</title>
<path fill="none" stroke="black" d="M1597.39,-229.84C1708.31,-221.91 1990.7,-200.32 2082.99,-180 2085.76,-179.39 2088.59,-178.67 2091.42,-177.88"/>
<polygon fill="black" stroke="black" points="2092.27,-181.29 2100.8,-175.01 2090.22,-174.59 2092.27,-181.29"/>
</g>
<!-- event&#45;&gt;bcs -->
<g id="edge26" class="edge">
<title>event&#45;&gt;bcs</title>
<path fill="none" stroke="black" d="M2481.98,-360.01C2473.05,-340.25 2455.85,-307.8 2431.99,-288 2307.05,-184.3 2236.89,-231.74 2082.99,-180 2081.43,-179.48 2079.86,-178.9 2078.28,-178.3"/>
<polygon fill="black" stroke="black" points="2079.94,-175.2 2069.36,-174.5 2077.19,-181.64 2079.94,-175.2"/>
</g>
<!-- guid -->
<g id="node22" class="node">
<title>guid</title>
<ellipse fill="none" stroke="black" cx="2395.99" cy="-306" rx="27.3" ry="18"/>
<text text-anchor="middle" x="2395.99" y="-300.95" font-family="Times,serif" font-size="14.00">guid</text>
</g>
<!-- event&#45;&gt;guid -->
<g id="edge27" class="edge">
<title>event&#45;&gt;guid</title>
<path fill="none" stroke="black" d="M2470.62,-363.17C2456.85,-352.81 2437.82,-338.48 2422.42,-326.89"/>
<polygon fill="black" stroke="black" points="2424.69,-324.22 2414.59,-321 2420.48,-329.81 2424.69,-324.22"/>
</g>
<!-- account&#45;&gt;vector -->
<g id="edge28" class="edge">
<title>account&#45;&gt;vector</title>
<path fill="none" stroke="black" d="M1749.66,-447.73C1844,-444.15 2078.97,-431.79 2147.99,-396 2186.26,-376.15 2190.58,-360.83 2212.99,-324 2230.75,-294.8 2233.89,-285.63 2239.99,-252 2249.75,-198.18 2229.17,-169.89 2180.99,-144 2060.15,-79.05 1063.86,-31.07 838.28,-20.97"/>
<polygon fill="black" stroke="black" points="838.58,-17.48 828.43,-20.53 838.27,-24.47 838.58,-17.48"/>
</g>
<!-- account&#45;&gt;option -->
<g id="edge29" class="edge">
<title>account&#45;&gt;option</title>
<path fill="none" stroke="black" d="M1670.66,-446.72C1595.24,-441.77 1425.39,-427.83 1285.99,-396 1237.07,-384.83 1227.61,-372.39 1178.99,-360 1089.78,-337.26 1064.14,-347 974.99,-324 973.5,-323.61 766.23,-252.91 764.99,-252 715.7,-215.89 677.98,-153.44 659.19,-117.86"/>
<polygon fill="black" stroke="black" points="662.36,-116.37 654.67,-109.09 656.14,-119.58 662.36,-116.37"/>
</g>
<!-- account&#45;&gt;signer -->
<g id="edge30" class="edge">
<title>account&#45;&gt;signer</title>
<path fill="none" stroke="black" d="M1749.7,-447.87C1850.43,-444.5 2113.51,-432.37 2191.99,-396 2213.1,-386.22 2211.05,-373.51 2229.99,-360 2258.15,-339.91 2268.75,-340.8 2298.99,-324 2326.51,-308.71 2331.07,-300.42 2359.99,-288 2413.5,-265.01 2434.81,-279.79 2485.99,-252 2550.22,-217.13 2546.31,-179.86 2609.99,-144 2649.19,-121.93 2698.85,-107.62 2733.6,-99.5"/>
<polygon fill="black" stroke="black" points="2734.32,-102.92 2743.3,-97.31 2732.78,-96.1 2734.32,-102.92"/>
</g>
<!-- account&#45;&gt;bcs -->
<g id="edge32" class="edge">
<title>account&#45;&gt;bcs</title>
<path fill="none" stroke="black" d="M1740.55,-438.21C1748.13,-435.86 1756.29,-433.6 1763.99,-432 1914.94,-400.7 1968.72,-459.97 2108.99,-396 2151.62,-376.56 2158.17,-361.7 2185.99,-324 2215.95,-283.4 2251.84,-255.93 2220.99,-216 2182.24,-165.84 2142.57,-201.63 2082.99,-180 2081.45,-179.44 2079.88,-178.84 2078.31,-178.21"/>
<polygon fill="black" stroke="black" points="2079.99,-175.12 2069.42,-174.34 2077.19,-181.54 2079.99,-175.12"/>
</g>
<!-- account&#45;&gt;type_info -->
<g id="edge33" class="edge">
<title>account&#45;&gt;type_info</title>
<path fill="none" stroke="black" d="M1687.6,-434.95C1673.34,-425.23 1655.15,-411.33 1641.99,-396 1632.31,-384.72 1589.29,-305.04 1566.41,-262.16"/>
<polygon fill="black" stroke="black" points="1569.56,-260.64 1561.77,-253.46 1563.39,-263.93 1569.56,-260.64"/>
</g>
<!-- account&#45;&gt;table -->
<g id="edge34" class="edge">
<title>account&#45;&gt;table</title>
<path fill="none" stroke="black" d="M1670.94,-446.34C1606.51,-441.22 1474.38,-427.55 1366.99,-396 1329.19,-384.89 1323.99,-370.38 1285.99,-360 1151.77,-323.32 1110.65,-354.94 974.99,-324 969.03,-322.64 772.6,-254.44 766.99,-252 740.33,-240.41 670.81,-202.62 630.04,-180.19"/>
<polygon fill="black" stroke="black" points="631.86,-177.2 621.42,-175.43 628.48,-183.33 631.86,-177.2"/>
</g>
<!-- account&#45;&gt;event -->
<g id="edge41" class="edge">
<title>account&#45;&gt;event</title>
<path fill="none" stroke="black" d="M1749.15,-446.11C1894.34,-435.4 2394.48,-398.41 2410.99,-396 2423.8,-394.13 2437.65,-391.36 2450.07,-388.6"/>
<polygon fill="black" stroke="black" points="2450.56,-392.07 2459.53,-386.43 2449,-385.25 2450.56,-392.07"/>
</g>
<!-- account&#45;&gt;error -->
<g id="edge31" class="edge">
<title>account&#45;&gt;error</title>
<path fill="none" stroke="black" d="M1706.17,-431.73C1693.72,-379.71 1649.38,-223.18 1550.99,-144 1528.54,-125.94 1498.92,-112.19 1475.93,-103.23"/>
<polygon fill="black" stroke="black" points="1477.24,-99.98 1466.65,-99.75 1474.78,-106.54 1477.24,-99.98"/>
</g>
<!-- account&#45;&gt;guid -->
<g id="edge39" class="edge">
<title>account&#45;&gt;guid</title>
<path fill="none" stroke="black" d="M1740.52,-438.06C1748.1,-435.71 1756.27,-433.49 1763.99,-432 1967.94,-392.56 2037.63,-474.41 2229.99,-396 2253.07,-386.59 2251.77,-373.07 2272.99,-360 2288.62,-350.38 2331.76,-332.46 2362.52,-320.15"/>
<polygon fill="black" stroke="black" points="2363.42,-323.56 2371.42,-316.61 2360.83,-317.05 2363.42,-323.56"/>
</g>
<!-- system_addresses -->
<g id="node23" class="node">
<title>system_addresses</title>
<ellipse fill="none" stroke="black" cx="2078.99" cy="-306" rx="76.94" ry="18"/>
<text text-anchor="middle" x="2078.99" y="-300.95" font-family="Times,serif" font-size="14.00">system_addresses</text>
</g>
<!-- account&#45;&gt;system_addresses -->
<g id="edge35" class="edge">
<title>account&#45;&gt;system_addresses</title>
<path fill="none" stroke="black" d="M1740.86,-438.25C1748.36,-435.92 1756.41,-433.67 1763.99,-432 1825.48,-418.49 1995.51,-434.93 2044.99,-396 2063.48,-381.45 2071.92,-355.58 2075.77,-335.47"/>
<polygon fill="black" stroke="black" points="2079.22,-336.06 2077.35,-325.63 2072.31,-334.95 2079.22,-336.06"/>
</g>
<!-- hash -->
<g id="node24" class="node">
<title>hash</title>
<ellipse fill="none" stroke="black" cx="2183.99" cy="-234" rx="27.81" ry="18"/>
<text text-anchor="middle" x="2183.99" y="-228.95" font-family="Times,serif" font-size="14.00">hash</text>
</g>
<!-- account&#45;&gt;hash -->
<g id="edge36" class="edge">
<title>account&#45;&gt;hash</title>
<path fill="none" stroke="black" d="M1740.56,-438.28C1748.14,-435.93 1756.3,-433.65 1763.99,-432 1897.89,-403.31 1942.96,-447.15 2069.99,-396 2082.28,-391.05 2157.88,-335.18 2164.99,-324 2176.46,-305.95 2181.12,-282.11 2182.95,-263.65"/>
<polygon fill="black" stroke="black" points="2186.42,-264.15 2183.68,-253.91 2179.44,-263.62 2186.42,-264.15"/>
</g>
<!-- ed25519 -->
<g id="node25" class="node">
<title>ed25519</title>
<ellipse fill="none" stroke="black" cx="1788.99" cy="-306" rx="42.65" ry="18"/>
<text text-anchor="middle" x="1788.99" y="-300.95" font-family="Times,serif" font-size="14.00">ed25519</text>
</g>
<!-- account&#45;&gt;ed25519 -->
<g id="edge37" class="edge">
<title>account&#45;&gt;ed25519</title>
<path fill="none" stroke="black" d="M1706.24,-431.75C1703.08,-412.91 1700.81,-382.41 1712.99,-360 1721.16,-344.96 1735.68,-333.26 1749.85,-324.73"/>
<polygon fill="black" stroke="black" points="1751.18,-328 1758.2,-320.06 1747.76,-321.88 1751.18,-328"/>
</g>
<!-- multi_ed25519 -->
<g id="node26" class="node">
<title>multi_ed25519</title>
<ellipse fill="none" stroke="black" cx="1788.99" cy="-378" rx="67.22" ry="18"/>
<text text-anchor="middle" x="1788.99" y="-372.95" font-family="Times,serif" font-size="14.00">multi_ed25519</text>
</g>
<!-- account&#45;&gt;multi_ed25519 -->
<g id="edge38" class="edge">
<title>account&#45;&gt;multi_ed25519</title>
<path fill="none" stroke="black" d="M1727.52,-433.46C1737.59,-424.54 1750.46,-413.14 1761.81,-403.08"/>
<polygon fill="black" stroke="black" points="1763.83,-405.97 1768.99,-396.72 1759.19,-400.73 1763.83,-405.97"/>
</g>
<!-- from_bcs -->
<g id="node27" class="node">
<title>from_bcs</title>
<ellipse fill="none" stroke="black" cx="640.99" cy="-234" rx="46.23" ry="18"/>
<text text-anchor="middle" x="640.99" y="-228.95" font-family="Times,serif" font-size="14.00">from_bcs</text>
</g>
<!-- account&#45;&gt;from_bcs -->
<g id="edge40" class="edge">
<title>account&#45;&gt;from_bcs</title>
<path fill="none" stroke="black" d="M1671.14,-445.55C1592.75,-438.35 1410.12,-420.35 1257.99,-396 1218.36,-389.66 942.61,-334.95 903.99,-324 859.35,-311.34 849.87,-303.1 805.99,-288 766.12,-274.28 720.45,-259.7 687.28,-249.31"/>
<polygon fill="black" stroke="black" points="688.57,-246.04 677.98,-246.4 686.48,-252.73 688.57,-246.04"/>
</g>
<!-- create_signer -->
<g id="node28" class="node">
<title>create_signer</title>
<ellipse fill="none" stroke="black" cx="2341.99" cy="-378" rx="60.05" ry="18"/>
<text text-anchor="middle" x="2341.99" y="-372.95" font-family="Times,serif" font-size="14.00">create_signer</text>
</g>
<!-- account&#45;&gt;create_signer -->
<g id="edge42" class="edge">
<title>account&#45;&gt;create_signer</title>
<path fill="none" stroke="black" d="M1740.51,-438.03C1748.1,-435.68 1756.27,-433.47 1763.99,-432 1984.6,-390 2045.89,-429.24 2267.99,-396 2274.02,-395.1 2280.29,-393.97 2286.51,-392.72"/>
<polygon fill="black" stroke="black" points="2287.05,-396.18 2296.11,-390.68 2285.6,-389.33 2287.05,-396.18"/>
</g>
<!-- chain_id -->
<g id="node29" class="node">
<title>chain_id</title>
<ellipse fill="none" stroke="black" cx="1992.99" cy="-378" rx="42.65" ry="18"/>
<text text-anchor="middle" x="1992.99" y="-372.95" font-family="Times,serif" font-size="14.00">chain_id</text>
</g>
<!-- account&#45;&gt;chain_id -->
<g id="edge43" class="edge">
<title>account&#45;&gt;chain_id</title>
<path fill="none" stroke="black" d="M1741.25,-438.58C1748.66,-436.27 1756.57,-433.94 1763.99,-432 1839.55,-412.25 1860.28,-415.18 1935.99,-396 1940.03,-394.98 1944.22,-393.85 1948.4,-392.69"/>
<polygon fill="black" stroke="black" points="1949.26,-396.08 1957.91,-389.95 1947.33,-389.35 1949.26,-396.08"/>
</g>
<!-- aggregator_v2&#45;&gt;string -->
<g id="edge44" class="edge">
<title>aggregator_v2&#45;&gt;string</title>
<path fill="none" stroke="black" d="M309.77,-216.94C325.7,-206.62 346.48,-193.14 363.3,-182.25"/>
<polygon fill="black" stroke="black" points="364.91,-185.37 371.4,-176.99 361.1,-179.5 364.91,-185.37"/>
</g>
<!-- aggregator_v2&#45;&gt;error -->
<g id="edge45" class="edge">
<title>aggregator_v2&#45;&gt;error</title>
<path fill="none" stroke="black" d="M346.96,-228.75C485.32,-219.04 811.04,-194.95 858.99,-180 890.15,-170.29 891.88,-153.87 922.99,-144 1011.91,-115.78 1294.49,-98.57 1399.87,-93"/>
<polygon fill="black" stroke="black" points="1399.92,-96.5 1409.73,-92.48 1399.56,-89.51 1399.92,-96.5"/>
</g>
<!-- coin&#45;&gt;option -->
<g id="edge46" class="edge">
<title>coin&#45;&gt;option</title>
<path fill="none" stroke="black" d="M1206.61,-520.52C1114.4,-518.54 816.24,-509.04 730.99,-468 618.91,-414.04 588.22,-371.3 552.99,-252 539.36,-205.84 520.09,-185.19 544.99,-144 557.87,-122.69 582.47,-109.53 604.17,-101.65"/>
<polygon fill="black" stroke="black" points="605.02,-105.05 613.41,-98.57 602.81,-98.41 605.02,-105.05"/>
</g>
<!-- coin&#45;&gt;string -->
<g id="edge47" class="edge">
<title>coin&#45;&gt;string</title>
<path fill="none" stroke="black" d="M1206.76,-520.93C1078.05,-520.33 534.46,-515.05 476.99,-468 433.69,-432.56 406.1,-260.3 396.65,-191.49"/>
<polygon fill="black" stroke="black" points="400.14,-191.21 395.34,-181.76 393.2,-192.14 400.14,-191.21"/>
</g>
<!-- coin&#45;&gt;signer -->
<g id="edge48" class="edge">
<title>coin&#45;&gt;signer</title>
<path fill="none" stroke="black" d="M1261.15,-519.48C1436.94,-509.52 2410.14,-452.1 2528.99,-396 2581.31,-371.3 2623.99,-364.86 2623.99,-307 2623.99,-307 2623.99,-307 2623.99,-233 2623.99,-170.15 2694.25,-127.12 2739.23,-106.02"/>
<polygon fill="black" stroke="black" points="2740.47,-109.3 2748.13,-101.99 2737.58,-102.92 2740.47,-109.3"/>
</g>
<!-- coin&#45;&gt;type_info -->
<g id="edge50" class="edge">
<title>coin&#45;&gt;type_info</title>
<path fill="none" stroke="black" d="M1242.73,-504.63C1261.12,-471.81 1307.1,-397.91 1366.99,-360 1422,-325.18 1458.55,-365.17 1508.99,-324 1527.88,-308.58 1539.05,-282.85 1545.25,-263.02"/>
<polygon fill="black" stroke="black" points="1548.56,-264.17 1547.93,-253.59 1541.83,-262.25 1548.56,-264.17"/>
</g>
<!-- coin&#45;&gt;event -->
<g id="edge52" class="edge">
<title>coin&#45;&gt;event</title>
<path fill="none" stroke="black" d="M1260.98,-518.55C1414.39,-504.58 2177.91,-434.16 2410.99,-396 2423.77,-393.91 2437.6,-391.08 2450.03,-388.33"/>
<polygon fill="black" stroke="black" points="2450.51,-391.81 2459.49,-386.19 2448.96,-384.98 2450.51,-391.81"/>
</g>
<!-- coin&#45;&gt;account -->
<g id="edge53" class="edge">
<title>coin&#45;&gt;account</title>
<path fill="none" stroke="black" d="M1260.26,-517.14C1337.03,-505.85 1561.87,-472.78 1661.5,-458.13"/>
<polygon fill="black" stroke="black" points="1661.85,-461.62 1671.23,-456.7 1660.83,-454.69 1661.85,-461.62"/>
</g>
<!-- coin&#45;&gt;error -->
<g id="edge49" class="edge">
<title>coin&#45;&gt;error</title>
<path fill="none" stroke="black" d="M1234.99,-503.76C1238.06,-463.05 1250.18,-359.07 1295.99,-288 1309.68,-266.76 1324.67,-272.09 1339.99,-252 1371.85,-210.24 1358.46,-187.44 1387.99,-144 1395.65,-132.74 1405.84,-121.74 1415.17,-112.71"/>
<polygon fill="black" stroke="black" points="1417.38,-115.44 1422.3,-106.06 1412.6,-110.33 1417.38,-115.44"/>
</g>
<!-- coin&#45;&gt;system_addresses -->
<g id="edge51" class="edge">
<title>coin&#45;&gt;system_addresses</title>
<path fill="none" stroke="black" d="M1252.73,-508.71C1284.43,-488.63 1351.32,-449.31 1413.99,-432 1607.82,-378.48 1678.88,-472.14 1864.99,-396 1888.06,-386.56 1886.1,-371.92 1907.99,-360 1940.24,-342.43 1979.14,-329.79 2011.69,-321.27"/>
<polygon fill="black" stroke="black" points="2012.16,-324.76 2021,-318.91 2010.44,-317.98 2012.16,-324.76"/>
</g>
<!-- aggregator -->
<g id="node30" class="node">
<title>aggregator</title>
<ellipse fill="none" stroke="black" cx="682.99" cy="-306" rx="50.33" ry="18"/>
<text text-anchor="middle" x="682.99" y="-300.95" font-family="Times,serif" font-size="14.00">aggregator</text>
</g>
<!-- coin&#45;&gt;aggregator -->
<g id="edge54" class="edge">
<title>coin&#45;&gt;aggregator</title>
<path fill="none" stroke="black" d="M1206.73,-521.11C1118.46,-520.99 841.94,-516.65 769.99,-468 723.8,-436.77 700.05,-372.69 689.68,-335.48"/>
<polygon fill="black" stroke="black" points="693.09,-334.66 687.16,-325.88 686.32,-336.44 693.09,-334.66"/>
</g>
<!-- aggregator_factory -->
<g id="node31" class="node">
<title>aggregator_factory</title>
<ellipse fill="none" stroke="black" cx="972.99" cy="-378" rx="81.04" ry="18"/>
<text text-anchor="middle" x="972.99" y="-372.95" font-family="Times,serif" font-size="14.00">aggregator_factory</text>
</g>
<!-- coin&#45;&gt;aggregator_factory -->
<g id="edge55" class="edge">
<title>coin&#45;&gt;aggregator_factory</title>
<path fill="none" stroke="black" d="M1213.51,-509.86C1170.29,-486.35 1069.13,-431.31 1012.74,-400.63"/>
<polygon fill="black" stroke="black" points="1014.54,-397.62 1004.08,-395.92 1011.2,-403.77 1014.54,-397.62"/>
</g>
<!-- optional_aggregator -->
<g id="node32" class="node">
<title>optional_aggregator</title>
<ellipse fill="none" stroke="black" cx="863.99" cy="-450" rx="85.13" ry="18"/>
<text text-anchor="middle" x="863.99" y="-444.95" font-family="Times,serif" font-size="14.00">optional_aggregator</text>
</g>
<!-- coin&#45;&gt;optional_aggregator -->
<g id="edge56" class="edge">
<title>coin&#45;&gt;optional_aggregator</title>
<path fill="none" stroke="black" d="M1207.97,-516.08C1152.38,-505.56 1020.3,-480.57 936.93,-464.8"/>
<polygon fill="black" stroke="black" points="937.72,-461.39 927.24,-462.97 936.42,-468.27 937.72,-461.39"/>
</g>
<!-- aptos_coin&#45;&gt;vector -->
<g id="edge57" class="edge">
<title>aptos_coin&#45;&gt;vector</title>
<path fill="none" stroke="black" d="M1183.1,-592.5C1005.77,-590.42 421.9,-580.51 348.99,-540 318.3,-522.95 230.06,-364.05 211.99,-324 191.81,-279.26 173.27,-262.49 188.99,-216 201.89,-177.85 210.55,-166.43 243.99,-144 405.46,-35.67 647.46,-20.22 747.35,-18.71"/>
<polygon fill="black" stroke="black" points="747.34,-22.22 757.3,-18.61 747.27,-15.22 747.34,-22.22"/>
</g>
<!-- aptos_coin&#45;&gt;option -->
<g id="edge58" class="edge">
<title>aptos_coin&#45;&gt;option</title>
<path fill="none" stroke="black" d="M1182.92,-592.19C1013.1,-589.16 474.26,-576.71 405.99,-540 300.54,-483.29 310.8,-424.03 244.99,-324 216.59,-280.84 174.47,-259.73 201.99,-216 245.11,-147.47 497.12,-109.21 601.13,-96.16"/>
<polygon fill="black" stroke="black" points="601.47,-99.65 610.97,-94.95 600.62,-92.7 601.47,-99.65"/>
</g>
<!-- aptos_coin&#45;&gt;string -->
<g id="edge59" class="edge">
<title>aptos_coin&#45;&gt;string</title>
<path fill="none" stroke="black" d="M1182.96,-592.02C1017.74,-588.53 504.38,-574.93 438.99,-540 431.2,-535.84 250.67,-294.76 244.99,-288 231.02,-271.39 219.86,-272.23 211.99,-252 206.19,-237.09 202.4,-228.81 211.99,-216 228.68,-193.73 303.01,-177.67 351.07,-169.39"/>
<polygon fill="black" stroke="black" points="351.6,-172.85 360.88,-167.75 350.44,-165.94 351.6,-172.85"/>
</g>
<!-- aptos_coin&#45;&gt;signer -->
<g id="edge60" class="edge">
<title>aptos_coin&#45;&gt;signer</title>
<path fill="none" stroke="black" d="M1285.03,-592.88C1497.11,-592.08 2309.38,-586 2560.99,-540 2660.53,-521.8 2710.73,-544.49 2776.99,-468 2864.49,-366.98 2811.77,-187.27 2786.85,-118.66"/>
<polygon fill="black" stroke="black" points="2790.14,-117.47 2783.36,-109.33 2783.58,-119.92 2790.14,-117.47"/>
</g>
<!-- aptos_coin&#45;&gt;coin -->
<g id="edge63" class="edge">
<title>aptos_coin&#45;&gt;coin</title>
<path fill="none" stroke="black" d="M1233.99,-575.7C1233.99,-568.41 1233.99,-559.73 1233.99,-551.54"/>
<polygon fill="black" stroke="black" points="1237.49,-551.62 1233.99,-541.62 1230.49,-551.62 1237.49,-551.62"/>
</g>
<!-- aptos_coin&#45;&gt;error -->
<g id="edge61" class="edge">
<title>aptos_coin&#45;&gt;error</title>
<path fill="none" stroke="black" d="M1219.13,-576.71C1211.17,-566.86 1202.17,-553.61 1197.99,-540 1193.29,-524.71 1195.36,-519.78 1197.99,-504 1214.66,-403.9 1227.47,-379.19 1271.99,-288 1305.52,-219.32 1313.13,-199.2 1365.99,-144 1378.87,-130.55 1395.56,-118.26 1409.84,-108.9"/>
<polygon fill="black" stroke="black" points="1411.42,-112.05 1417.98,-103.73 1407.66,-106.14 1411.42,-112.05"/>
</g>
<!-- aptos_coin&#45;&gt;system_addresses -->
<g id="edge62" class="edge">
<title>aptos_coin&#45;&gt;system_addresses</title>
<path fill="none" stroke="black" d="M1264.08,-579.11C1332.85,-547.94 1507.47,-472.02 1660.99,-432 1764.94,-404.9 1802.57,-441.27 1899.99,-396 1921.98,-385.78 1920.24,-372.54 1940.99,-360 1965.78,-345.02 1995.54,-332.94 2021.07,-324.12"/>
<polygon fill="black" stroke="black" points="2021.92,-327.53 2030.28,-321.03 2019.69,-320.89 2021.92,-327.53"/>
</g>
<!-- aptos_account&#45;&gt;signer -->
<g id="edge64" class="edge">
<title>aptos_account&#45;&gt;signer</title>
<path fill="none" stroke="black" d="M1773.09,-663.31C2016.48,-656.19 2884.93,-624.95 2970.99,-540 3022.97,-488.69 3003.99,-452.04 3003.99,-379 3003.99,-379 3003.99,-379 3003.99,-233 3003.99,-146.82 2885.17,-111.06 2819.08,-97.84"/>
<polygon fill="black" stroke="black" points="2820.14,-94.48 2809.66,-96.05 2818.83,-101.36 2820.14,-94.48"/>
</g>
<!-- aptos_account&#45;&gt;event -->
<g id="edge66" class="edge">
<title>aptos_account&#45;&gt;event</title>
<path fill="none" stroke="black" d="M1754.24,-652.66C1788.62,-642.7 1837.3,-627.8 1878.99,-612 1952.29,-584.22 1969.83,-574.94 2039.99,-540 2129.02,-495.66 2142.67,-466.41 2235.99,-432 2310.49,-404.53 2333.31,-412.46 2410.99,-396 2423.55,-393.34 2437.24,-390.38 2449.59,-387.68"/>
<polygon fill="black" stroke="black" points="2449.98,-391.18 2459,-385.62 2448.49,-384.34 2449.98,-391.18"/>
</g>
<!-- aptos_account&#45;&gt;account -->
<g id="edge68" class="edge">
<title>aptos_account&#45;&gt;account</title>
<path fill="none" stroke="black" d="M1709.99,-647.85C1709.99,-611.14 1709.99,-524.66 1709.99,-479.53"/>
<polygon fill="black" stroke="black" points="1713.49,-479.75 1709.99,-469.75 1706.49,-479.75 1713.49,-479.75"/>
</g>
<!-- aptos_account&#45;&gt;coin -->
<g id="edge69" class="edge">
<title>aptos_account&#45;&gt;coin</title>
<path fill="none" stroke="black" d="M1667.33,-652.27C1574.39,-624.55 1355.11,-559.13 1269.29,-533.53"/>
<polygon fill="black" stroke="black" points="1270.37,-530.2 1259.78,-530.69 1268.37,-536.91 1270.37,-530.2"/>
</g>
<!-- aptos_account&#45;&gt;aptos_coin -->
<g id="edge70" class="edge">
<title>aptos_account&#45;&gt;aptos_coin</title>
<path fill="none" stroke="black" d="M1654.46,-656.83C1563.56,-643.47 1383.92,-617.05 1291.65,-603.48"/>
<polygon fill="black" stroke="black" points="1292.21,-600.02 1281.81,-602.03 1291.19,-606.95 1292.21,-600.02"/>
</g>
<!-- aptos_account&#45;&gt;error -->
<g id="edge65" class="edge">
<title>aptos_account&#45;&gt;error</title>
<path fill="none" stroke="black" d="M1677.45,-650.22C1607.27,-616.46 1441.97,-526.39 1366.99,-396 1342.96,-354.21 1347.44,-335.25 1356.99,-288 1370,-223.6 1404.71,-154.07 1424.88,-117.29"/>
<polygon fill="black" stroke="black" points="1427.85,-119.16 1429.66,-108.72 1421.73,-115.75 1427.85,-119.16"/>
</g>
<!-- aptos_account&#45;&gt;create_signer -->
<g id="edge67" class="edge">
<title>aptos_account&#45;&gt;create_signer</title>
<path fill="none" stroke="black" d="M1742.64,-650.23C1848.28,-602.42 2180.84,-451.93 2299.44,-398.25"/>
<polygon fill="black" stroke="black" points="2300.87,-401.45 2308.54,-394.14 2297.98,-395.07 2300.87,-401.45"/>
</g>
<!-- timestamp&#45;&gt;error -->
<g id="edge71" class="edge">
<title>timestamp&#45;&gt;error</title>
<path fill="none" stroke="black" d="M1400.96,-361.92C1388.23,-352.72 1374,-339.72 1366.99,-324 1360.47,-309.39 1359.76,-302.28 1366.99,-288 1379.19,-263.89 1402.04,-275.14 1415.99,-252 1440.68,-211.05 1443.22,-153.89 1442.1,-119.84"/>
<polygon fill="black" stroke="black" points="1445.6,-119.75 1441.63,-109.93 1438.61,-120.08 1445.6,-119.75"/>
</g>
<!-- timestamp&#45;&gt;system_addresses -->
<g id="edge72" class="edge">
<title>timestamp&#45;&gt;system_addresses</title>
<path fill="none" stroke="black" d="M1473.74,-371.88C1584.77,-359.98 1861.27,-330.34 1998.76,-315.6"/>
<polygon fill="black" stroke="black" points="1998.94,-319.1 2008.51,-314.56 1998.19,-312.14 1998.94,-319.1"/>
</g>
<!-- smart_table&#45;&gt;vector -->
<g id="edge73" class="edge">
<title>smart_table&#45;&gt;vector</title>
<path fill="none" stroke="black" d="M995.9,-294.27C939.17,-279.75 844.35,-255.27 836.99,-252 810.3,-240.12 740.88,-205.7 726.99,-180 701.65,-133.12 742.57,-74.4 770.47,-42.41"/>
<polygon fill="black" stroke="black" points="772.82,-45.03 776.92,-35.26 767.62,-40.35 772.82,-45.03"/>
</g>
<!-- smart_table&#45;&gt;type_info -->
<g id="edge75" class="edge">
<title>smart_table&#45;&gt;type_info</title>
<path fill="none" stroke="black" d="M1087.74,-298.22C1184.44,-285.06 1397.04,-256.1 1497.44,-242.43"/>
<polygon fill="black" stroke="black" points="1497.88,-245.9 1507.32,-241.08 1496.94,-238.96 1497.88,-245.9"/>
</g>
<!-- smart_table&#45;&gt;error -->
<g id="edge74" class="edge">
<title>smart_table&#45;&gt;error</title>
<path fill="none" stroke="black" d="M1080.57,-294.36C1105.11,-286.31 1134.97,-272.97 1154.99,-252 1190.66,-214.63 1158.6,-177.43 1197.99,-144 1228.12,-118.43 1339.67,-102.26 1400.24,-95.17"/>
<polygon fill="black" stroke="black" points="1400.59,-98.65 1410.13,-94.05 1399.8,-91.7 1400.59,-98.65"/>
</g>
<!-- simple_map -->
<g id="node33" class="node">
<title>simple_map</title>
<ellipse fill="none" stroke="black" cx="792.99" cy="-162" rx="56.98" ry="18"/>
<text text-anchor="middle" x="792.99" y="-156.95" font-family="Times,serif" font-size="14.00">simple_map</text>
</g>
<!-- smart_table&#45;&gt;simple_map -->
<g id="edge76" class="edge">
<title>smart_table&#45;&gt;simple_map</title>
<path fill="none" stroke="black" d="M998.3,-293.27C960.01,-281.57 905.12,-263.71 885.99,-252 857.89,-234.79 831.32,-207.89 813.83,-188.16"/>
<polygon fill="black" stroke="black" points="816.64,-186.07 807.45,-180.81 811.35,-190.66 816.64,-186.07"/>
</g>
<!-- math64 -->
<g id="node34" class="node">
<title>math64</title>
<ellipse fill="none" stroke="black" cx="1106.99" cy="-234" rx="39.07" ry="18"/>
<text text-anchor="middle" x="1106.99" y="-228.95" font-family="Times,serif" font-size="14.00">math64</text>
</g>
<!-- smart_table&#45;&gt;math64 -->
<g id="edge77" class="edge">
<title>smart_table&#45;&gt;math64</title>
<path fill="none" stroke="black" d="M1054.34,-288.41C1063.1,-279.53 1074.03,-268.44 1083.66,-258.67"/>
<polygon fill="black" stroke="black" points="1086.11,-261.17 1090.64,-251.59 1081.13,-256.25 1086.11,-261.17"/>
</g>
<!-- table_with_length -->
<g id="node35" class="node">
<title>table_with_length</title>
<ellipse fill="none" stroke="black" cx="971.99" cy="-234" rx="77.45" ry="18"/>
<text text-anchor="middle" x="971.99" y="-228.95" font-family="Times,serif" font-size="14.00">table_with_length</text>
</g>
<!-- smart_table&#45;&gt;table_with_length -->
<g id="edge78" class="edge">
<title>smart_table&#45;&gt;table_with_length</title>
<path fill="none" stroke="black" d="M1022.35,-288.41C1014.41,-279.99 1004.6,-269.58 995.75,-260.2"/>
<polygon fill="black" stroke="black" points="998.42,-257.93 989.02,-253.06 993.33,-262.73 998.42,-257.93"/>
</g>
<!-- aptos_hash -->
<g id="node36" class="node">
<title>aptos_hash</title>
<ellipse fill="none" stroke="black" cx="1895.99" cy="-234" rx="51.86" ry="18"/>
<text text-anchor="middle" x="1895.99" y="-228.95" font-family="Times,serif" font-size="14.00">aptos_hash</text>
</g>
<!-- smart_table&#45;&gt;aptos_hash -->
<g id="edge79" class="edge">
<title>smart_table&#45;&gt;aptos_hash</title>
<path fill="none" stroke="black" d="M1090.37,-300.73C1240.84,-288.45 1673.87,-253.12 1834.8,-239.99"/>
<polygon fill="black" stroke="black" points="1834.72,-243.51 1844.4,-239.21 1834.15,-236.53 1834.72,-243.51"/>
</g>
<!-- object&#45;&gt;vector -->
<g id="edge80" class="edge">
<title>object&#45;&gt;vector</title>
<path fill="none" stroke="black" d="M2551.97,-518.03C2613.55,-511.89 2742.86,-495.96 2776.99,-468 2913.86,-355.87 2947.18,-192.91 2817.99,-72 2780.6,-37 1133.62,-21.81 838.14,-19.36"/>
<polygon fill="black" stroke="black" points="838.57,-15.86 828.54,-19.28 838.51,-22.86 838.57,-15.86"/>
</g>
<!-- object&#45;&gt;signer -->
<g id="edge81" class="edge">
<title>object&#45;&gt;signer</title>
<path fill="none" stroke="black" d="M2550.18,-514.79C2611.97,-502.37 2744.66,-475.04 2751.99,-468 2781.53,-439.61 2775.99,-419.97 2775.99,-379 2775.99,-379 2775.99,-379 2775.99,-233 2775.99,-193.74 2775.99,-148.38 2775.99,-119.69"/>
<polygon fill="black" stroke="black" points="2779.49,-120 2775.99,-110 2772.49,-120 2779.49,-120"/>
</g>
<!-- object&#45;&gt;bcs -->
<g id="edge84" class="edge">
<title>object&#45;&gt;bcs</title>
<path fill="none" stroke="black" d="M2542.49,-508.68C2557.1,-499.6 2574.64,-485.75 2582.99,-468 2603.76,-423.82 2591.1,-399.91 2562.99,-360 2495.71,-264.45 2453.05,-255.27 2342.99,-216 2233.12,-176.8 2194.8,-213.29 2082.99,-180 2081.38,-179.52 2079.74,-178.98 2078.11,-178.39"/>
<polygon fill="black" stroke="black" points="2079.48,-175.17 2068.9,-174.57 2076.8,-181.63 2079.48,-175.17"/>
</g>
<!-- object&#45;&gt;event -->
<g id="edge88" class="edge">
<title>object&#45;&gt;event</title>
<path fill="none" stroke="black" d="M2537.23,-506.94C2548.14,-497.32 2561.01,-483.52 2566.99,-468 2572.75,-453.07 2574.48,-446.14 2566.99,-432 2557.94,-414.91 2540.63,-402.31 2524.62,-393.69"/>
<polygon fill="black" stroke="black" points="2526.25,-390.59 2515.74,-389.27 2523.13,-396.86 2526.25,-390.59"/>
</g>
<!-- object&#45;&gt;account -->
<g id="edge90" class="edge">
<title>object&#45;&gt;account</title>
<path fill="none" stroke="black" d="M2486.02,-518.15C2360.33,-507.27 1910.71,-468.37 1759.79,-455.31"/>
<polygon fill="black" stroke="black" points="1760.39,-451.85 1750.12,-454.47 1759.78,-458.82 1760.39,-451.85"/>
</g>
<!-- object&#45;&gt;error -->
<g id="edge82" class="edge">
<title>object&#45;&gt;error</title>
<path fill="none" stroke="black" d="M2550.83,-515.61C2611.57,-503.31 2737.99,-467.14 2737.99,-379 2737.99,-379 2737.99,-379 2737.99,-305 2737.99,-243.82 2688.58,-241.53 2632.99,-216 2420.61,-118.46 1663.6,-95.87 1480.21,-91.78"/>
<polygon fill="black" stroke="black" points="1480.56,-88.29 1470.49,-91.57 1480.41,-95.29 1480.56,-88.29"/>
</g>
<!-- object&#45;&gt;features -->
<g id="edge83" class="edge">
<title>object&#45;&gt;features</title>
<path fill="none" stroke="black" d="M2548.07,-512.94C2599.24,-496.78 2699.99,-455.29 2699.99,-379 2699.99,-379 2699.99,-379 2699.99,-305 2699.99,-198.97 2322.73,-171.45 2183.13,-164.89"/>
<polygon fill="black" stroke="black" points="2183.59,-161.41 2173.44,-164.46 2183.27,-168.41 2183.59,-161.41"/>
</g>
<!-- object&#45;&gt;guid -->
<g id="edge86" class="edge">
<title>object&#45;&gt;guid</title>
<path fill="none" stroke="black" d="M2486.19,-517.44C2433.37,-510.97 2333.2,-495.33 2311.99,-468 2302.18,-455.36 2301.64,-444.2 2311.99,-432 2375.21,-357.43 2465.77,-470.57 2528.99,-396 2539.34,-383.8 2538.01,-373.22 2528.99,-360 2504.24,-323.73 2477.72,-340.41 2436.99,-324 2434.36,-322.94 2431.65,-321.84 2428.92,-320.72"/>
<polygon fill="black" stroke="black" points="2430.49,-317.58 2419.91,-317.01 2427.83,-324.06 2430.49,-317.58"/>
</g>
<!-- object&#45;&gt;hash -->
<g id="edge85" class="edge">
<title>object&#45;&gt;hash</title>
<path fill="none" stroke="black" d="M2485.91,-518.39C2453.57,-513.88 2405.94,-501.58 2382.99,-468 2373.96,-454.79 2372.97,-444.47 2382.99,-432 2429.45,-374.16 2499.53,-453.84 2545.99,-396 2556.01,-383.53 2553.71,-374.01 2545.99,-360 2517.06,-307.52 2487.49,-310.61 2431.99,-288 2361.4,-259.24 2272.87,-245.14 2222.94,-239.02"/>
<polygon fill="black" stroke="black" points="2223.55,-235.57 2213.21,-237.88 2222.74,-242.52 2223.55,-235.57"/>
</g>
<!-- object&#45;&gt;from_bcs -->
<g id="edge87" class="edge">
<title>object&#45;&gt;from_bcs</title>
<path fill="none" stroke="black" d="M2485.41,-520.68C2249.81,-518.34 851.81,-503.02 769.99,-468 686.2,-432.14 659.16,-408.08 623.99,-324 615.75,-304.29 621.03,-280.44 627.82,-262.4"/>
<polygon fill="black" stroke="black" points="630.95,-263.98 631.54,-253.4 624.48,-261.3 630.95,-263.98"/>
</g>
<!-- object&#45;&gt;create_signer -->
<g id="edge89" class="edge">
<title>object&#45;&gt;create_signer</title>
<path fill="none" stroke="black" d="M2485.63,-518.82C2424.92,-514.07 2300.22,-500.51 2273.99,-468 2263.94,-455.55 2266.97,-446.38 2273.99,-432 2280.25,-419.18 2291.28,-408.56 2302.65,-400.28"/>
<polygon fill="black" stroke="black" points="2304.58,-403.2 2310.93,-394.72 2300.68,-397.39 2304.58,-403.2"/>
</g>
<!-- transaction_context -->
<g id="node37" class="node">
<title>transaction_context</title>
<ellipse fill="none" stroke="black" cx="2474.99" cy="-450" rx="83.08" ry="18"/>
<text text-anchor="middle" x="2474.99" y="-444.95" font-family="Times,serif" font-size="14.00">transaction_context</text>
</g>
<!-- object&#45;&gt;transaction_context -->
<g id="edge91" class="edge">
<title>object&#45;&gt;transaction_context</title>
<path fill="none" stroke="black" d="M2508.56,-504.41C2503.54,-496.42 2497.39,-486.64 2491.74,-477.64"/>
<polygon fill="black" stroke="black" points="2494.74,-475.84 2486.45,-469.24 2488.81,-479.57 2494.74,-475.84"/>
</g>
<!-- code&#45;&gt;vector -->
<g id="edge92" class="edge">
<title>code&#45;&gt;vector</title>
<path fill="none" stroke="black" d="M2586.71,-592.89C2670.08,-592.02 2910.03,-585.53 2970.99,-540 3033.65,-493.2 3041.99,-457.2 3041.99,-379 3041.99,-379 3041.99,-379 3041.99,-161 3041.99,-65.73 2939.81,-93.44 2846.99,-72 2645.47,-25.46 1123.33,-19.75 838.75,-19.08"/>
<polygon fill="black" stroke="black" points="838.78,-15.58 828.77,-19.06 838.76,-22.58 838.78,-15.58"/>
</g>
<!-- code&#45;&gt;option -->
<g id="edge93" class="edge">
<title>code&#45;&gt;option</title>
<path fill="none" stroke="black" d="M2529.39,-593.58C2428.4,-595.07 2079.51,-595.62 1798.99,-540 1600.47,-500.64 1543.34,-495.3 1366.99,-396 1259.29,-335.35 1249.49,-295.67 1154.99,-216 1135.93,-199.93 1130.01,-197.22 1111.99,-180 1096.3,-165 1098.29,-153.93 1078.99,-144 1012.25,-109.65 789.24,-96.72 691.99,-92.63"/>
<polygon fill="black" stroke="black" points="692.14,-89.13 682.01,-92.23 691.86,-96.13 692.14,-89.13"/>
</g>
<!-- code&#45;&gt;string -->
<g id="edge94" class="edge">
<title>code&#45;&gt;string</title>
<path fill="none" stroke="black" d="M2529.22,-593.24C2288.93,-595.04 620.2,-602.59 448.99,-468 364.67,-401.72 377.67,-253.89 387.59,-191.58"/>
<polygon fill="black" stroke="black" points="391.03,-192.24 389.25,-181.79 384.12,-191.07 391.03,-192.24"/>
</g>
<!-- code&#45;&gt;signer -->
<g id="edge95" class="edge">
<title>code&#45;&gt;signer</title>
<path fill="none" stroke="black" d="M2586.65,-593.2C2667.46,-593.14 2894.65,-588.56 2946.99,-540 2976.64,-512.49 2965.99,-491.45 2965.99,-451 2965.99,-451 2965.99,-451 2965.99,-377 2965.99,-264.31 2943.8,-225.52 2865.99,-144 2850.99,-128.28 2830.32,-115.67 2812.57,-106.7"/>
<polygon fill="black" stroke="black" points="2814.13,-103.57 2803.61,-102.37 2811.09,-109.87 2814.13,-103.57"/>
</g>
<!-- code&#45;&gt;event -->
<g id="edge99" class="edge">
<title>code&#45;&gt;event</title>
<path fill="none" stroke="black" d="M2567.03,-576.64C2582.62,-546.01 2610.38,-478.89 2582.99,-432 2570.97,-411.43 2547.71,-398.22 2527.33,-390.13"/>
<polygon fill="black" stroke="black" points="2528.72,-386.91 2518.12,-386.77 2526.32,-393.49 2528.72,-386.91"/>
</g>
<!-- code&#45;&gt;object -->
<g id="edge101" class="edge">
<title>code&#45;&gt;object</title>
<path fill="none" stroke="black" d="M2548.94,-576.76C2544.43,-568.67 2538.86,-558.66 2533.75,-549.49"/>
<polygon fill="black" stroke="black" points="2536.92,-547.99 2528.99,-540.96 2530.8,-551.39 2536.92,-547.99"/>
</g>
<!-- code&#45;&gt;error -->
<g id="edge96" class="edge">
<title>code&#45;&gt;error</title>
<path fill="none" stroke="black" d="M2586.77,-593.3C2637.79,-592.59 2745.88,-585.32 2821.99,-540 2869.17,-511.91 2892.44,-485.91 2881.99,-432 2867.89,-359.26 2852.66,-338.01 2797.99,-288 2666.56,-167.78 2599.78,-172.73 2423.99,-144 2237.65,-113.55 1641.12,-96.21 1480.27,-92.01"/>
<polygon fill="black" stroke="black" points="1480.63,-88.52 1470.54,-91.76 1480.45,-95.51 1480.63,-88.52"/>
</g>
<!-- code&#45;&gt;features -->
<g id="edge97" class="edge">
<title>code&#45;&gt;features</title>
<path fill="none" stroke="black" d="M2586.5,-591.42C2649.8,-586.18 2801.52,-563.73 2865.99,-468 2874.93,-454.73 2872.31,-446.7 2865.99,-432 2810.19,-302.28 2762.15,-273.07 2632.99,-216 2553.31,-180.79 2294.28,-168.29 2183.27,-164.47"/>
<polygon fill="black" stroke="black" points="2183.67,-160.98 2173.56,-164.15 2183.44,-167.98 2183.67,-160.98"/>
</g>
<!-- code&#45;&gt;system_addresses -->
<g id="edge98" class="edge">
<title>code&#45;&gt;system_addresses</title>
<path fill="none" stroke="black" d="M2530.23,-589.17C2474.88,-579.87 2351.66,-550.45 2299.99,-468 2248.56,-385.94 2407.52,-400.78 2410.99,-396 2420.4,-383.06 2421.37,-372.17 2410.99,-360 2380.19,-323.89 2254.55,-312.27 2166.99,-308.6"/>
<polygon fill="black" stroke="black" points="2167.35,-305.11 2157.22,-308.22 2167.07,-312.1 2167.35,-305.11"/>
</g>
<!-- util -->
<g id="node38" class="node">
<title>util</title>
<ellipse fill="none" stroke="black" cx="2910.99" cy="-522" rx="27" ry="18"/>
<text text-anchor="middle" x="2910.99" y="-516.95" font-family="Times,serif" font-size="14.00">util</text>
</g>
<!-- code&#45;&gt;util -->
<g id="edge100" class="edge">
<title>code&#45;&gt;util</title>
<path fill="none" stroke="black" d="M2586,-590.37C2641.21,-584.74 2767.57,-569.52 2869.99,-540 2872.78,-539.2 2875.63,-538.26 2878.47,-537.25"/>
<polygon fill="black" stroke="black" points="2879.71,-540.52 2887.77,-533.65 2877.19,-534 2879.71,-540.52"/>
</g>
<!-- copyable_any -->
<g id="node39" class="node">
<title>copyable_any</title>
<ellipse fill="none" stroke="black" cx="1437.99" cy="-306" rx="62.1" ry="18"/>
<text text-anchor="middle" x="1437.99" y="-300.95" font-family="Times,serif" font-size="14.00">copyable_any</text>
</g>
<!-- code&#45;&gt;copyable_any -->
<g id="edge102" class="edge">
<title>code&#45;&gt;copyable_any</title>
<path fill="none" stroke="black" d="M2529.83,-590.91C2396.18,-580.73 1825.5,-534.07 1660.99,-468 1580.25,-435.57 1501.47,-367.74 1462.76,-331.33"/>
<polygon fill="black" stroke="black" points="1465.44,-329.04 1455.78,-324.68 1460.61,-334.11 1465.44,-329.04"/>
</g>
<!-- string_utils&#45;&gt;string -->
<g id="edge103" class="edge">
<title>string_utils&#45;&gt;string</title>
<path fill="none" stroke="black" d="M74.49,-647.99C62.22,-621.82 40.99,-569.79 40.99,-523 40.99,-523 40.99,-523 40.99,-305 40.99,-245.5 87.87,-242.8 140.99,-216 208.75,-181.81 297.47,-169.66 349.55,-165.35"/>
<polygon fill="black" stroke="black" points="349.81,-168.84 359.51,-164.6 349.28,-161.86 349.81,-168.84"/>
</g>
<!-- features&#45;&gt;signer -->
<g id="edge104" class="edge">
<title>features&#45;&gt;signer</title>
<path fill="none" stroke="black" d="M2170.82,-156.78C2283.99,-144.48 2612.98,-108.72 2732.2,-95.76"/>
<polygon fill="black" stroke="black" points="2732.32,-99.27 2741.89,-94.71 2731.57,-92.31 2732.32,-99.27"/>
</g>
<!-- features&#45;&gt;error -->
<g id="edge105" class="edge">
<title>features&#45;&gt;error</title>
<path fill="none" stroke="black" d="M2102.53,-149.44C2096.17,-147.32 2089.42,-145.36 2082.99,-144 1858.97,-96.7 1582.75,-91.14 1480.52,-90.83"/>
<polygon fill="black" stroke="black" points="1480.72,-87.33 1470.72,-90.81 1480.71,-94.33 1480.72,-87.33"/>
</g>
<!-- system_addresses&#45;&gt;signer -->
<g id="edge106" class="edge">
<title>system_addresses&#45;&gt;signer</title>
<path fill="none" stroke="black" d="M2120.6,-290.45C2205.14,-261.11 2403.28,-193.41 2571.99,-144 2628,-127.59 2693.41,-111.06 2734.76,-100.92"/>
<polygon fill="black" stroke="black" points="2735.4,-104.37 2744.29,-98.6 2733.74,-97.57 2735.4,-104.37"/>
</g>
<!-- system_addresses&#45;&gt;error -->
<g id="edge107" class="edge">
<title>system_addresses&#45;&gt;error</title>
<path fill="none" stroke="black" d="M2010.58,-297.38C1947.94,-289.14 1861.12,-274.14 1834.99,-252 1795.57,-218.6 1832.46,-176.11 1791.99,-144 1744.4,-106.25 1562.34,-95.22 1480.38,-92.14"/>
<polygon fill="black" stroke="black" points="1480.68,-88.65 1470.56,-91.79 1480.43,-95.64 1480.68,-88.65"/>
</g>
<!-- ed25519&#45;&gt;option -->
<g id="edge108" class="edge">
<title>ed25519&#45;&gt;option</title>
<path fill="none" stroke="black" d="M1768.95,-289.89C1741.39,-269.86 1689.55,-234.87 1639.99,-216 1480.98,-155.45 1432.53,-167.3 1263.99,-144 1051.08,-114.57 794.49,-98.81 691.76,-93.3"/>
<polygon fill="black" stroke="black" points="691.98,-89.8 681.81,-92.77 691.61,-96.79 691.98,-89.8"/>
</g>
<!-- ed25519&#45;&gt;bcs -->
<g id="edge110" class="edge">
<title>ed25519&#45;&gt;bcs</title>
<path fill="none" stroke="black" d="M1827.3,-297.63C1893.01,-284.82 2020.89,-259.16 2027.99,-252 2043.56,-236.3 2047.79,-211.17 2048.42,-191.61"/>
<polygon fill="black" stroke="black" points="2051.92,-191.8 2048.41,-181.8 2044.92,-191.8 2051.92,-191.8"/>
</g>
<!-- ed25519&#45;&gt;type_info -->
<g id="edge111" class="edge">
<title>ed25519&#45;&gt;type_info</title>
<path fill="none" stroke="black" d="M1754.78,-294.9C1713.81,-282.79 1644.95,-262.46 1599,-248.89"/>
<polygon fill="black" stroke="black" points="1600.16,-245.58 1589.58,-246.1 1598.18,-252.29 1600.16,-245.58"/>
</g>
<!-- ed25519&#45;&gt;error -->
<g id="edge109" class="edge">
<title>ed25519&#45;&gt;error</title>
<path fill="none" stroke="black" d="M1780.79,-287.86C1775.86,-277.5 1769.5,-264.02 1763.99,-252 1742.12,-204.24 1757.12,-176.67 1715.99,-144 1680.03,-115.45 1547.78,-100.23 1480.25,-94.18"/>
<polygon fill="black" stroke="black" points="1480.59,-90.69 1470.33,-93.31 1479.99,-97.67 1480.59,-90.69"/>
</g>
<!-- ed25519&#45;&gt;hash -->
<g id="edge112" class="edge">
<title>ed25519&#45;&gt;hash</title>
<path fill="none" stroke="black" d="M1827.95,-298.1C1903.88,-284.64 2070.81,-255.06 2145.98,-241.74"/>
<polygon fill="black" stroke="black" points="2146.5,-245.2 2155.74,-240.01 2145.28,-238.31 2146.5,-245.2"/>
</g>
<!-- multi_ed25519&#45;&gt;option -->
<g id="edge113" class="edge">
<title>multi_ed25519&#45;&gt;option</title>
<path fill="none" stroke="black" d="M1767.77,-360.64C1738.18,-337.51 1683.29,-293.44 1639.99,-252 1624.31,-236.99 1626.37,-225.77 1606.99,-216 1470.1,-147.03 1415.1,-205.72 1263.99,-180 1195.55,-168.35 1180.38,-155.94 1111.99,-144 958.93,-117.27 775.14,-100.94 691.47,-94.36"/>
<polygon fill="black" stroke="black" points="691.85,-90.88 681.61,-93.59 691.31,-97.86 691.85,-90.88"/>
</g>
<!-- multi_ed25519&#45;&gt;bcs -->
<g id="edge116" class="edge">
<title>multi_ed25519&#45;&gt;bcs</title>
<path fill="none" stroke="black" d="M1815.79,-361.1C1832.71,-350.86 1854.91,-337.07 1873.99,-324 1895.99,-308.93 1898.08,-299.81 1921.99,-288 1974.97,-261.83 2014.31,-299.11 2049.99,-252 2062.98,-234.86 2060.96,-210.06 2056.42,-190.99"/>
<polygon fill="black" stroke="black" points="2059.81,-190.14 2053.77,-181.44 2053.07,-192.01 2059.81,-190.14"/>
</g>
<!-- multi_ed25519&#45;&gt;error -->
<g id="edge114" class="edge">
<title>multi_ed25519&#45;&gt;error</title>
<path fill="none" stroke="black" d="M1811.93,-360.6C1822.95,-351.28 1835.04,-338.56 1840.99,-324 1847.04,-309.19 1846.44,-303.04 1840.99,-288 1833.9,-268.42 1823.23,-268.85 1810.99,-252 1777.65,-206.11 1790.09,-175.61 1742.99,-144 1700.56,-115.53 1552.28,-100.01 1480.09,-93.99"/>
<polygon fill="black" stroke="black" points="1480.53,-90.51 1470.28,-93.19 1479.96,-97.49 1480.53,-90.51"/>
</g>
<!-- multi_ed25519&#45;&gt;features -->
<g id="edge115" class="edge">
<title>multi_ed25519&#45;&gt;features</title>
<path fill="none" stroke="black" d="M1830.14,-363.42C1854.94,-354.25 1886.55,-340.76 1911.99,-324 1931.42,-311.2 1929.88,-299.71 1949.99,-288 1997.37,-260.41 2023.42,-283.94 2067.99,-252 2090.28,-236.03 2107.76,-209.84 2118.77,-189.99"/>
<polygon fill="black" stroke="black" points="2121.77,-191.81 2123.37,-181.34 2115.59,-188.53 2121.77,-191.81"/>
</g>
<!-- multi_ed25519&#45;&gt;hash -->
<g id="edge117" class="edge">
<title>multi_ed25519&#45;&gt;hash</title>
<path fill="none" stroke="black" d="M1839.26,-365.71C1872.08,-357.09 1915.14,-343.38 1949.99,-324 1971.77,-311.89 1970.73,-299.22 1992.99,-288 2053.82,-257.33 2077.13,-272.84 2141.99,-252 2144.91,-251.06 2147.91,-250.02 2150.91,-248.92"/>
<polygon fill="black" stroke="black" points="2152.07,-252.22 2160.13,-245.34 2149.55,-245.69 2152.07,-252.22"/>
</g>
<!-- multi_ed25519&#45;&gt;ed25519 -->
<g id="edge118" class="edge">
<title>multi_ed25519&#45;&gt;ed25519</title>
<path fill="none" stroke="black" d="M1788.99,-359.7C1788.99,-352.41 1788.99,-343.73 1788.99,-335.54"/>
<polygon fill="black" stroke="black" points="1792.49,-335.62 1788.99,-325.62 1785.49,-335.62 1792.49,-335.62"/>
</g>
<!-- from_bcs&#45;&gt;string -->
<g id="edge119" class="edge">
<title>from_bcs&#45;&gt;string</title>
<path fill="none" stroke="black" d="M604.4,-222.67C558.34,-209.67 479.56,-187.43 432.27,-174.09"/>
<polygon fill="black" stroke="black" points="433.28,-170.74 422.71,-171.39 431.38,-177.47 433.28,-170.74"/>
</g>
<!-- chain_id&#45;&gt;system_addresses -->
<g id="edge120" class="edge">
<title>chain_id&#45;&gt;system_addresses</title>
<path fill="none" stroke="black" d="M2012.08,-361.46C2023.15,-352.45 2037.32,-340.92 2049.76,-330.79"/>
<polygon fill="black" stroke="black" points="2051.74,-333.7 2057.28,-324.67 2047.32,-328.27 2051.74,-333.7"/>
</g>
<!-- aggregator_factory&#45;&gt;table -->
<g id="edge122" class="edge">
<title>aggregator_factory&#45;&gt;table</title>
<path fill="none" stroke="black" d="M937.53,-361.54C892.65,-342.39 812.67,-309.65 741.99,-288 673.96,-267.16 630.29,-307.68 585.99,-252 572.17,-234.63 577.7,-209.12 585.36,-189.86"/>
<polygon fill="black" stroke="black" points="588.55,-191.3 589.37,-180.74 582.14,-188.48 588.55,-191.3"/>
</g>
<!-- aggregator_factory&#45;&gt;error -->
<g id="edge121" class="edge">
<title>aggregator_factory&#45;&gt;error</title>
<path fill="none" stroke="black" d="M1027.09,-364.23C1059.26,-355.42 1100.25,-342.04 1133.99,-324 1179.78,-299.52 1189.12,-288.56 1225.99,-252 1269.56,-208.8 1262.97,-180.91 1311.99,-144 1339.22,-123.49 1375.54,-109.44 1402.54,-100.99"/>
<polygon fill="black" stroke="black" points="1403.46,-104.37 1412.03,-98.14 1401.45,-97.66 1403.46,-104.37"/>
</g>
<!-- aggregator_factory&#45;&gt;system_addresses -->
<g id="edge123" class="edge">
<title>aggregator_factory&#45;&gt;system_addresses</title>
<path fill="none" stroke="black" d="M1050.81,-372.52C1202.75,-363.71 1549.49,-343.31 1840.99,-324 1892.15,-320.61 1949.46,-316.53 1995.03,-313.21"/>
<polygon fill="black" stroke="black" points="1995.12,-316.71 2004.84,-312.49 1994.61,-309.73 1995.12,-316.71"/>
</g>
<!-- aggregator_factory&#45;&gt;aggregator -->
<g id="edge124" class="edge">
<title>aggregator_factory&#45;&gt;aggregator</title>
<path fill="none" stroke="black" d="M917.62,-364.49C871.8,-354.02 805.05,-338.52 746.99,-324 742.47,-322.87 737.78,-321.67 733.09,-320.46"/>
<polygon fill="black" stroke="black" points="734.23,-317.14 723.67,-317.99 732.46,-323.91 734.23,-317.14"/>
</g>
<!-- optional_aggregator&#45;&gt;option -->
<g id="edge125" class="edge">
<title>optional_aggregator&#45;&gt;option</title>
<path fill="none" stroke="black" d="M815.41,-434.77C744.16,-410.77 615.22,-354.53 572.99,-252 554.6,-207.34 537.56,-186.23 560.99,-144 571.01,-125.95 590.01,-113.24 607.51,-104.81"/>
<polygon fill="black" stroke="black" points="608.47,-108.21 616.18,-100.94 605.62,-101.82 608.47,-108.21"/>
</g>
<!-- optional_aggregator&#45;&gt;error -->
<g id="edge126" class="edge">
<title>optional_aggregator&#45;&gt;error</title>
<path fill="none" stroke="black" d="M862.39,-431.54C861.58,-411.32 863.67,-378.44 882.99,-360 954.03,-292.2 1014.63,-370.76 1100.99,-324 1120.08,-313.67 1118.3,-303 1133.99,-288 1152.01,-270.78 1159.15,-269.41 1176.99,-252 1222.74,-207.35 1218.43,-178.9 1271.99,-144 1311.76,-118.09 1365.06,-104.11 1400.86,-97.13"/>
<polygon fill="black" stroke="black" points="1401.15,-100.63 1410.34,-95.37 1399.87,-93.75 1401.15,-100.63"/>
</g>
<!-- optional_aggregator&#45;&gt;aggregator -->
<g id="edge127" class="edge">
<title>optional_aggregator&#45;&gt;aggregator</title>
<path fill="none" stroke="black" d="M842.52,-432.15C810.06,-406.69 748.43,-358.34 712.01,-329.77"/>
<polygon fill="black" stroke="black" points="714.54,-327.31 704.52,-323.89 710.22,-332.81 714.54,-327.31"/>
</g>
<!-- optional_aggregator&#45;&gt;aggregator_factory -->
<g id="edge128" class="edge">
<title>optional_aggregator&#45;&gt;aggregator_factory</title>
<path fill="none" stroke="black" d="M889.82,-432.41C904.21,-423.17 922.33,-411.54 937.97,-401.49"/>
<polygon fill="black" stroke="black" points="939.55,-404.64 946.07,-396.29 935.76,-398.75 939.55,-404.64"/>
</g>
<!-- simple_map&#45;&gt;vector -->
<g id="edge129" class="edge">
<title>simple_map&#45;&gt;vector</title>
<path fill="none" stroke="black" d="M792.99,-143.59C792.99,-119.61 792.99,-76.14 792.99,-47.42"/>
<polygon fill="black" stroke="black" points="796.49,-47.62 792.99,-37.62 789.49,-47.62 796.49,-47.62"/>
</g>
<!-- simple_map&#45;&gt;option -->
<g id="edge130" class="edge">
<title>simple_map&#45;&gt;option</title>
<path fill="none" stroke="black" d="M762.53,-146.5C738.69,-135.14 705.52,-119.35 680.66,-107.51"/>
<polygon fill="black" stroke="black" points="682.47,-104.49 671.94,-103.35 679.46,-110.81 682.47,-104.49"/>
</g>
<!-- simple_map&#45;&gt;error -->
<g id="edge131" class="edge">
<title>simple_map&#45;&gt;error</title>
<path fill="none" stroke="black" d="M835.59,-149.75C844.9,-147.59 854.74,-145.53 863.99,-144 1063.53,-111.1 1305.58,-97.17 1399.78,-92.72"/>
<polygon fill="black" stroke="black" points="1399.7,-96.22 1409.52,-92.27 1399.37,-89.23 1399.7,-96.22"/>
</g>
<!-- math64&#45;&gt;error -->
<g id="edge132" class="edge">
<title>math64&#45;&gt;error</title>
<path fill="none" stroke="black" d="M1112.3,-215.91C1119.61,-195.42 1134.79,-161.63 1159.99,-144 1198.31,-117.19 1332.75,-101.07 1400.43,-94.48"/>
<polygon fill="black" stroke="black" points="1400.35,-98 1409.97,-93.57 1399.68,-91.03 1400.35,-98"/>
</g>
<!-- fixed_point32 -->
<g id="node40" class="node">
<title>fixed_point32</title>
<ellipse fill="none" stroke="black" cx="1006.99" cy="-162" rx="62.61" ry="18"/>
<text text-anchor="middle" x="1006.99" y="-156.95" font-family="Times,serif" font-size="14.00">fixed_point32</text>
</g>
<!-- math64&#45;&gt;fixed_point32 -->
<g id="edge133" class="edge">
<title>math64&#45;&gt;fixed_point32</title>
<path fill="none" stroke="black" d="M1086.27,-218.5C1072.72,-209.01 1054.74,-196.43 1039.33,-185.64"/>
<polygon fill="black" stroke="black" points="1041.57,-182.93 1031.37,-180.07 1037.56,-188.67 1041.57,-182.93"/>
</g>
<!-- table_with_length&#45;&gt;table -->
<g id="edge135" class="edge">
<title>table_with_length&#45;&gt;table</title>
<path fill="none" stroke="black" d="M913.3,-221.99C836.08,-207.49 702.52,-182.43 637.2,-170.17"/>
<polygon fill="black" stroke="black" points="638.16,-166.79 627.69,-168.39 636.87,-173.67 638.16,-166.79"/>
</g>
<!-- table_with_length&#45;&gt;error -->
<g id="edge134" class="edge">
<title>table_with_length&#45;&gt;error</title>
<path fill="none" stroke="black" d="M955.21,-216.09C937.99,-196.69 916.18,-164.89 934.99,-144 965.93,-109.64 1285.41,-96 1399.65,-92.2"/>
<polygon fill="black" stroke="black" points="1399.59,-95.7 1409.47,-91.88 1399.36,-88.7 1399.59,-95.7"/>
</g>
<!-- aptos_hash&#45;&gt;bcs -->
<g id="edge138" class="edge">
<title>aptos_hash&#45;&gt;bcs</title>
<path fill="none" stroke="black" d="M1926.18,-219C1951.9,-207.08 1988.75,-190 2014.98,-177.84"/>
<polygon fill="black" stroke="black" points="2016.18,-181.14 2023.78,-173.76 2013.24,-174.79 2016.18,-181.14"/>
</g>
<!-- aptos_hash&#45;&gt;error -->
<g id="edge136" class="edge">
<title>aptos_hash&#45;&gt;error</title>
<path fill="none" stroke="black" d="M1888.53,-215.98C1878.47,-195.23 1858.47,-160.84 1829.99,-144 1771.36,-109.34 1567.57,-96.52 1480.23,-92.55"/>
<polygon fill="black" stroke="black" points="1480.61,-89.06 1470.47,-92.12 1480.3,-96.05 1480.61,-89.06"/>
</g>
<!-- aptos_hash&#45;&gt;features -->
<g id="edge137" class="edge">
<title>aptos_hash&#45;&gt;features</title>
<path fill="none" stroke="black" d="M1936.32,-222.29C1974.32,-212.03 2032.78,-195.81 2082.99,-180 2085.4,-179.24 2087.87,-178.45 2090.35,-177.63"/>
<polygon fill="black" stroke="black" points="2091.44,-180.96 2099.8,-174.46 2089.21,-174.32 2091.44,-180.96"/>
</g>
<!-- copyable_any&#45;&gt;string -->
<g id="edge139" class="edge">
<title>copyable_any&#45;&gt;string</title>
<path fill="none" stroke="black" d="M1377.74,-301.03C1276.04,-293.92 1063.99,-277.35 885.99,-252 800.9,-239.88 780.54,-231.4 695.99,-216 602.6,-198.99 492.82,-180.05 434.43,-170.06"/>
<polygon fill="black" stroke="black" points="435.06,-166.62 424.61,-168.38 433.88,-173.52 435.06,-166.62"/>
</g>
<!-- copyable_any&#45;&gt;bcs -->
<g id="edge141" class="edge">
<title>copyable_any&#45;&gt;bcs</title>
<path fill="none" stroke="black" d="M1498.14,-301.11C1625.96,-292.53 1916.29,-271.2 1956.99,-252 1973.2,-244.35 2005.31,-210.3 2026.46,-186.61"/>
<polygon fill="black" stroke="black" points="2028.97,-189.06 2032.97,-179.25 2023.73,-184.42 2028.97,-189.06"/>
</g>
<!-- copyable_any&#45;&gt;type_info -->
<g id="edge142" class="edge">
<title>copyable_any&#45;&gt;type_info</title>
<path fill="none" stroke="black" d="M1463.57,-289.29C1479.86,-279.29 1501.12,-266.24 1518.71,-255.44"/>
<polygon fill="black" stroke="black" points="1520.07,-258.71 1526.76,-250.49 1516.41,-252.74 1520.07,-258.71"/>
</g>
<!-- copyable_any&#45;&gt;error -->
<g id="edge140" class="edge">
<title>copyable_any&#45;&gt;error</title>
<path fill="none" stroke="black" d="M1444.64,-287.63C1448.19,-277.42 1452.19,-264.17 1453.99,-252 1461,-204.51 1460.17,-191.6 1453.99,-144 1452.92,-135.76 1450.95,-126.97 1448.82,-118.97"/>
<polygon fill="black" stroke="black" points="1452.2,-118.07 1446.08,-109.42 1445.47,-119.99 1452.2,-118.07"/>
</g>
<!-- copyable_any&#45;&gt;from_bcs -->
<g id="edge143" class="edge">
<title>copyable_any&#45;&gt;from_bcs</title>
<path fill="none" stroke="black" d="M1379.06,-299.82C1230.57,-286.78 842.56,-252.7 697.12,-239.93"/>
<polygon fill="black" stroke="black" points="697.63,-236.46 687.36,-239.07 697.02,-243.43 697.63,-236.46"/>
</g>
</g>
</svg>
