<?xml version="1.0" encoding="UTF-8" standalone="no"?>
<!DOCTYPE svg PUBLIC "-//W3C//DTD SVG 1.1//EN"
 "http://www.w3.org/Graphics/SVG/1.1/DTD/svg11.dtd">
<!-- Generated by graphviz version 11.0.0 (20240428.1522)
 -->
<!-- Title: G Pages: 1 -->
<svg width="3401pt" height="764pt"
 viewBox="0.00 0.00 3401.00 764.00" xmlns="http://www.w3.org/2000/svg" xmlns:xlink="http://www.w3.org/1999/xlink">
<g id="graph0" class="graph" transform="scale(1 1) rotate(0) translate(4 760)">
<title>G</title>
<polygon fill="white" stroke="none" points="-4,4 -4,-760 3397,-760 3397,4 -4,4"/>
<!-- emojicoin_dot_fun -->
<g id="node1" class="node">
<title>emojicoin_dot_fun</title>
<ellipse fill="none" stroke="black" cx="2112" cy="-738" rx="81.55" ry="18"/>
<text text-anchor="middle" x="2112" y="-732.95" font-family="Times,serif" font-size="14.00">emojicoin_dot_fun</text>
</g>
<!-- vector -->
<g id="node2" class="node">
<title>vector</title>
<ellipse fill="none" stroke="black" cx="2901" cy="-18" rx="33.95" ry="18"/>
<text text-anchor="middle" x="2901" y="-12.95" font-family="Times,serif" font-size="14.00">vector</text>
</g>
<!-- emojicoin_dot_fun&#45;&gt;vector -->
<g id="edge1" class="edge">
<title>emojicoin_dot_fun&#45;&gt;vector</title>
<path fill="none" stroke="black" d="M2193.59,-736.56C2475.75,-733.95 3393,-716.18 3393,-595 3393,-595 3393,-595 3393,-161 3393,-68.51 3067.98,-32.56 2946.28,-22.34"/>
<polygon fill="black" stroke="black" points="2946.58,-18.86 2936.33,-21.53 2946.01,-25.83 2946.58,-18.86"/>
</g>
<!-- option -->
<g id="node3" class="node">
<title>option</title>
<ellipse fill="none" stroke="black" cx="750" cy="-90" rx="34.46" ry="18"/>
<text text-anchor="middle" x="750" y="-84.95" font-family="Times,serif" font-size="14.00">option</text>
</g>
<!-- emojicoin_dot_fun&#45;&gt;option -->
<g id="edge2" class="edge">
<title>emojicoin_dot_fun&#45;&gt;option</title>
<path fill="none" stroke="black" d="M2030.28,-736.54C1663.18,-734.24 180.52,-722.59 90,-684 38.25,-661.94 0,-651.26 0,-595 0,-595 0,-595 0,-377 0,-257.32 33.97,-208.16 135,-144 182.69,-113.71 569.15,-97.36 703.88,-92.54"/>
<polygon fill="black" stroke="black" points="703.99,-96.03 713.86,-92.18 703.74,-89.04 703.99,-96.03"/>
</g>
<!-- string -->
<g id="node4" class="node">
<title>string</title>
<ellipse fill="none" stroke="black" cx="2477" cy="-162" rx="31.9" ry="18"/>
<text text-anchor="middle" x="2477" y="-156.95" font-family="Times,serif" font-size="14.00">string</text>
</g>
<!-- emojicoin_dot_fun&#45;&gt;string -->
<g id="edge3" class="edge">
<title>emojicoin_dot_fun&#45;&gt;string</title>
<path fill="none" stroke="black" d="M2193.82,-737.07C2372.8,-736.35 2786.53,-729.73 2829,-684 2991.27,-509.29 2620.36,-253.42 2508,-182.08"/>
<polygon fill="black" stroke="black" points="2509.87,-179.12 2499.54,-176.75 2506.14,-185.04 2509.87,-179.12"/>
</g>
<!-- signer -->
<g id="node5" class="node">
<title>signer</title>
<ellipse fill="none" stroke="black" cx="898" cy="-90" rx="33.44" ry="18"/>
<text text-anchor="middle" x="898" y="-84.95" font-family="Times,serif" font-size="14.00">signer</text>
</g>
<!-- emojicoin_dot_fun&#45;&gt;signer -->
<g id="edge4" class="edge">
<title>emojicoin_dot_fun&#45;&gt;signer</title>
<path fill="none" stroke="black" d="M2030.62,-736.05C1702.66,-732.01 487.43,-715.07 318,-684 205.28,-663.33 76,-709.6 76,-595 76,-595 76,-595 76,-449 76,-362.62 217.2,-220.49 394,-144 475.71,-108.65 704.67,-119.12 793,-108 813.48,-105.42 836.1,-101.85 855.08,-98.65"/>
<polygon fill="black" stroke="black" points="855.62,-102.11 864.89,-96.97 854.44,-95.21 855.62,-102.11"/>
</g>
<!-- bcs -->
<g id="node6" class="node">
<title>bcs</title>
<ellipse fill="none" stroke="black" cx="1991" cy="-162" rx="27" ry="18"/>
<text text-anchor="middle" x="1991" y="-156.95" font-family="Times,serif" font-size="14.00">bcs</text>
</g>
<!-- emojicoin_dot_fun&#45;&gt;bcs -->
<g id="edge5" class="edge">
<title>emojicoin_dot_fun&#45;&gt;bcs</title>
<path fill="none" stroke="black" d="M2190.23,-732.62C2339.44,-722.11 2650,-688.94 2650,-595 2650,-595 2650,-595 2650,-521 2650,-431.36 2551.9,-466.11 2469,-432 2434.1,-417.64 2180.54,-341.3 2147,-324 2098.65,-299.06 2085.32,-291.59 2048,-252 2030.24,-233.16 2014.75,-208.05 2004.41,-189.31"/>
<polygon fill="black" stroke="black" points="2007.61,-187.86 1999.8,-180.7 2001.44,-191.17 2007.61,-187.86"/>
</g>
<!-- type_info -->
<g id="node7" class="node">
<title>type_info</title>
<ellipse fill="none" stroke="black" cx="2103" cy="-234" rx="46.23" ry="18"/>
<text text-anchor="middle" x="2103" y="-228.95" font-family="Times,serif" font-size="14.00">type_info</text>
</g>
<!-- emojicoin_dot_fun&#45;&gt;type_info -->
<g id="edge6" class="edge">
<title>emojicoin_dot_fun&#45;&gt;type_info</title>
<path fill="none" stroke="black" d="M2192.2,-734.29C2336.61,-728.69 2628.75,-713.79 2664,-684 2695.29,-657.56 2688,-635.97 2688,-595 2688,-595 2688,-595 2688,-521 2688,-480.03 2692.03,-461.88 2664,-432 2520.04,-278.51 2393.8,-412.76 2203,-324 2171.24,-309.23 2142.22,-281.01 2123.72,-260.29"/>
<polygon fill="black" stroke="black" points="2126.41,-258.05 2117.21,-252.79 2121.13,-262.64 2126.41,-258.05"/>
</g>
<!-- table -->
<g id="node8" class="node">
<title>table</title>
<ellipse fill="none" stroke="black" cx="624" cy="-162" rx="28.83" ry="18"/>
<text text-anchor="middle" x="624" y="-156.95" font-family="Times,serif" font-size="14.00">table</text>
</g>
<!-- emojicoin_dot_fun&#45;&gt;table -->
<g id="edge7" class="edge">
<title>emojicoin_dot_fun&#45;&gt;table</title>
<path fill="none" stroke="black" d="M2030.89,-735.55C1656.55,-728.36 114,-692.78 114,-595 114,-595 114,-595 114,-521 114,-290.68 466.76,-195.84 585.52,-170.44"/>
<polygon fill="black" stroke="black" points="586.02,-173.91 595.1,-168.44 584.59,-167.05 586.02,-173.91"/>
</g>
<!-- event -->
<g id="node9" class="node">
<title>event</title>
<ellipse fill="none" stroke="black" cx="2119" cy="-378" rx="30.88" ry="18"/>
<text text-anchor="middle" x="2119" y="-372.95" font-family="Times,serif" font-size="14.00">event</text>
</g>
<!-- emojicoin_dot_fun&#45;&gt;event -->
<g id="edge8" class="edge">
<title>emojicoin_dot_fun&#45;&gt;event</title>
<path fill="none" stroke="black" d="M2181.54,-728.32C2301.83,-711.36 2536,-668.85 2536,-595 2536,-595 2536,-595 2536,-521 2536,-449.88 2468.86,-458.85 2403,-432 2321.48,-398.77 2218.25,-386.19 2161.39,-381.57"/>
<polygon fill="black" stroke="black" points="2161.73,-378.08 2151.5,-380.81 2161.2,-385.06 2161.73,-378.08"/>
</g>
<!-- account -->
<g id="node10" class="node">
<title>account</title>
<ellipse fill="none" stroke="black" cx="1523" cy="-450" rx="39.58" ry="18"/>
<text text-anchor="middle" x="1523" y="-444.95" font-family="Times,serif" font-size="14.00">account</text>
</g>
<!-- emojicoin_dot_fun&#45;&gt;account -->
<g id="edge9" class="edge">
<title>emojicoin_dot_fun&#45;&gt;account</title>
<path fill="none" stroke="black" d="M2031.2,-734.94C1883.66,-730.38 1582.67,-717.1 1549,-684 1494.02,-629.97 1506.16,-528.36 1516.2,-479.14"/>
<polygon fill="black" stroke="black" points="1519.57,-480.09 1518.28,-469.57 1512.73,-478.6 1519.57,-480.09"/>
</g>
<!-- aggregator_v2 -->
<g id="node11" class="node">
<title>aggregator_v2</title>
<ellipse fill="none" stroke="black" cx="3187" cy="-234" rx="64.15" ry="18"/>
<text text-anchor="middle" x="3187" y="-228.95" font-family="Times,serif" font-size="14.00">aggregator_v2</text>
</g>
<!-- emojicoin_dot_fun&#45;&gt;aggregator_v2 -->
<g id="edge10" class="edge">
<title>emojicoin_dot_fun&#45;&gt;aggregator_v2</title>
<path fill="none" stroke="black" d="M2192.31,-734.31C2363.46,-728.13 2759.26,-711.3 2891,-684 3006.9,-659.98 3142,-713.36 3142,-595 3142,-595 3142,-595 3142,-377 3142,-335.45 3159.73,-290.12 3172.93,-262.12"/>
<polygon fill="black" stroke="black" points="3175.99,-263.82 3177.23,-253.3 3169.7,-260.75 3175.99,-263.82"/>
</g>
<!-- coin -->
<g id="node12" class="node">
<title>coin</title>
<ellipse fill="none" stroke="black" cx="780" cy="-522" rx="27" ry="18"/>
<text text-anchor="middle" x="780" y="-516.95" font-family="Times,serif" font-size="14.00">coin</text>
</g>
<!-- emojicoin_dot_fun&#45;&gt;coin -->
<g id="edge11" class="edge">
<title>emojicoin_dot_fun&#45;&gt;coin</title>
<path fill="none" stroke="black" d="M2030.4,-737.28C1802.76,-737.42 1164.15,-733.28 961,-684 886.4,-665.9 853.58,-670.61 804,-612 789.77,-595.18 783.91,-570.72 781.52,-551.7"/>
<polygon fill="black" stroke="black" points="785.02,-551.51 780.57,-541.9 778.06,-552.19 785.02,-551.51"/>
</g>
<!-- aptos_coin -->
<g id="node13" class="node">
<title>aptos_coin</title>
<ellipse fill="none" stroke="black" cx="864" cy="-594" rx="50.84" ry="18"/>
<text text-anchor="middle" x="864" y="-588.95" font-family="Times,serif" font-size="14.00">aptos_coin</text>
</g>
<!-- emojicoin_dot_fun&#45;&gt;aptos_coin -->
<g id="edge12" class="edge">
<title>emojicoin_dot_fun&#45;&gt;aptos_coin</title>
<path fill="none" stroke="black" d="M2030.32,-736.9C1815.95,-735.99 1241.1,-729.27 1057,-684 998.38,-669.58 935.85,-637.24 898.36,-615.77"/>
<polygon fill="black" stroke="black" points="900.18,-612.79 889.78,-610.79 896.67,-618.84 900.18,-612.79"/>
</g>
<!-- aptos_account -->
<g id="node14" class="node">
<title>aptos_account</title>
<ellipse fill="none" stroke="black" cx="1622" cy="-666" rx="63.63" ry="18"/>
<text text-anchor="middle" x="1622" y="-660.95" font-family="Times,serif" font-size="14.00">aptos_account</text>
</g>
<!-- emojicoin_dot_fun&#45;&gt;aptos_account -->
<g id="edge13" class="edge">
<title>emojicoin_dot_fun&#45;&gt;aptos_account</title>
<path fill="none" stroke="black" d="M2044.9,-727.41C1951.3,-714.04 1782.54,-689.93 1689,-676.57"/>
<polygon fill="black" stroke="black" points="1689.59,-673.12 1679.19,-675.17 1688.6,-680.05 1689.59,-673.12"/>
</g>
<!-- timestamp -->
<g id="node15" class="node">
<title>timestamp</title>
<ellipse fill="none" stroke="black" cx="980" cy="-378" rx="50.33" ry="18"/>
<text text-anchor="middle" x="980" y="-372.95" font-family="Times,serif" font-size="14.00">timestamp</text>
</g>
<!-- emojicoin_dot_fun&#45;&gt;timestamp -->
<g id="edge14" class="edge">
<title>emojicoin_dot_fun&#45;&gt;timestamp</title>
<path fill="none" stroke="black" d="M2031.61,-734.47C1787.44,-725.73 1071,-691.84 1071,-595 1071,-595 1071,-595 1071,-521 1071,-473.18 1033.96,-428.58 1007.14,-402.55"/>
<polygon fill="black" stroke="black" points="1009.65,-400.1 999.96,-395.81 1004.86,-405.21 1009.65,-400.1"/>
</g>
<!-- smart_table -->
<g id="node16" class="node">
<title>smart_table</title>
<ellipse fill="none" stroke="black" cx="2909" cy="-306" rx="54.42" ry="18"/>
<text text-anchor="middle" x="2909" y="-300.95" font-family="Times,serif" font-size="14.00">smart_table</text>
</g>
<!-- emojicoin_dot_fun&#45;&gt;smart_table -->
<g id="edge15" class="edge">
<title>emojicoin_dot_fun&#45;&gt;smart_table</title>
<path fill="none" stroke="black" d="M2193.27,-736.02C2376.23,-733.15 2808.72,-722.33 2862,-684 2896.77,-658.98 2899,-637.84 2899,-595 2899,-595 2899,-595 2899,-449 2899,-409.64 2902.87,-364.3 2905.79,-335.65"/>
<polygon fill="black" stroke="black" points="2909.25,-336.28 2906.82,-325.97 2902.29,-335.54 2909.25,-336.28"/>
</g>
<!-- object -->
<g id="node17" class="node">
<title>object</title>
<ellipse fill="none" stroke="black" cx="2143" cy="-522" rx="33.44" ry="18"/>
<text text-anchor="middle" x="2143" y="-516.95" font-family="Times,serif" font-size="14.00">object</text>
</g>
<!-- emojicoin_dot_fun&#45;&gt;object -->
<g id="edge16" class="edge">
<title>emojicoin_dot_fun&#45;&gt;object</title>
<path fill="none" stroke="black" d="M2114.48,-719.85C2119.8,-683.14 2132.33,-596.66 2138.87,-551.53"/>
<polygon fill="black" stroke="black" points="2142.32,-552.13 2140.29,-541.73 2135.39,-551.13 2142.32,-552.13"/>
</g>
<!-- code -->
<g id="node18" class="node">
<title>code</title>
<ellipse fill="none" stroke="black" cx="2070" cy="-594" rx="28.32" ry="18"/>
<text text-anchor="middle" x="2070" y="-588.95" font-family="Times,serif" font-size="14.00">code</text>
</g>
<!-- emojicoin_dot_fun&#45;&gt;code -->
<g id="edge17" class="edge">
<title>emojicoin_dot_fun&#45;&gt;code</title>
<path fill="none" stroke="black" d="M2106.85,-719.59C2099.73,-695.5 2086.79,-651.75 2078.29,-623.03"/>
<polygon fill="black" stroke="black" points="2081.68,-622.16 2075.49,-613.56 2074.97,-624.14 2081.68,-622.16"/>
</g>
<!-- string_utils -->
<g id="node19" class="node">
<title>string_utils</title>
<ellipse fill="none" stroke="black" cx="2768" cy="-666" rx="52.38" ry="18"/>
<text text-anchor="middle" x="2768" y="-660.95" font-family="Times,serif" font-size="14.00">string_utils</text>
</g>
<!-- emojicoin_dot_fun&#45;&gt;string_utils -->
<g id="edge18" class="edge">
<title>emojicoin_dot_fun&#45;&gt;string_utils</title>
<path fill="none" stroke="black" d="M2191.74,-733.95C2305.62,-728.66 2521.1,-715.21 2702,-684 2707.19,-683.1 2712.58,-682.01 2717.93,-680.8"/>
<polygon fill="black" stroke="black" points="2718.4,-684.29 2727.32,-678.57 2716.78,-677.48 2718.4,-684.29"/>
</g>
<!-- option&#45;&gt;vector -->
<g id="edge19" class="edge">
<title>option&#45;&gt;vector</title>
<path fill="none" stroke="black" d="M781.87,-82.75C802.84,-78.92 830.95,-74.32 856,-72 1263.06,-34.25 2591.75,-21.54 2855.32,-19.36"/>
<polygon fill="black" stroke="black" points="2855.22,-22.86 2865.19,-19.28 2855.17,-15.86 2855.22,-22.86"/>
</g>
<!-- string&#45;&gt;vector -->
<g id="edge20" class="edge">
<title>string&#45;&gt;vector</title>
<path fill="none" stroke="black" d="M2503.84,-152.01C2576.49,-127.68 2777.18,-60.47 2862.17,-32"/>
<polygon fill="black" stroke="black" points="2863.09,-35.39 2871.46,-28.89 2860.87,-28.75 2863.09,-35.39"/>
</g>
<!-- string&#45;&gt;option -->
<g id="edge21" class="edge">
<title>string&#45;&gt;option</title>
<path fill="none" stroke="black" d="M2445.08,-159.72C2371.43,-156.77 2183.86,-149.37 2027,-144 1506.61,-126.17 1374.35,-157.33 856,-108 835.16,-106.02 812.2,-102.5 792.99,-99.18"/>
<polygon fill="black" stroke="black" points="793.82,-95.77 783.36,-97.47 792.59,-102.66 793.82,-95.77"/>
</g>
<!-- type_info&#45;&gt;string -->
<g id="edge22" class="edge">
<title>type_info&#45;&gt;string</title>
<path fill="none" stroke="black" d="M2144.09,-225.31C2215.9,-211.87 2363.43,-184.26 2435.51,-170.76"/>
<polygon fill="black" stroke="black" points="2436.15,-174.21 2445.34,-168.93 2434.86,-167.33 2436.15,-174.21"/>
</g>
<!-- type_info&#45;&gt;bcs -->
<g id="edge25" class="edge">
<title>type_info&#45;&gt;bcs</title>
<path fill="none" stroke="black" d="M2079.25,-218.15C2061.91,-207.32 2038.32,-192.57 2019.89,-181.06"/>
<polygon fill="black" stroke="black" points="2021.87,-178.17 2011.54,-175.84 2018.16,-184.1 2021.87,-178.17"/>
</g>
<!-- error -->
<g id="node20" class="node">
<title>error</title>
<ellipse fill="none" stroke="black" cx="1839" cy="-90" rx="28.83" ry="18"/>
<text text-anchor="middle" x="1839" y="-84.95" font-family="Times,serif" font-size="14.00">error</text>
</g>
<!-- type_info&#45;&gt;error -->
<g id="edge23" class="edge">
<title>type_info&#45;&gt;error</title>
<path fill="none" stroke="black" d="M2093.11,-216.28C2080.34,-196.15 2056.26,-162.73 2027,-144 1981.12,-114.63 1918.79,-101.25 1878.72,-95.36"/>
<polygon fill="black" stroke="black" points="1879.43,-91.92 1869.05,-94.03 1878.48,-98.86 1879.43,-91.92"/>
</g>
<!-- features -->
<g id="node21" class="node">
<title>features</title>
<ellipse fill="none" stroke="black" cx="1839" cy="-162" rx="40.09" ry="18"/>
<text text-anchor="middle" x="1839" y="-156.95" font-family="Times,serif" font-size="14.00">features</text>
</g>
<!-- type_info&#45;&gt;features -->
<g id="edge24" class="edge">
<title>type_info&#45;&gt;features</title>
<path fill="none" stroke="black" d="M2065.46,-223.05C2017.68,-210.38 1935.23,-188.52 1884.1,-174.96"/>
<polygon fill="black" stroke="black" points="1885.09,-171.6 1874.53,-172.42 1883.29,-178.37 1885.09,-171.6"/>
</g>
<!-- event&#45;&gt;bcs -->
<g id="edge26" class="edge">
<title>event&#45;&gt;bcs</title>
<path fill="none" stroke="black" d="M2096.32,-365.41C2062.73,-346.79 2001.15,-306.68 1977,-252 1968.35,-232.42 1972.95,-208.35 1979.1,-190.18"/>
<polygon fill="black" stroke="black" points="1982.36,-191.47 1982.6,-180.88 1975.8,-189 1982.36,-191.47"/>
</g>
<!-- guid -->
<g id="node22" class="node">
<title>guid</title>
<ellipse fill="none" stroke="black" cx="1939" cy="-306" rx="27.3" ry="18"/>
<text text-anchor="middle" x="1939" y="-300.95" font-family="Times,serif" font-size="14.00">guid</text>
</g>
<!-- event&#45;&gt;guid -->
<g id="edge27" class="edge">
<title>event&#45;&gt;guid</title>
<path fill="none" stroke="black" d="M2093.53,-367.39C2059.56,-354.55 2001.24,-332.45 1980,-324 1977.37,-322.95 1974.65,-321.86 1971.92,-320.75"/>
<polygon fill="black" stroke="black" points="1973.49,-317.61 1962.91,-317.04 1970.83,-324.08 1973.49,-317.61"/>
</g>
<!-- account&#45;&gt;vector -->
<g id="edge28" class="edge">
<title>account&#45;&gt;vector</title>
<path fill="none" stroke="black" d="M1483.43,-448.48C1360.68,-446.45 987.87,-436.96 875,-396 714.81,-337.86 501.76,-292.14 586,-144 616.93,-89.6 646.87,-89.32 707,-72 813.87,-41.22 2551.15,-22.5 2855.63,-19.44"/>
<polygon fill="black" stroke="black" points="2855.58,-22.94 2865.55,-19.34 2855.51,-15.94 2855.58,-22.94"/>
</g>
<!-- account&#45;&gt;option -->
<g id="edge29" class="edge">
<title>account&#45;&gt;option</title>
<path fill="none" stroke="black" d="M1483.51,-447.65C1357.14,-443.03 968.14,-426.47 921,-396 819.22,-330.21 772.19,-181.55 756.42,-119.28"/>
<polygon fill="black" stroke="black" points="759.88,-118.71 754.11,-109.83 753.08,-120.38 759.88,-118.71"/>
</g>
<!-- account&#45;&gt;signer -->
<g id="edge30" class="edge">
<title>account&#45;&gt;signer</title>
<path fill="none" stroke="black" d="M1487.76,-441.29C1455.51,-433.23 1407.28,-418.55 1370,-396 1335.03,-374.84 1137.78,-163.75 1102,-144 1051.09,-115.89 984.77,-102.26 941.79,-95.96"/>
<polygon fill="black" stroke="black" points="942.47,-92.52 932.09,-94.61 941.51,-99.45 942.47,-92.52"/>
</g>
<!-- account&#45;&gt;bcs -->
<g id="edge32" class="edge">
<title>account&#45;&gt;bcs</title>
<path fill="none" stroke="black" d="M1557.78,-440.82C1588.76,-432.55 1634.55,-417.84 1670,-396 1689.81,-383.8 1691.01,-375.89 1708,-360 1742.46,-327.78 1747.42,-315.15 1786,-288 1814.29,-268.1 1825.16,-269.49 1855,-252 1893.59,-229.38 1936.54,-200.64 1963.65,-182.04"/>
<polygon fill="black" stroke="black" points="1965.39,-185.09 1971.64,-176.54 1961.42,-179.33 1965.39,-185.09"/>
</g>
<!-- account&#45;&gt;type_info -->
<g id="edge33" class="edge">
<title>account&#45;&gt;type_info</title>
<path fill="none" stroke="black" d="M1560.28,-443.26C1598.99,-436.2 1660.44,-421.84 1708,-396 1740.11,-378.55 1799.17,-304.05 1832,-288 1900.69,-254.41 1989,-242.1 2045.8,-237.59"/>
<polygon fill="black" stroke="black" points="2045.85,-241.1 2055.57,-236.88 2045.34,-234.12 2045.85,-241.1"/>
</g>
<!-- account&#45;&gt;table -->
<g id="edge34" class="edge">
<title>account&#45;&gt;table</title>
<path fill="none" stroke="black" d="M1483.28,-448.44C1366.15,-446.31 1023.93,-436.7 921,-396 800.8,-348.48 689.53,-235.89 644.77,-186.69"/>
<polygon fill="black" stroke="black" points="647.5,-184.49 638.21,-179.4 642.3,-189.17 647.5,-184.49"/>
</g>
<!-- account&#45;&gt;event -->
<g id="edge41" class="edge">
<title>account&#45;&gt;event</title>
<path fill="none" stroke="black" d="M1561.63,-445.21C1643.24,-437.08 1839.18,-417.04 2003,-396 2027.98,-392.79 2055.92,-388.71 2078.12,-385.35"/>
<polygon fill="black" stroke="black" points="2078.62,-388.82 2087.98,-383.85 2077.57,-381.9 2078.62,-388.82"/>
</g>
<!-- account&#45;&gt;error -->
<g id="edge31" class="edge">
<title>account&#45;&gt;error</title>
<path fill="none" stroke="black" d="M1554.33,-438.73C1574.9,-430.4 1600.73,-416.61 1616,-396 1684.36,-303.73 1595.39,-228.64 1673,-144 1705.33,-108.74 1761.06,-96.82 1798.95,-92.85"/>
<polygon fill="black" stroke="black" points="1798.93,-96.37 1808.58,-92 1798.31,-89.4 1798.93,-96.37"/>
</g>
<!-- account&#45;&gt;guid -->
<g id="edge39" class="edge">
<title>account&#45;&gt;guid</title>
<path fill="none" stroke="black" d="M1560.07,-443.54C1622.18,-434.04 1744.35,-413.8 1784,-396 1808.33,-385.08 1809.29,-373.98 1832,-360 1856.01,-345.22 1884.72,-331.18 1906.35,-321.27"/>
<polygon fill="black" stroke="black" points="1907.59,-324.55 1915.27,-317.24 1904.71,-318.17 1907.59,-324.55"/>
</g>
<!-- system_addresses -->
<g id="node23" class="node">
<title>system_addresses</title>
<ellipse fill="none" stroke="black" cx="980" cy="-306" rx="76.94" ry="18"/>
<text text-anchor="middle" x="980" y="-300.95" font-family="Times,serif" font-size="14.00">system_addresses</text>
</g>
<!-- account&#45;&gt;system_addresses -->
<g id="edge35" class="edge">
<title>account&#45;&gt;system_addresses</title>
<path fill="none" stroke="black" d="M1483.7,-446.7C1394.77,-441.06 1180.75,-424.82 1115,-396 1092.17,-385.99 1092.43,-374.28 1072,-360 1055.73,-348.63 1036.88,-337.46 1020.49,-328.32"/>
<polygon fill="black" stroke="black" points="1022.42,-325.38 1011.97,-323.63 1019.05,-331.52 1022.42,-325.38"/>
</g>
<!-- hash -->
<g id="node24" class="node">
<title>hash</title>
<ellipse fill="none" stroke="black" cx="1334" cy="-234" rx="27.81" ry="18"/>
<text text-anchor="middle" x="1334" y="-228.95" font-family="Times,serif" font-size="14.00">hash</text>
</g>
<!-- account&#45;&gt;hash -->
<g id="edge36" class="edge">
<title>account&#45;&gt;hash</title>
<path fill="none" stroke="black" d="M1492.55,-438.08C1450.6,-421.12 1376.93,-384.04 1348,-324 1338.91,-305.13 1335.5,-281.66 1334.31,-263.55"/>
<polygon fill="black" stroke="black" points="1337.82,-263.61 1333.88,-253.78 1330.83,-263.93 1337.82,-263.61"/>
</g>
<!-- ed25519 -->
<g id="node25" class="node">
<title>ed25519</title>
<ellipse fill="none" stroke="black" cx="1547" cy="-306" rx="42.65" ry="18"/>
<text text-anchor="middle" x="1547" y="-300.95" font-family="Times,serif" font-size="14.00">ed25519</text>
</g>
<!-- account&#45;&gt;ed25519 -->
<g id="edge37" class="edge">
<title>account&#45;&gt;ed25519</title>
<path fill="none" stroke="black" d="M1551.54,-437.38C1568.67,-428.74 1589.03,-415.11 1599,-396 1606.4,-381.81 1605.05,-374.81 1599,-360 1594.27,-348.43 1585.66,-338.01 1576.79,-329.54"/>
<polygon fill="black" stroke="black" points="1579.26,-327.06 1569.45,-323.05 1574.62,-332.3 1579.26,-327.06"/>
</g>
<!-- multi_ed25519 -->
<g id="node26" class="node">
<title>multi_ed25519</title>
<ellipse fill="none" stroke="black" cx="1523" cy="-378" rx="67.22" ry="18"/>
<text text-anchor="middle" x="1523" y="-372.95" font-family="Times,serif" font-size="14.00">multi_ed25519</text>
</g>
<!-- account&#45;&gt;multi_ed25519 -->
<g id="edge38" class="edge">
<title>account&#45;&gt;multi_ed25519</title>
<path fill="none" stroke="black" d="M1523,-431.7C1523,-424.41 1523,-415.73 1523,-407.54"/>
<polygon fill="black" stroke="black" points="1526.5,-407.62 1523,-397.62 1519.5,-407.62 1526.5,-407.62"/>
</g>
<!-- from_bcs -->
<g id="node27" class="node">
<title>from_bcs</title>
<ellipse fill="none" stroke="black" cx="2365" cy="-234" rx="46.23" ry="18"/>
<text text-anchor="middle" x="2365" y="-228.95" font-family="Times,serif" font-size="14.00">from_bcs</text>
</g>
<!-- account&#45;&gt;from_bcs -->
<g id="edge40" class="edge">
<title>account&#45;&gt;from_bcs</title>
<path fill="none" stroke="black" d="M1561.39,-444.7C1631.26,-436.45 1776.19,-417.36 1822,-396 1844.59,-385.47 1841.91,-369.38 1865,-360 1964.1,-319.73 2264.04,-393.91 2345,-324 2361.95,-309.36 2366.28,-283.73 2366.75,-263.72"/>
<polygon fill="black" stroke="black" points="2370.26,-263.91 2366.66,-253.94 2363.26,-263.97 2370.26,-263.91"/>
</g>
<!-- create_signer -->
<g id="node28" class="node">
<title>create_signer</title>
<ellipse fill="none" stroke="black" cx="1934" cy="-378" rx="60.05" ry="18"/>
<text text-anchor="middle" x="1934" y="-372.95" font-family="Times,serif" font-size="14.00">create_signer</text>
</g>
<!-- account&#45;&gt;create_signer -->
<g id="edge42" class="edge">
<title>account&#45;&gt;create_signer</title>
<path fill="none" stroke="black" d="M1560.8,-443.93C1623.3,-435.36 1751.99,-416.87 1860,-396 1865.6,-394.92 1871.42,-393.72 1877.23,-392.47"/>
<polygon fill="black" stroke="black" points="1877.83,-395.92 1886.84,-390.35 1876.32,-389.08 1877.83,-395.92"/>
</g>
<!-- chain_id -->
<g id="node29" class="node">
<title>chain_id</title>
<ellipse fill="none" stroke="black" cx="1167" cy="-378" rx="42.65" ry="18"/>
<text text-anchor="middle" x="1167" y="-372.95" font-family="Times,serif" font-size="14.00">chain_id</text>
</g>
<!-- account&#45;&gt;chain_id -->
<g id="edge43" class="edge">
<title>account&#45;&gt;chain_id</title>
<path fill="none" stroke="black" d="M1487.24,-441.97C1423.22,-429.38 1288.96,-402.98 1216.27,-388.69"/>
<polygon fill="black" stroke="black" points="1217.13,-385.29 1206.64,-386.79 1215.77,-392.16 1217.13,-385.29"/>
</g>
<!-- aggregator_v2&#45;&gt;string -->
<g id="edge44" class="edge">
<title>aggregator_v2&#45;&gt;string</title>
<path fill="none" stroke="black" d="M3132.9,-224.01C3114.84,-221.19 3094.58,-218.24 3076,-216 2868.34,-190.94 2618.82,-172.64 2520.16,-165.87"/>
<polygon fill="black" stroke="black" points="2520.62,-162.39 2510.4,-165.21 2520.14,-169.38 2520.62,-162.39"/>
</g>
<!-- aggregator_v2&#45;&gt;error -->
<g id="edge45" class="edge">
<title>aggregator_v2&#45;&gt;error</title>
<path fill="none" stroke="black" d="M3203.12,-216.15C3219.97,-196.53 3241.46,-164.22 3222,-144 3174.25,-94.38 2102.65,-91.13 1879.49,-90.99"/>
<polygon fill="black" stroke="black" points="1879.56,-87.49 1869.56,-90.99 1879.56,-94.49 1879.56,-87.49"/>
</g>
<!-- coin&#45;&gt;option -->
<g id="edge46" class="edge">
<title>coin&#45;&gt;option</title>
<path fill="none" stroke="black" d="M752.65,-520.84C666.02,-519.88 399.2,-513.22 328,-468 256.89,-422.84 228,-391.23 228,-307 228,-307 228,-307 228,-233 228,-192.03 220.84,-170.6 252,-144 286.04,-114.93 587.56,-98.34 704.2,-92.95"/>
<polygon fill="black" stroke="black" points="704.21,-96.46 714.04,-92.51 703.89,-89.46 704.21,-96.46"/>
</g>
<!-- coin&#45;&gt;string -->
<g id="edge47" class="edge">
<title>coin&#45;&gt;string</title>
<path fill="none" stroke="black" d="M807.14,-521.21C927.11,-521.83 1421.69,-520.85 1823,-468 1974.42,-448.06 2011.87,-436.95 2159,-396 2253.65,-369.66 2289.11,-382.56 2368,-324 2415.65,-288.63 2449.26,-225.91 2465.64,-190.08"/>
<polygon fill="black" stroke="black" points="2468.7,-191.83 2469.55,-181.27 2462.3,-188.99 2468.7,-191.83"/>
</g>
<!-- coin&#45;&gt;signer -->
<g id="edge48" class="edge">
<title>coin&#45;&gt;signer</title>
<path fill="none" stroke="black" d="M752.76,-520.77C681.09,-519.56 489.95,-512.17 449,-468 394.49,-409.2 425.41,-367.34 437,-288 446.66,-221.91 428.81,-186.9 480,-144 533.66,-99.03 723.65,-117.6 793,-108 813.45,-105.17 836.06,-101.57 855.05,-98.41"/>
<polygon fill="black" stroke="black" points="855.58,-101.87 864.86,-96.76 854.42,-94.97 855.58,-101.87"/>
</g>
<!-- coin&#45;&gt;type_info -->
<g id="edge50" class="edge">
<title>coin&#45;&gt;type_info</title>
<path fill="none" stroke="black" d="M807.16,-520.66C908.55,-519.08 1274.27,-510.59 1572,-468 1645.44,-457.49 1661.95,-444.95 1735,-432 1794.17,-421.51 1963.44,-441.23 2003,-396 2013.53,-383.96 2012.2,-373.09 2003,-360 1975.84,-321.35 1930.16,-362.65 1903,-324 1893.8,-310.91 1893.24,-300.68 1903,-288 1920.65,-265.06 1995.35,-250 2048.27,-241.99"/>
<polygon fill="black" stroke="black" points="2048.65,-245.47 2058.04,-240.56 2047.64,-238.54 2048.65,-245.47"/>
</g>
<!-- coin&#45;&gt;event -->
<g id="edge52" class="edge">
<title>coin&#45;&gt;event</title>
<path fill="none" stroke="black" d="M807.15,-521.32C920.99,-522.28 1370.79,-522.23 1735,-468 1801.53,-458.09 1816.51,-447.34 1882,-432 1951.25,-415.78 2032.16,-397.92 2079.28,-387.63"/>
<polygon fill="black" stroke="black" points="2080,-391.05 2089.02,-385.5 2078.51,-384.21 2080,-391.05"/>
</g>
<!-- coin&#45;&gt;account -->
<g id="edge53" class="edge">
<title>coin&#45;&gt;account</title>
<path fill="none" stroke="black" d="M806.88,-518.47C916.31,-508.16 1329.23,-469.26 1473.16,-455.7"/>
<polygon fill="black" stroke="black" points="1473.11,-459.22 1482.74,-454.79 1472.45,-452.25 1473.11,-459.22"/>
</g>
<!-- coin&#45;&gt;error -->
<g id="edge49" class="edge">
<title>coin&#45;&gt;error</title>
<path fill="none" stroke="black" d="M789.36,-504.86C809.2,-472.14 858.82,-397.91 921,-360 977.7,-325.44 1006.35,-353.17 1066,-324 1182.3,-267.14 1174.86,-192.21 1295,-144 1386.66,-107.22 1688.95,-95.21 1798.72,-92.01"/>
<polygon fill="black" stroke="black" points="1798.52,-95.51 1808.42,-91.73 1798.32,-88.52 1798.52,-95.51"/>
</g>
<!-- coin&#45;&gt;system_addresses -->
<g id="edge51" class="edge">
<title>coin&#45;&gt;system_addresses</title>
<path fill="none" stroke="black" d="M782.99,-504.02C789.51,-471.74 807.93,-401.11 850,-360 867.76,-342.65 891.97,-330.71 914.68,-322.63"/>
<polygon fill="black" stroke="black" points="915.52,-326.04 923.89,-319.55 913.3,-319.4 915.52,-326.04"/>
</g>
<!-- aggregator -->
<g id="node30" class="node">
<title>aggregator</title>
<ellipse fill="none" stroke="black" cx="496" cy="-306" rx="50.33" ry="18"/>
<text text-anchor="middle" x="496" y="-300.95" font-family="Times,serif" font-size="14.00">aggregator</text>
</g>
<!-- coin&#45;&gt;aggregator -->
<g id="edge54" class="edge">
<title>coin&#45;&gt;aggregator</title>
<path fill="none" stroke="black" d="M753.05,-520.47C684.91,-518.52 508.51,-509.48 471,-468 438.77,-432.36 453.76,-406.47 466,-360 468.42,-350.8 472.85,-341.52 477.57,-333.35"/>
<polygon fill="black" stroke="black" points="480.47,-335.31 482.79,-324.97 474.53,-331.61 480.47,-335.31"/>
</g>
<!-- aggregator_factory -->
<g id="node31" class="node">
<title>aggregator_factory</title>
<ellipse fill="none" stroke="black" cx="565" cy="-378" rx="81.04" ry="18"/>
<text text-anchor="middle" x="565" y="-372.95" font-family="Times,serif" font-size="14.00">aggregator_factory</text>
</g>
<!-- coin&#45;&gt;aggregator_factory -->
<g id="edge55" class="edge">
<title>coin&#45;&gt;aggregator_factory</title>
<path fill="none" stroke="black" d="M763.23,-507.66C740.28,-489.64 697.55,-456.91 659,-432 641.93,-420.97 622.45,-409.77 605.66,-400.52"/>
<polygon fill="black" stroke="black" points="607.39,-397.48 596.93,-395.76 604.04,-403.62 607.39,-397.48"/>
</g>
<!-- optional_aggregator -->
<g id="node32" class="node">
<title>optional_aggregator</title>
<ellipse fill="none" stroke="black" cx="565" cy="-450" rx="85.13" ry="18"/>
<text text-anchor="middle" x="565" y="-444.95" font-family="Times,serif" font-size="14.00">optional_aggregator</text>
</g>
<!-- coin&#45;&gt;optional_aggregator -->
<g id="edge56" class="edge">
<title>coin&#45;&gt;optional_aggregator</title>
<path fill="none" stroke="black" d="M756.17,-513.24C723.72,-502.67 664.63,-483.44 620.71,-469.14"/>
<polygon fill="black" stroke="black" points="621.93,-465.85 611.33,-466.09 619.76,-472.51 621.93,-465.85"/>
</g>
<!-- aptos_coin&#45;&gt;vector -->
<g id="edge57" class="edge">
<title>aptos_coin&#45;&gt;vector</title>
<path fill="none" stroke="black" d="M813,-593.06C679.24,-592.57 321.29,-586.78 214,-540 116.82,-497.63 38,-485.01 38,-379 38,-379 38,-379 38,-161 38,-13.69 2487.8,-17.41 2855.13,-18.79"/>
<polygon fill="black" stroke="black" points="2855.07,-22.29 2865.09,-18.83 2855.1,-15.29 2855.07,-22.29"/>
</g>
<!-- aptos_coin&#45;&gt;option -->
<g id="edge58" class="edge">
<title>aptos_coin&#45;&gt;option</title>
<path fill="none" stroke="black" d="M813.76,-590.96C679.28,-585.15 318.18,-567.19 272,-540 164.18,-476.52 114,-432.12 114,-307 114,-307 114,-307 114,-233 114,-169.77 166.47,-167.94 225,-144 311.31,-108.7 592.36,-96.03 703.84,-92.32"/>
<polygon fill="black" stroke="black" points="703.93,-95.82 713.82,-91.99 703.71,-88.82 703.93,-95.82"/>
</g>
<!-- aptos_coin&#45;&gt;string -->
<g id="edge59" class="edge">
<title>aptos_coin&#45;&gt;string</title>
<path fill="none" stroke="black" d="M915.16,-592.85C1126.83,-591.93 1934.61,-585.45 2185,-540 2285.4,-521.78 2333.73,-542.92 2403,-468 2475.86,-389.19 2480.41,-251.07 2478.63,-191.59"/>
<polygon fill="black" stroke="black" points="2482.13,-191.5 2478.24,-181.65 2475.14,-191.78 2482.13,-191.5"/>
</g>
<!-- aptos_coin&#45;&gt;signer -->
<g id="edge60" class="edge">
<title>aptos_coin&#45;&gt;signer</title>
<path fill="none" stroke="black" d="M813.18,-591.74C680,-587.95 328.4,-574.75 290,-540 265.83,-518.13 279.13,-500.45 276,-468 260.39,-305.93 309.86,-231.77 447,-144 512.11,-102.33 716.37,-118.18 793,-108 813.47,-105.28 836.08,-101.69 855.07,-98.52"/>
<polygon fill="black" stroke="black" points="855.6,-101.98 864.87,-96.86 854.43,-95.08 855.6,-101.98"/>
</g>
<!-- aptos_coin&#45;&gt;coin -->
<g id="edge63" class="edge">
<title>aptos_coin&#45;&gt;coin</title>
<path fill="none" stroke="black" d="M844.94,-577.12C833.18,-567.31 817.95,-554.62 805.2,-544"/>
<polygon fill="black" stroke="black" points="807.52,-541.38 797.6,-537.66 803.04,-546.76 807.52,-541.38"/>
</g>
<!-- aptos_coin&#45;&gt;error -->
<g id="edge61" class="edge">
<title>aptos_coin&#45;&gt;error</title>
<path fill="none" stroke="black" d="M901.31,-581.39C972.25,-557.57 1127.62,-496.78 1219,-396 1277.57,-331.41 1231.46,-273.5 1297,-216 1373,-149.33 1687.22,-108.1 1799.17,-95.3"/>
<polygon fill="black" stroke="black" points="1799.53,-98.78 1809.08,-94.18 1798.75,-91.82 1799.53,-98.78"/>
</g>
<!-- aptos_coin&#45;&gt;system_addresses -->
<g id="edge62" class="edge">
<title>aptos_coin&#45;&gt;system_addresses</title>
<path fill="none" stroke="black" d="M864.79,-575.61C867.33,-535.01 877.9,-432 921,-360 927.61,-348.97 937.25,-338.93 946.83,-330.63"/>
<polygon fill="black" stroke="black" points="948.82,-333.51 954.35,-324.47 944.39,-328.1 948.82,-333.51"/>
</g>
<!-- aptos_account&#45;&gt;signer -->
<g id="edge64" class="edge">
<title>aptos_account&#45;&gt;signer</title>
<path fill="none" stroke="black" d="M1558.25,-664.41C1420.07,-662.35 1082.94,-653.15 804,-612 664.07,-591.36 609.1,-622.21 494,-540 400.56,-473.26 392.15,-393.71 437,-288 472.97,-203.22 503.82,-185.57 586,-144 591.99,-140.97 770.88,-111.64 855.03,-97.96"/>
<polygon fill="black" stroke="black" points="855.44,-101.44 864.75,-96.38 854.32,-94.53 855.44,-101.44"/>
</g>
<!-- aptos_account&#45;&gt;event -->
<g id="edge66" class="edge">
<title>aptos_account&#45;&gt;event</title>
<path fill="none" stroke="black" d="M1649.07,-649.42C1734.32,-600.36 1996.91,-449.26 2087.72,-397"/>
<polygon fill="black" stroke="black" points="2089.44,-400.05 2096.36,-392.03 2085.95,-393.98 2089.44,-400.05"/>
</g>
<!-- aptos_account&#45;&gt;account -->
<g id="edge68" class="edge">
<title>aptos_account&#45;&gt;account</title>
<path fill="none" stroke="black" d="M1614.07,-647.85C1596.93,-610.82 1556.36,-523.12 1535.65,-478.34"/>
<polygon fill="black" stroke="black" points="1538.85,-476.92 1531.47,-469.31 1532.49,-479.85 1538.85,-476.92"/>
</g>
<!-- aptos_account&#45;&gt;coin -->
<g id="edge69" class="edge">
<title>aptos_account&#45;&gt;coin</title>
<path fill="none" stroke="black" d="M1568.37,-655.96C1410.84,-629.39 952.16,-552.03 817.55,-529.33"/>
<polygon fill="black" stroke="black" points="818.2,-525.89 807.76,-527.68 817.04,-532.8 818.2,-525.89"/>
</g>
<!-- aptos_account&#45;&gt;aptos_coin -->
<g id="edge70" class="edge">
<title>aptos_account&#45;&gt;aptos_coin</title>
<path fill="none" stroke="black" d="M1562.2,-659.48C1420.58,-646.4 1065.96,-613.65 924.07,-600.55"/>
<polygon fill="black" stroke="black" points="924.4,-597.06 914.12,-599.63 923.76,-604.03 924.4,-597.06"/>
</g>
<!-- aptos_account&#45;&gt;error -->
<g id="edge65" class="edge">
<title>aptos_account&#45;&gt;error</title>
<path fill="none" stroke="black" d="M1624.77,-647.7C1636.25,-579.54 1684.47,-324.5 1790,-144 1796.61,-132.69 1806,-121.77 1814.79,-112.82"/>
<polygon fill="black" stroke="black" points="1817.13,-115.43 1821.84,-105.94 1812.24,-110.42 1817.13,-115.43"/>
</g>
<!-- aptos_account&#45;&gt;create_signer -->
<g id="edge67" class="edge">
<title>aptos_account&#45;&gt;create_signer</title>
<path fill="none" stroke="black" d="M1635.42,-647.94C1668.05,-607.19 1755.38,-502.34 1844,-432 1859.41,-419.77 1877.92,-408.39 1894.14,-399.33"/>
<polygon fill="black" stroke="black" points="1895.46,-402.6 1902.56,-394.73 1892.11,-396.45 1895.46,-402.6"/>
</g>
<!-- timestamp&#45;&gt;error -->
<g id="edge71" class="edge">
<title>timestamp&#45;&gt;error</title>
<path fill="none" stroke="black" d="M1023.15,-368.3C1057.47,-360.17 1105.89,-345.96 1144,-324 1253.17,-261.1 1245.53,-189.54 1363,-144 1442.25,-113.28 1698.49,-97.82 1798.49,-92.84"/>
<polygon fill="black" stroke="black" points="1798.56,-96.35 1808.38,-92.36 1798.22,-89.35 1798.56,-96.35"/>
</g>
<!-- timestamp&#45;&gt;system_addresses -->
<g id="edge72" class="edge">
<title>timestamp&#45;&gt;system_addresses</title>
<path fill="none" stroke="black" d="M980,-359.7C980,-352.41 980,-343.73 980,-335.54"/>
<polygon fill="black" stroke="black" points="983.5,-335.62 980,-325.62 976.5,-335.62 983.5,-335.62"/>
</g>
<!-- smart_table&#45;&gt;vector -->
<g id="edge73" class="edge">
<title>smart_table&#45;&gt;vector</title>
<path fill="none" stroke="black" d="M2959.81,-299.09C3054.72,-287.8 3250.28,-263.3 3260,-252 3361.2,-134.38 3058.41,-53.61 2943.38,-27.84"/>
<polygon fill="black" stroke="black" points="2944.22,-24.44 2933.7,-25.7 2942.71,-31.27 2944.22,-24.44"/>
</g>
<!-- smart_table&#45;&gt;type_info -->
<g id="edge75" class="edge">
<title>smart_table&#45;&gt;type_info</title>
<path fill="none" stroke="black" d="M2856.74,-300.46C2712.25,-287.91 2308.23,-252.82 2159.17,-239.88"/>
<polygon fill="black" stroke="black" points="2159.82,-236.42 2149.56,-239.04 2159.22,-243.4 2159.82,-236.42"/>
</g>
<!-- smart_table&#45;&gt;error -->
<g id="edge74" class="edge">
<title>smart_table&#45;&gt;error</title>
<path fill="none" stroke="black" d="M2921.19,-288.29C2932.82,-270.17 2947.17,-240.54 2937,-216 2935.92,-213.39 2867.58,-145.15 2865,-144 2773.9,-103.48 2059.13,-93.31 1879.74,-91.38"/>
<polygon fill="black" stroke="black" points="1879.78,-87.88 1869.75,-91.28 1879.71,-94.88 1879.78,-87.88"/>
</g>
<!-- simple_map -->
<g id="node33" class="node">
<title>simple_map</title>
<ellipse fill="none" stroke="black" cx="3156" cy="-162" rx="56.98" ry="18"/>
<text text-anchor="middle" x="3156" y="-156.95" font-family="Times,serif" font-size="14.00">simple_map</text>
</g>
<!-- smart_table&#45;&gt;simple_map -->
<g id="edge76" class="edge">
<title>smart_table&#45;&gt;simple_map</title>
<path fill="none" stroke="black" d="M2956.52,-296.92C2991.62,-289.36 3039.45,-275.58 3076,-252 3089.72,-243.15 3116.74,-211.63 3135.56,-188.61"/>
<polygon fill="black" stroke="black" points="3138.04,-191.11 3141.62,-181.14 3132.6,-186.7 3138.04,-191.11"/>
</g>
<!-- math64 -->
<g id="node34" class="node">
<title>math64</title>
<ellipse fill="none" stroke="black" cx="3028" cy="-234" rx="39.07" ry="18"/>
<text text-anchor="middle" x="3028" y="-228.95" font-family="Times,serif" font-size="14.00">math64</text>
</g>
<!-- smart_table&#45;&gt;math64 -->
<g id="edge77" class="edge">
<title>smart_table&#45;&gt;math64</title>
<path fill="none" stroke="black" d="M2934.82,-289.81C2952.44,-279.45 2975.92,-265.63 2994.91,-254.47"/>
<polygon fill="black" stroke="black" points="2996.5,-257.59 3003.34,-249.5 2992.95,-251.56 2996.5,-257.59"/>
</g>
<!-- table_with_length -->
<g id="node35" class="node">
<title>table_with_length</title>
<ellipse fill="none" stroke="black" cx="2696" cy="-234" rx="77.45" ry="18"/>
<text text-anchor="middle" x="2696" y="-228.95" font-family="Times,serif" font-size="14.00">table_with_length</text>
</g>
<!-- smart_table&#45;&gt;table_with_length -->
<g id="edge78" class="edge">
<title>smart_table&#45;&gt;table_with_length</title>
<path fill="none" stroke="black" d="M2871.41,-292.65C2837.82,-281.61 2788.21,-265.3 2750.31,-252.85"/>
<polygon fill="black" stroke="black" points="2751.48,-249.55 2740.89,-249.75 2749.3,-256.2 2751.48,-249.55"/>
</g>
<!-- aptos_hash -->
<g id="node36" class="node">
<title>aptos_hash</title>
<ellipse fill="none" stroke="black" cx="2843" cy="-234" rx="51.86" ry="18"/>
<text text-anchor="middle" x="2843" y="-228.95" font-family="Times,serif" font-size="14.00">aptos_hash</text>
</g>
<!-- smart_table&#45;&gt;aptos_hash -->
<g id="edge79" class="edge">
<title>smart_table&#45;&gt;aptos_hash</title>
<path fill="none" stroke="black" d="M2893.36,-288.41C2885.3,-279.87 2875.32,-269.28 2866.37,-259.79"/>
<polygon fill="black" stroke="black" points="2868.97,-257.45 2859.57,-252.57 2863.88,-262.25 2868.97,-257.45"/>
</g>
<!-- object&#45;&gt;vector -->
<g id="edge80" class="edge">
<title>object&#45;&gt;vector</title>
<path fill="none" stroke="black" d="M2175.37,-516.81C2233.25,-509.05 2358.16,-491.12 2462,-468 2635.47,-429.38 2675.17,-405.37 2847,-360 3040.02,-309.03 3159.97,-409.22 3283,-252 3342.71,-175.69 3249.82,-108.35 3160,-72 3088.21,-42.95 2998.53,-29.17 2945.74,-23.15"/>
<polygon fill="black" stroke="black" points="2946.24,-19.68 2935.92,-22.08 2945.48,-26.64 2946.24,-19.68"/>
</g>
<!-- object&#45;&gt;signer -->
<g id="edge81" class="edge">
<title>object&#45;&gt;signer</title>
<path fill="none" stroke="black" d="M2118.56,-509.55C2112.9,-507.34 2106.83,-505.31 2101,-504 1828.66,-442.82 1743.9,-539.15 1474,-468 1404.04,-449.56 1387.37,-437.34 1328,-396 1308.91,-382.71 1307.46,-375.38 1290,-360 1176.23,-259.8 1156.1,-221.83 1026,-144 997.74,-127.09 963.08,-113.11 936.97,-103.76"/>
<polygon fill="black" stroke="black" points="938.36,-100.54 927.77,-100.54 936.05,-107.14 938.36,-100.54"/>
</g>
<!-- object&#45;&gt;bcs -->
<g id="edge84" class="edge">
<title>object&#45;&gt;bcs</title>
<path fill="none" stroke="black" d="M2147.36,-503.84C2152.84,-484.79 2163.67,-453.85 2181,-432 2197.79,-410.82 2217.8,-420.11 2230,-396 2237.23,-381.72 2239.76,-372.68 2230,-360 2191.86,-310.45 2148.9,-353.92 2094,-324 2073.14,-312.63 2027.37,-272.28 2015,-252 2003.72,-233.51 1997.66,-209.69 1994.45,-191.35"/>
<polygon fill="black" stroke="black" points="1997.95,-191.04 1992.96,-181.69 1991.03,-192.11 1997.95,-191.04"/>
</g>
<!-- object&#45;&gt;event -->
<g id="edge88" class="edge">
<title>object&#45;&gt;event</title>
<path fill="none" stroke="black" d="M2117.72,-509.69C2101.4,-500.89 2081.51,-486.98 2072,-468 2064.83,-453.7 2066.32,-446.96 2072,-432 2076.39,-420.44 2084.57,-409.79 2092.9,-401.12"/>
<polygon fill="black" stroke="black" points="2095.3,-403.66 2100.05,-394.19 2090.43,-398.64 2095.3,-403.66"/>
</g>
<!-- object&#45;&gt;account -->
<g id="edge90" class="edge">
<title>object&#45;&gt;account</title>
<path fill="none" stroke="black" d="M2118.08,-509.52C2112.55,-507.37 2106.66,-505.37 2101,-504 2050.38,-491.72 1704.49,-464.7 1573.31,-454.77"/>
<polygon fill="black" stroke="black" points="1573.77,-451.29 1563.54,-454.03 1573.25,-458.27 1573.77,-451.29"/>
</g>
<!-- object&#45;&gt;error -->
<g id="edge82" class="edge">
<title>object&#45;&gt;error</title>
<path fill="none" stroke="black" d="M2175.15,-516.63C2224.8,-509.39 2322.78,-493.17 2403,-468 2431.92,-458.92 2887.34,-277.32 2904,-252 2912.79,-238.63 2913.64,-228.77 2904,-216 2868.77,-169.35 2708.6,-153.96 2651,-144 2358.28,-93.39 1998.59,-90.16 1879.44,-90.62"/>
<polygon fill="black" stroke="black" points="1879.52,-87.12 1869.54,-90.68 1879.56,-94.12 1879.52,-87.12"/>
</g>
<!-- object&#45;&gt;features -->
<g id="edge83" class="edge">
<title>object&#45;&gt;features</title>
<path fill="none" stroke="black" d="M2143.69,-503.51C2144.84,-485.24 2147.9,-455.96 2156,-432 2166.64,-400.54 2196.11,-386.43 2176,-360 2139.7,-312.28 2099.57,-350.92 2046,-324 1972.18,-286.91 1899.01,-221.51 1862.66,-186.57"/>
<polygon fill="black" stroke="black" points="1865.34,-184.3 1855.73,-179.84 1860.46,-189.32 1865.34,-184.3"/>
</g>
<!-- object&#45;&gt;guid -->
<g id="edge86" class="edge">
<title>object&#45;&gt;guid</title>
<path fill="none" stroke="black" d="M2129.3,-505.11C2115.4,-486.95 2097.57,-456.55 2110,-432 2122.2,-407.89 2146.8,-420.11 2159,-396 2166.23,-381.72 2168.9,-372.57 2159,-360 2156.13,-356.36 2037.8,-329.25 1975.9,-315.28"/>
<polygon fill="black" stroke="black" points="1976.68,-311.87 1966.15,-313.08 1975.14,-318.7 1976.68,-311.87"/>
</g>
<!-- object&#45;&gt;hash -->
<g id="edge85" class="edge">
<title>object&#45;&gt;hash</title>
<path fill="none" stroke="black" d="M2118,-509.83C2112.48,-507.66 2106.6,-505.58 2101,-504 2030.1,-484.06 1511.77,-431.07 1447,-396 1427.91,-385.67 1393.5,-341.74 1381,-324 1367.18,-304.39 1354.67,-280.22 1346.03,-262.02"/>
<polygon fill="black" stroke="black" points="1349.32,-260.78 1341.94,-253.18 1342.97,-263.73 1349.32,-260.78"/>
</g>
<!-- object&#45;&gt;from_bcs -->
<g id="edge87" class="edge">
<title>object&#45;&gt;from_bcs</title>
<path fill="none" stroke="black" d="M2154.88,-504.89C2169.03,-486.25 2193.92,-455.16 2219,-432 2279.09,-376.51 2330.83,-396.85 2368,-324 2377.51,-305.36 2376.13,-281.55 2372.71,-263.25"/>
<polygon fill="black" stroke="black" points="2376.15,-262.62 2370.59,-253.61 2369.32,-264.13 2376.15,-262.62"/>
</g>
<!-- object&#45;&gt;create_signer -->
<g id="edge89" class="edge">
<title>object&#45;&gt;create_signer</title>
<path fill="none" stroke="black" d="M2122.5,-507.33C2106.54,-496.65 2083.82,-481.44 2064,-468 2030.67,-445.41 1992.69,-419.38 1966.43,-401.32"/>
<polygon fill="black" stroke="black" points="1968.44,-398.46 1958.22,-395.68 1964.47,-404.23 1968.44,-398.46"/>
</g>
<!-- transaction_context -->
<g id="node37" class="node">
<title>transaction_context</title>
<ellipse fill="none" stroke="black" cx="2311" cy="-450" rx="83.08" ry="18"/>
<text text-anchor="middle" x="2311" y="-444.95" font-family="Times,serif" font-size="14.00">transaction_context</text>
</g>
<!-- object&#45;&gt;transaction_context -->
<g id="edge91" class="edge">
<title>object&#45;&gt;transaction_context</title>
<path fill="none" stroke="black" d="M2168.88,-510.22C2193.99,-499.75 2232.7,-483.63 2263.38,-470.84"/>
<polygon fill="black" stroke="black" points="2264.58,-474.13 2272.46,-467.06 2261.89,-467.67 2264.58,-474.13"/>
</g>
<!-- code&#45;&gt;vector -->
<g id="edge92" class="edge">
<title>code&#45;&gt;vector</title>
<path fill="none" stroke="black" d="M2098.3,-590.87C2273.84,-576.92 3209.73,-491.64 3305,-252 3338.57,-167.55 3291.07,-108.85 3208,-72 3120.91,-33.37 3008.32,-22.81 2946.56,-19.98"/>
<polygon fill="black" stroke="black" points="2946.91,-16.49 2936.78,-19.58 2946.63,-23.48 2946.91,-16.49"/>
</g>
<!-- code&#45;&gt;option -->
<g id="edge93" class="edge">
<title>code&#45;&gt;option</title>
<path fill="none" stroke="black" d="M2041.49,-593.15C1831.93,-593.93 534.63,-593.67 422,-468 325.65,-360.5 337.38,-240.22 445,-144 482.59,-110.4 628.9,-97.58 704.39,-93.13"/>
<polygon fill="black" stroke="black" points="704.13,-96.65 713.92,-92.6 703.73,-89.66 704.13,-96.65"/>
</g>
<!-- code&#45;&gt;string -->
<g id="edge94" class="edge">
<title>code&#45;&gt;string</title>
<path fill="none" stroke="black" d="M2098.79,-593.2C2179.95,-593.14 2408.18,-588.57 2461,-540 2560.13,-448.86 2510.38,-261.02 2486.93,-190.53"/>
<polygon fill="black" stroke="black" points="2490.32,-189.64 2483.78,-181.32 2483.7,-191.91 2490.32,-189.64"/>
</g>
<!-- code&#45;&gt;signer -->
<g id="edge95" class="edge">
<title>code&#45;&gt;signer</title>
<path fill="none" stroke="black" d="M2042.74,-588.25C1916.57,-566.26 1394.64,-475.02 1379,-468 1326.48,-444.43 1017.26,-189.83 924.37,-112.89"/>
<polygon fill="black" stroke="black" points="926.69,-110.26 916.75,-106.58 922.22,-115.65 926.69,-110.26"/>
</g>
<!-- code&#45;&gt;event -->
<g id="edge99" class="edge">
<title>code&#45;&gt;event</title>
<path fill="none" stroke="black" d="M2054.79,-578.85C2045.37,-568.99 2034.11,-554.97 2029,-540 2023.83,-524.86 2025.41,-519.59 2029,-504 2036.98,-469.33 2043.09,-460.79 2064,-432 2072.26,-420.63 2083.1,-409.59 2092.98,-400.56"/>
<polygon fill="black" stroke="black" points="2095.01,-403.43 2100.18,-394.18 2090.37,-398.19 2095.01,-403.43"/>
</g>
<!-- code&#45;&gt;object -->
<g id="edge102" class="edge">
<title>code&#45;&gt;object</title>
<path fill="none" stroke="black" d="M2085.13,-578.5C2094.91,-569.11 2107.86,-556.7 2119.03,-545.99"/>
<polygon fill="black" stroke="black" points="2121.25,-548.71 2126.04,-539.26 2116.4,-543.65 2121.25,-548.71"/>
</g>
<!-- code&#45;&gt;error -->
<g id="edge96" class="edge">
<title>code&#45;&gt;error</title>
<path fill="none" stroke="black" d="M2098.33,-591.06C2190.78,-583.54 2473.73,-550.57 2403,-432 2351.25,-345.24 2270.76,-398.93 2203,-324 2168.12,-285.43 2190.13,-256.89 2158,-216 2124.61,-173.5 2109.02,-166.75 2060,-144 2000.08,-116.19 1924.01,-102.09 1878.54,-95.66"/>
<polygon fill="black" stroke="black" points="1879.27,-92.22 1868.89,-94.35 1878.33,-99.16 1879.27,-92.22"/>
</g>
<!-- code&#45;&gt;features -->
<g id="edge97" class="edge">
<title>code&#45;&gt;features</title>
<path fill="none" stroke="black" d="M2053.26,-579.57C2042.4,-569.82 2028.99,-555.64 2022,-540 1989.16,-466.57 2052.65,-423.29 2003,-360 1973.84,-322.83 1936.94,-356.85 1903,-324 1865.62,-287.82 1849.53,-227.05 1843.03,-191.42"/>
<polygon fill="black" stroke="black" points="1846.54,-191.15 1841.43,-181.86 1839.63,-192.31 1846.54,-191.15"/>
</g>
<!-- code&#45;&gt;system_addresses -->
<g id="edge98" class="edge">
<title>code&#45;&gt;system_addresses</title>
<path fill="none" stroke="black" d="M2042.01,-590.5C1939.24,-580.92 1573.47,-543.23 1281,-468 1185.85,-443.52 1154.16,-449.87 1072,-396 1053.85,-384.1 1054.42,-375.27 1039,-360 1029.16,-350.26 1017.95,-340 1007.96,-331.12"/>
<polygon fill="black" stroke="black" points="1010.52,-328.71 1000.7,-324.73 1005.89,-333.96 1010.52,-328.71"/>
</g>
<!-- copyable_any -->
<g id="node38" class="node">
<title>copyable_any</title>
<ellipse fill="none" stroke="black" cx="2274" cy="-306" rx="62.1" ry="18"/>
<text text-anchor="middle" x="2274" y="-300.95" font-family="Times,serif" font-size="14.00">copyable_any</text>
</g>
<!-- code&#45;&gt;copyable_any -->
<g id="edge100" class="edge">
<title>code&#45;&gt;copyable_any</title>
<path fill="none" stroke="black" d="M2098.6,-593.43C2176.96,-593.94 2392.19,-590.61 2436,-540 2488.86,-478.93 2467.11,-418.1 2411,-360 2391.31,-339.61 2362.9,-326.94 2337.05,-319.12"/>
<polygon fill="black" stroke="black" points="2338.2,-315.81 2327.62,-316.47 2336.3,-322.55 2338.2,-315.81"/>
</g>
<!-- util -->
<g id="node39" class="node">
<title>util</title>
<ellipse fill="none" stroke="black" cx="2065" cy="-522" rx="27" ry="18"/>
<text text-anchor="middle" x="2065" y="-516.95" font-family="Times,serif" font-size="14.00">util</text>
</g>
<!-- code&#45;&gt;util -->
<g id="edge101" class="edge">
<title>code&#45;&gt;util</title>
<path fill="none" stroke="black" d="M2068.76,-575.7C2068.24,-568.41 2067.62,-559.73 2067.04,-551.54"/>
<polygon fill="black" stroke="black" points="2070.53,-551.34 2066.33,-541.61 2063.55,-551.84 2070.53,-551.34"/>
</g>
<!-- string_utils&#45;&gt;string -->
<g id="edge103" class="edge">
<title>string_utils&#45;&gt;string</title>
<path fill="none" stroke="black" d="M2764.19,-647.82C2754.96,-608.09 2729.06,-507.53 2688,-432 2633.65,-332.03 2542.37,-230.92 2499.95,-186.45"/>
<polygon fill="black" stroke="black" points="2502.65,-184.21 2493.19,-179.42 2497.6,-189.06 2502.65,-184.21"/>
</g>
<!-- features&#45;&gt;vector -->
<g id="edge104" class="edge">
<title>features&#45;&gt;vector</title>
<path fill="none" stroke="black" d="M1876.59,-155.35C1899.29,-151.98 1928.79,-147.65 1955,-144 2302.56,-95.57 2722.64,-41.7 2857.27,-24.56"/>
<polygon fill="black" stroke="black" points="2857.32,-28.08 2866.8,-23.34 2856.44,-21.13 2857.32,-28.08"/>
</g>
<!-- features&#45;&gt;signer -->
<g id="edge105" class="edge">
<title>features&#45;&gt;signer</title>
<path fill="none" stroke="black" d="M1799.47,-158.06C1647.69,-146.77 1102.84,-106.24 942.61,-94.32"/>
<polygon fill="black" stroke="black" points="943.06,-90.84 932.83,-93.59 942.54,-97.82 943.06,-90.84"/>
</g>
<!-- features&#45;&gt;error -->
<g id="edge106" class="edge">
<title>features&#45;&gt;error</title>
<path fill="none" stroke="black" d="M1839,-143.7C1839,-136.41 1839,-127.73 1839,-119.54"/>
<polygon fill="black" stroke="black" points="1842.5,-119.62 1839,-109.62 1835.5,-119.62 1842.5,-119.62"/>
</g>
<!-- system_addresses&#45;&gt;signer -->
<g id="edge107" class="edge">
<title>system_addresses&#45;&gt;signer</title>
<path fill="none" stroke="black" d="M973.43,-287.85C959.27,-250.9 925.78,-163.49 908.58,-118.62"/>
<polygon fill="black" stroke="black" points="911.88,-117.43 905.03,-109.35 905.34,-119.94 911.88,-117.43"/>
</g>
<!-- system_addresses&#45;&gt;error -->
<g id="edge108" class="edge">
<title>system_addresses&#45;&gt;error</title>
<path fill="none" stroke="black" d="M1007.95,-288.85C1024.64,-278.84 1046.02,-265.38 1064,-252 1122.63,-208.37 1120.65,-172.39 1188,-144 1299.1,-97.17 1674.79,-91.57 1798.86,-91.02"/>
<polygon fill="black" stroke="black" points="1798.56,-94.52 1808.55,-90.98 1798.54,-87.52 1798.56,-94.52"/>
</g>
<!-- ed25519&#45;&gt;option -->
<g id="edge109" class="edge">
<title>ed25519&#45;&gt;option</title>
<path fill="none" stroke="black" d="M1527.88,-289.85C1501.55,-269.78 1451.93,-234.74 1404,-216 1346.6,-193.55 930.89,-121.74 793.76,-98.4"/>
<polygon fill="black" stroke="black" points="794.43,-94.97 783.98,-96.74 793.25,-101.87 794.43,-94.97"/>
</g>
<!-- ed25519&#45;&gt;bcs -->
<g id="edge111" class="edge">
<title>ed25519&#45;&gt;bcs</title>
<path fill="none" stroke="black" d="M1580.37,-294.33C1662.23,-268.15 1872.38,-200.94 1955.96,-174.21"/>
<polygon fill="black" stroke="black" points="1956.98,-177.55 1965.44,-171.17 1954.85,-170.89 1956.98,-177.55"/>
</g>
<!-- ed25519&#45;&gt;type_info -->
<g id="edge112" class="edge">
<title>ed25519&#45;&gt;type_info</title>
<path fill="none" stroke="black" d="M1587.43,-299.91C1685.54,-287.56 1936.34,-255.98 2047.97,-241.93"/>
<polygon fill="black" stroke="black" points="2048.3,-245.41 2057.79,-240.69 2047.43,-238.47 2048.3,-245.41"/>
</g>
<!-- ed25519&#45;&gt;error -->
<g id="edge110" class="edge">
<title>ed25519&#45;&gt;error</title>
<path fill="none" stroke="black" d="M1551.48,-287.67C1560.99,-254.49 1586.4,-181.91 1635,-144 1682.81,-106.71 1754.19,-95.49 1798.6,-92.21"/>
<polygon fill="black" stroke="black" points="1798.55,-95.72 1808.31,-91.61 1798.12,-88.74 1798.55,-95.72"/>
</g>
<!-- ed25519&#45;&gt;hash -->
<g id="edge113" class="edge">
<title>ed25519&#45;&gt;hash</title>
<path fill="none" stroke="black" d="M1514.19,-294.22C1475.02,-281.34 1409.76,-259.9 1369.46,-246.65"/>
<polygon fill="black" stroke="black" points="1370.58,-243.34 1359.99,-243.54 1368.4,-249.99 1370.58,-243.34"/>
</g>
<!-- multi_ed25519&#45;&gt;option -->
<g id="edge114" class="edge">
<title>multi_ed25519&#45;&gt;option</title>
<path fill="none" stroke="black" d="M1506.73,-360.11C1483.72,-336.18 1440.41,-290.97 1404,-252 1389.18,-236.14 1390.33,-225.87 1371,-216 1247.48,-152.91 1197.02,-207.17 1061,-180 961.4,-160.1 847.32,-123.9 788.92,-104.36"/>
<polygon fill="black" stroke="black" points="790.37,-101.16 779.78,-101.29 788.14,-107.79 790.37,-101.16"/>
</g>
<!-- multi_ed25519&#45;&gt;bcs -->
<g id="edge117" class="edge">
<title>multi_ed25519&#45;&gt;bcs</title>
<path fill="none" stroke="black" d="M1557.21,-362.08C1581.26,-351.55 1614.15,-337.04 1643,-324 1760.02,-271.09 1898.3,-206.5 1959.34,-177.87"/>
<polygon fill="black" stroke="black" points="1960.54,-181.18 1968.11,-173.76 1957.57,-174.84 1960.54,-181.18"/>
</g>
<!-- multi_ed25519&#45;&gt;error -->
<g id="edge115" class="edge">
<title>multi_ed25519&#45;&gt;error</title>
<path fill="none" stroke="black" d="M1511.4,-360.2C1505.21,-350.18 1498.21,-336.93 1495,-324 1491.15,-308.47 1490.04,-303.21 1495,-288 1519.54,-212.69 1533.72,-187.37 1600,-144 1661.24,-103.92 1748.23,-93.78 1798.62,-91.44"/>
<polygon fill="black" stroke="black" points="1798.63,-94.94 1808.49,-91.07 1798.36,-87.94 1798.63,-94.94"/>
</g>
<!-- multi_ed25519&#45;&gt;features -->
<g id="edge116" class="edge">
<title>multi_ed25519&#45;&gt;features</title>
<path fill="none" stroke="black" d="M1547.01,-360.74C1603.61,-322.41 1745.34,-226.43 1808.17,-183.88"/>
<polygon fill="black" stroke="black" points="1809.99,-186.88 1816.3,-178.37 1806.06,-181.08 1809.99,-186.88"/>
</g>
<!-- multi_ed25519&#45;&gt;hash -->
<g id="edge118" class="edge">
<title>multi_ed25519&#45;&gt;hash</title>
<path fill="none" stroke="black" d="M1489.48,-362.06C1469.6,-352.48 1444.39,-339.05 1424,-324 1397.74,-304.63 1371.67,-277.79 1354.4,-258.66"/>
<polygon fill="black" stroke="black" points="1357.15,-256.49 1347.89,-251.34 1351.92,-261.14 1357.15,-256.49"/>
</g>
<!-- multi_ed25519&#45;&gt;ed25519 -->
<g id="edge119" class="edge">
<title>multi_ed25519&#45;&gt;ed25519</title>
<path fill="none" stroke="black" d="M1528.93,-359.7C1531.49,-352.24 1534.55,-343.32 1537.41,-334.97"/>
<polygon fill="black" stroke="black" points="1540.71,-336.13 1540.64,-325.54 1534.09,-333.86 1540.71,-336.13"/>
</g>
<!-- from_bcs&#45;&gt;string -->
<g id="edge120" class="edge">
<title>from_bcs&#45;&gt;string</title>
<path fill="none" stroke="black" d="M2388.75,-218.15C2405.66,-207.59 2428.51,-193.31 2446.72,-181.92"/>
<polygon fill="black" stroke="black" points="2448.39,-185.01 2455.01,-176.74 2444.68,-179.08 2448.39,-185.01"/>
</g>
<!-- chain_id&#45;&gt;system_addresses -->
<g id="edge121" class="edge">
<title>chain_id&#45;&gt;system_addresses</title>
<path fill="none" stroke="black" d="M1135.7,-365.28C1106.9,-354.5 1063.68,-338.33 1030.08,-325.75"/>
<polygon fill="black" stroke="black" points="1031.55,-322.56 1020.96,-322.33 1029.1,-329.12 1031.55,-322.56"/>
</g>
<!-- aggregator_factory&#45;&gt;table -->
<g id="edge123" class="edge">
<title>aggregator_factory&#45;&gt;table</title>
<path fill="none" stroke="black" d="M569.73,-359.85C579.87,-323.07 603.79,-236.29 616.21,-191.24"/>
<polygon fill="black" stroke="black" points="619.56,-192.26 618.85,-181.69 612.81,-190.4 619.56,-192.26"/>
</g>
<!-- aggregator_factory&#45;&gt;error -->
<g id="edge122" class="edge">
<title>aggregator_factory&#45;&gt;error</title>
<path fill="none" stroke="black" d="M589.63,-360.37C657.29,-315.7 853.19,-193.15 1036,-144 1182.32,-104.66 1657.15,-93.94 1798.77,-91.58"/>
<polygon fill="black" stroke="black" points="1798.45,-95.08 1808.4,-91.42 1798.34,-88.08 1798.45,-95.08"/>
</g>
<!-- aggregator_factory&#45;&gt;system_addresses -->
<g id="edge124" class="edge">
<title>aggregator_factory&#45;&gt;system_addresses</title>
<path fill="none" stroke="black" d="M628.03,-366.37C703.24,-353.68 828.72,-332.52 907.77,-319.18"/>
<polygon fill="black" stroke="black" points="908.31,-322.64 917.59,-317.53 907.15,-315.74 908.31,-322.64"/>
</g>
<!-- aggregator_factory&#45;&gt;aggregator -->
<g id="edge125" class="edge">
<title>aggregator_factory&#45;&gt;aggregator</title>
<path fill="none" stroke="black" d="M548.3,-360.05C539.78,-351.42 529.28,-340.76 519.92,-331.27"/>
<polygon fill="black" stroke="black" points="522.65,-329.05 513.14,-324.38 517.66,-333.96 522.65,-329.05"/>
</g>
<!-- optional_aggregator&#45;&gt;option -->
<g id="edge126" class="edge">
<title>optional_aggregator&#45;&gt;option</title>
<path fill="none" stroke="black" d="M522.6,-434.11C503.22,-425.51 481.23,-412.98 466,-396 442.97,-370.32 443.56,-357.87 437,-324 421.35,-243.25 419.11,-199.29 480,-144 512.35,-114.63 636.31,-100.17 704.46,-94.31"/>
<polygon fill="black" stroke="black" points="704.51,-97.82 714.19,-93.5 703.93,-90.84 704.51,-97.82"/>
</g>
<!-- optional_aggregator&#45;&gt;error -->
<g id="edge127" class="edge">
<title>optional_aggregator&#45;&gt;error</title>
<path fill="none" stroke="black" d="M593.74,-432.59C700.68,-371.68 1072.41,-161.13 1131,-144 1257.63,-106.97 1667.54,-94.81 1798.43,-91.82"/>
<polygon fill="black" stroke="black" points="1798.42,-95.32 1808.34,-91.6 1798.26,-88.32 1798.42,-95.32"/>
</g>
<!-- optional_aggregator&#45;&gt;aggregator -->
<g id="edge128" class="edge">
<title>optional_aggregator&#45;&gt;aggregator</title>
<path fill="none" stroke="black" d="M521.17,-434.29C503.57,-425.98 485.08,-413.63 475,-396 464.07,-376.87 471.16,-352.33 479.94,-333.87"/>
<polygon fill="black" stroke="black" points="482.98,-335.61 484.49,-325.13 476.77,-332.38 482.98,-335.61"/>
</g>
<!-- optional_aggregator&#45;&gt;aggregator_factory -->
<g id="edge129" class="edge">
<title>optional_aggregator&#45;&gt;aggregator_factory</title>
<path fill="none" stroke="black" d="M565,-431.7C565,-424.41 565,-415.73 565,-407.54"/>
<polygon fill="black" stroke="black" points="568.5,-407.62 565,-397.62 561.5,-407.62 568.5,-407.62"/>
</g>
<!-- simple_map&#45;&gt;vector -->
<g id="edge130" class="edge">
<title>simple_map&#45;&gt;vector</title>
<path fill="none" stroke="black" d="M3128.71,-145.8C3081.35,-119.43 2984.16,-65.31 2933.43,-37.06"/>
<polygon fill="black" stroke="black" points="2935.41,-34.15 2924.97,-32.35 2932,-40.27 2935.41,-34.15"/>
</g>
<!-- simple_map&#45;&gt;option -->
<g id="edge131" class="edge">
<title>simple_map&#45;&gt;option</title>
<path fill="none" stroke="black" d="M3115.46,-148.96C3107.11,-146.93 3098.33,-145.12 3090,-144 2597.95,-77.62 1350.61,-151.42 856,-108 835.15,-106.17 812.18,-102.67 792.98,-99.32"/>
<polygon fill="black" stroke="black" points="793.81,-95.92 783.35,-97.6 792.57,-102.81 793.81,-95.92"/>
</g>
<!-- simple_map&#45;&gt;error -->
<g id="edge132" class="edge">
<title>simple_map&#45;&gt;error</title>
<path fill="none" stroke="black" d="M3115.08,-149.04C3106.84,-147.04 3098.19,-145.21 3090,-144 2848.42,-108.18 2067.19,-94.41 1879.72,-91.58"/>
<polygon fill="black" stroke="black" points="1879.8,-88.08 1869.75,-91.43 1879.7,-95.08 1879.8,-88.08"/>
</g>
<!-- math64&#45;&gt;error -->
<g id="edge133" class="edge">
<title>math64&#45;&gt;error</title>
<path fill="none" stroke="black" d="M3004.87,-219.11C2988.16,-208.82 2965.24,-194.19 2946,-180 2925.94,-165.21 2926.21,-153.09 2903,-144 2806.47,-106.18 2062.86,-93.95 1879.68,-91.5"/>
<polygon fill="black" stroke="black" points="1879.75,-88 1869.7,-91.37 1879.66,-95 1879.75,-88"/>
</g>
<!-- fixed_point32 -->
<g id="node40" class="node">
<title>fixed_point32</title>
<ellipse fill="none" stroke="black" cx="3018" cy="-162" rx="62.61" ry="18"/>
<text text-anchor="middle" x="3018" y="-156.95" font-family="Times,serif" font-size="14.00">fixed_point32</text>
</g>
<!-- math64&#45;&gt;fixed_point32 -->
<g id="edge134" class="edge">
<title>math64&#45;&gt;fixed_point32</title>
<path fill="none" stroke="black" d="M3025.53,-215.7C3024.47,-208.32 3023.22,-199.52 3022.04,-191.25"/>
<polygon fill="black" stroke="black" points="3025.54,-191.01 3020.66,-181.6 3018.61,-192 3025.54,-191.01"/>
</g>
<!-- table_with_length&#45;&gt;table -->
<g id="edge136" class="edge">
<title>table_with_length&#45;&gt;table</title>
<path fill="none" stroke="black" d="M2622.52,-227.83C2566.94,-224.08 2488.7,-219.13 2420,-216 1717.21,-183.99 858.81,-167.25 664.41,-163.71"/>
<polygon fill="black" stroke="black" points="664.65,-160.22 654.59,-163.54 664.53,-167.22 664.65,-160.22"/>
</g>
<!-- table_with_length&#45;&gt;error -->
<g id="edge135" class="edge">
<title>table_with_length&#45;&gt;error</title>
<path fill="none" stroke="black" d="M2671.03,-216.59C2637.69,-195.62 2576.09,-160.13 2518,-144 2396.59,-110.3 2006.73,-95.98 1879.54,-92.13"/>
<polygon fill="black" stroke="black" points="1879.68,-88.63 1869.58,-91.83 1879.48,-95.63 1879.68,-88.63"/>
</g>
<!-- aptos_hash&#45;&gt;bcs -->
<g id="edge139" class="edge">
<title>aptos_hash&#45;&gt;bcs</title>
<path fill="none" stroke="black" d="M2805.53,-221.26C2797.81,-219.21 2789.69,-217.32 2782,-216 2634.52,-190.78 2167.02,-170.17 2029.44,-164.53"/>
<polygon fill="black" stroke="black" points="2029.92,-161.05 2019.78,-164.14 2029.63,-168.04 2029.92,-161.05"/>
</g>
<!-- aptos_hash&#45;&gt;error -->
<g id="edge137" class="edge">
<title>aptos_hash&#45;&gt;error</title>
<path fill="none" stroke="black" d="M2810.99,-219.52C2761.27,-199.26 2662.06,-161.46 2574,-144 2313.07,-92.26 1991.14,-89.6 1879.42,-90.43"/>
<polygon fill="black" stroke="black" points="1879.54,-86.93 1869.57,-90.52 1879.61,-93.93 1879.54,-86.93"/>
</g>
<!-- aptos_hash&#45;&gt;features -->
<g id="edge138" class="edge">
<title>aptos_hash&#45;&gt;features</title>
<path fill="none" stroke="black" d="M2805.55,-221.12C2797.83,-219.08 2789.71,-217.23 2782,-216 2418.66,-158.24 2321.26,-214.72 1955,-180 1932.6,-177.88 1907.92,-174.42 1887.1,-171.17"/>
<polygon fill="black" stroke="black" points="1887.9,-167.75 1877.47,-169.64 1886.8,-174.67 1887.9,-167.75"/>
</g>
<!-- copyable_any&#45;&gt;string -->
<g id="edge140" class="edge">
<title>copyable_any&#45;&gt;string</title>
<path fill="none" stroke="black" d="M2276.49,-287.78C2280.26,-267.79 2289.33,-235.14 2310,-216 2344.19,-184.35 2397.24,-171.6 2434.35,-166.47"/>
<polygon fill="black" stroke="black" points="2434.32,-170 2443.82,-165.29 2433.46,-163.05 2434.32,-170"/>
</g>
<!-- copyable_any&#45;&gt;bcs -->
<g id="edge142" class="edge">
<title>copyable_any&#45;&gt;bcs</title>
<path fill="none" stroke="black" d="M2256.48,-288.37C2234.86,-268.66 2196.26,-235.96 2158,-216 2115.72,-193.94 2062.59,-179.02 2027.76,-170.77"/>
<polygon fill="black" stroke="black" points="2028.7,-167.4 2018.17,-168.57 2027.13,-174.22 2028.7,-167.4"/>
</g>
<!-- copyable_any&#45;&gt;type_info -->
<g id="edge143" class="edge">
<title>copyable_any&#45;&gt;type_info</title>
<path fill="none" stroke="black" d="M2238.98,-290.67C2211.6,-279.46 2173.46,-263.85 2144.54,-252.01"/>
<polygon fill="black" stroke="black" points="2145.93,-248.79 2135.35,-248.24 2143.28,-255.27 2145.93,-248.79"/>
</g>
<!-- copyable_any&#45;&gt;error -->
<g id="edge141" class="edge">
<title>copyable_any&#45;&gt;error</title>
<path fill="none" stroke="black" d="M2274.83,-287.75C2275.41,-254.37 2271.45,-180.98 2229,-144 2177.53,-99.16 1968.81,-92.03 1879.67,-91.06"/>
<polygon fill="black" stroke="black" points="1879.71,-87.56 1869.68,-90.97 1879.65,-94.56 1879.71,-87.56"/>
</g>
<!-- copyable_any&#45;&gt;from_bcs -->
<g id="edge144" class="edge">
<title>copyable_any&#45;&gt;from_bcs</title>
<path fill="none" stroke="black" d="M2295.11,-288.76C2307.31,-279.38 2322.83,-267.44 2336.15,-257.2"/>
<polygon fill="black" stroke="black" points="2337.95,-260.22 2343.75,-251.35 2333.69,-254.67 2337.95,-260.22"/>
</g>
</g>
</svg>
