<svg width="1514" height="104" viewBox="0 0 1514 104" fill="none" xmlns="http://www.w3.org/2000/svg">
<path d="M830.447 15.0184V0.318359H757.047V15.0184H742.347V88.5184H757.047V103.218H830.547V88.5184H845.247V15.0184H830.447ZM762.347 18.0184H777.547V33.2184H762.347V18.0184ZM825.247 73.5184H813.347V85.4184H774.347V73.5184H762.447V46.4184H777.647V70.2184H810.047V46.7184H825.247V73.5184ZM825.247 33.2184H810.047V18.0184H825.247V33.2184Z" fill="#086CD9"/>
<path d="M0.746582 103.118V0.318359H103.547V15.0184H30.1466V44.4184H88.8466V59.1184H30.1466V88.5184H103.547V103.218H0.746582V103.118Z" fill="#086CD9"/>
<path d="M126.847 103.118V0.318359H156.247V15.0184H170.947V29.7184H185.647V15.0184H200.347V0.318359H229.747V103.118H200.347V44.3184H185.647V73.7184H170.947V44.3184H156.247V103.018H126.847V103.118Z" fill="#086CD9"/>
<path d="M393.647 103.118V88.4184H378.947V73.7184H408.347V88.4184H452.447V0.318359H481.847V88.4184H467.047V103.118H393.647Z" fill="#086CD9"/>
<path d="M504.947 103.118V88.4184H534.347V15.0184H504.947V0.318359H593.047V15.0184H563.647V88.4184H593.047V103.118H504.947Z" fill="#086CD9"/>
<path d="M645.647 103.118V88.4184H631.047V73.7184H616.347V29.7184H631.047V15.0184H645.747V0.318359H704.447V15.0184H719.147V29.7184H689.747V15.0184H660.347V29.7184H645.647V73.7184H660.347V88.4184H689.747V73.7184H719.147V88.4184H704.447V103.118H645.647Z" fill="#086CD9"/>
<path d="M868.447 103.118V88.4184H897.846V15.0184H868.447V0.318359H956.547V15.0184H927.146V88.4184H956.547V103.118H868.447Z" fill="#086CD9"/>
<path d="M979.747 103.118V0.318359H1009.15V15.0184H1023.85V29.7184H1038.55V44.4184H1053.25V0.318359H1082.65V103.118H1053.25V73.7184H1038.55V59.0184H1023.85V44.3184H1009.15V103.018H979.747V103.118Z" fill="#086CD9"/>
<path d="M1105.85 103.119V73.7188H1135.25V103.119H1105.85Z" fill="#086CD9"/>
<path d="M1158.45 103.118V0.318359H1261.25V15.0184H1187.85V44.4184H1246.55V59.1184H1187.85V103.218H1158.45V103.118Z" fill="#086CD9"/>
<path d="M1299.15 103.118V88.4184H1284.45V0.318359H1313.85V88.4184H1357.95V0.318359H1387.35V88.4184H1372.65V103.118H1299.15Z" fill="#086CD9"/>
<path d="M1410.55 103.118V0.318359H1439.95V15.0184H1454.65V29.7184H1469.35V44.4184H1484.05V0.318359H1513.45V103.118H1484.05V73.7184H1469.35V59.0184H1454.65V44.3184H1439.95V103.018H1410.55V103.118Z" fill="#086CD9"/>
<path d="M340.947 15.0184V0.318359H267.447V15.0184H252.747V88.5184H267.447V103.218H340.947V88.5184H355.647V15.0184H340.947ZM272.847 18.0184H288.047V33.2184H272.847V18.0184ZM335.647 73.5184H323.747V85.4184H284.747V73.5184H272.847V46.4184H288.047V70.2184H320.447V46.7184H335.647V73.5184ZM335.647 33.2184H320.447V18.0184H335.647V33.2184Z" fill="#086CD9"/>
</svg>
